<?xml version="1.0" encoding="UTF-8" standalone="no"?>
<!-- Created with Inkscape (http://www.inkscape.org/) -->

<svg
   width="512mm"
   height="96mm"
   viewBox="0 0 512 96"
   version="1.1"
   id="svg1"
   xml:space="preserve"
   inkscape:export-filename="../YouKonCMP/composeApp/src/commonMain/resources/header.png"
   inkscape:export-xdpi="50.799999"
   inkscape:export-ydpi="50.799999"
   inkscape:version="1.3.1 (91b66b0, 2023-11-16)"
   sodipodi:docname="header.svg"
   xmlns:inkscape="http://www.inkscape.org/namespaces/inkscape"
   xmlns:sodipodi="http://sodipodi.sourceforge.net/DTD/sodipodi-0.dtd"
   xmlns="http://www.w3.org/2000/svg"
   xmlns:svg="http://www.w3.org/2000/svg"><sodipodi:namedview
     id="namedview1"
     pagecolor="#ffffff"
     bordercolor="#666666"
     borderopacity="1.0"
     inkscape:showpageshadow="2"
     inkscape:pageopacity="0.0"
     inkscape:pagecheckerboard="0"
     inkscape:deskcolor="#d1d1d1"
     inkscape:document-units="mm"
     inkscape:zoom="0.36440298"
     inkscape:cx="996.14993"
     inkscape:cy="277.16568"
     inkscape:window-width="1472"
     inkscape:window-height="809"
     inkscape:window-x="0"
     inkscape:window-y="37"
     inkscape:window-maximized="1"
     inkscape:current-layer="layer1" /><defs
     id="defs1" /><g
     inkscape:label="Layer 1"
     inkscape:groupmode="layer"
     id="layer1"><g
       inkscape:label="Layer 1"
       id="layer1-3"
       transform="matrix(0.48281617,0,0,0.4777263,-17.105524,-15.646662)"><path
         style="fill:#000000;fill-opacity:0.331984;stroke-width:0.264583"
         d="m 204.45203,233.55827 c 2.11193,-0.22238 6.62199,-1.17928 8.58475,-1.82143 6.08516,-1.99086 11.42874,-6.0228 15.49506,-11.69162 3.13704,-4.37332 5.04381,-9.44517 5.54432,-14.74745 0.12363,-1.30969 0.20547,-14.52563 0.18187,-29.36875 -0.038,-23.90139 -0.0909,-27.12365 -0.46296,-28.17813 -0.54633,-1.54862 -5.32656,-10.0224 -9.62706,-17.06562 -1.86519,-3.05477 -4.32839,-7.33642 -6.19414,-10.76697 -0.60893,-1.11965 -1.45372,-2.32734 -1.8773,-2.68377 -1.55667,-1.30985 -7.55316,-3.2325 -10.98308,-3.52149 -4.1435,-0.34912 -8.73246,1.26563 -12.5677,4.42229 -2.86178,2.35544 -8.14976,6.42494 -11.45774,8.81758 -3.12075,2.25723 -3.78329,3.06154 -4.81804,5.84903 -1.20189,3.23775 -6.01175,12.27987 -6.6443,12.49072 -0.14122,0.0471 -1.44159,-1.53643 -2.8897,-3.51889 -4.14757,-5.678 -7.19093,-9.81483 -9.90897,-13.46924 -1.38245,-1.8587 -3.64464,-4.90361 -5.02709,-6.76647 -1.38244,-1.86287 -3.28744,-4.4195 -4.23333,-5.68142 -0.94588,-1.26191 -2.43417,-3.25901 -3.30729,-4.438 -2.17492,-2.9368 -4.59173,-5.48061 -5.6139,-5.90891 -1.11317,-0.46644 -3.47754,-0.45563 -4.61856,0.0211 -1.23448,0.5158 -2.71977,2.16677 -6.54838,7.27885 -1.79159,2.39219 -3.98758,5.26158 -4.87996,6.37643 -1.68629,2.10665 -6.80519,8.58402 -14.31483,18.11372 -6.50684,8.25718 -7.04523,8.89876 -7.37666,8.79059 -0.64443,-0.21032 -7.54079,-9.73562 -9.32279,-12.87669 -1.11875,-1.97201 -1.99186,-3.01173 -5.17325,-6.16052 -3.06474,-3.03332 -4.21997,-3.99364 -5.79784,-4.81964 -1.08377,-0.56734 -3.81596,-2.22226 -6.07154,-3.6776 -6.57723,-4.24378 -7.92973,-4.79411 -11.77395,-4.7908 -3.03828,0.003 -4.94089,0.47766 -6.7727,1.691 -1.40387,0.92988 -2.33436,2.17907 -5.52985,7.42387 -1.28559,2.11005 -3.15682,5.14615 -4.15828,6.74688 -1.00147,1.60073 -2.52951,4.07419 -3.39564,5.49659 -0.86613,1.4224 -2.39615,3.86319 -3.40003,5.42396 -2.44371,3.79931 -3.52306,6.14872 -3.87031,8.42448 -0.39827,2.61018 -0.18701,55.46676 0.22989,57.51642 2.21544,10.89205 10.0257,20.73371 19.44921,24.50787 2.90939,1.16523 6.68494,2.11568 9.7713,2.45983 1.76273,0.19656 23.53278,0.27131 70.49254,0.24204 37.3682,-0.0233 68.35891,-0.0862 68.86823,-0.13985 z M 78.24579,224.35072 c 0,-0.17267 3.72121,-2.03533 6.71691,-3.36216 2.96591,-1.31364 12.1477,-4.65516 15.3758,-5.59569 7.88,-2.29592 17.77859,-4.00062 27.25208,-4.69326 13.46994,-0.98483 30.81712,1.09343 45.11146,5.40453 6.37718,1.92333 13.84263,4.85196 18.58761,7.29177 1.26569,0.6508 1.42164,0.80191 0.92604,0.89734 -0.82988,0.15978 -113.9699,0.21684 -113.9699,0.0575 z m 129.97129,-2.7272 c -6.98822,-4.68784 -19.32856,-10.29454 -30.02097,-13.63971 -7.9658,-2.49214 -11.97496,-3.50475 -18.90332,-4.77453 -18.33327,-3.35997 -36.39101,-2.96813 -54.45638,1.18168 -10.0012,2.29738 -22.7648,6.87359 -32.80576,11.76204 -3.29739,1.60534 -4.56169,2.27634 -9.63476,5.11349 -3.12726,1.74894 -3.02906,1.73052 -4.88154,0.91533 C 50.63102,219.15278 45.34384,211.609 44.55712,203.69438 l -0.15938,-1.60339 1.457,-0.88303 c 0.80135,-0.48567 2.73193,-1.36472 4.29017,-1.95346 3.89065,-1.46995 5.69873,-1.50099 8.53491,-0.14649 1.09865,0.5247 2.706,1.43341 3.57187,2.01936 2.21537,1.49917 3.48511,2.0973 6.66024,3.1374 3.87894,1.27064 6.99261,1.62837 10.4345,1.19883 3.28921,-0.4105 5.38638,-1.05272 12.39311,-3.79517 12.03618,-4.71101 21.47528,-7.25221 31.88229,-8.58341 5.25626,-0.67234 17.05796,-0.67304 22.225,-10e-4 8.93606,1.16171 13.21355,2.31092 27.25208,7.32169 2.91042,1.03881 6.18849,2.22863 7.28461,2.64404 9.86726,3.73953 16.66028,3.38766 23.95567,-1.24087 6.60069,-4.18778 8.97182,-4.27577 16.68535,-0.61913 1.48936,0.70604 2.97028,1.36697 3.29093,1.46875 0.55926,0.17749 0.57601,0.27615 0.41112,2.42125 -0.46903,6.10196 -4.30323,12.1168 -10.07928,15.81169 -1.56051,0.99824 -4.08825,2.02636 -4.57815,1.86208 -0.18479,-0.062 -1.01823,-0.57033 -1.85208,-1.12969 z M 71.1758,195.54556 c -0.75413,-0.38215 -2.03235,-1.23338 -2.8405,-1.89162 -3.16584,-2.57861 -5.86364,-3.98935 -9.00722,-4.71005 -2.89772,-0.66434 -4.41168,-0.77393 -6.2425,-0.45184 -1.66256,0.29248 -6.60029,1.8717 -7.92113,2.53339 l -0.66988,0.33559 0.0981,-2.68892 c 0.0735,-2.01432 0.19989,-2.76856 0.50382,-3.00635 0.6729,-0.52646 4.82168,-1.94405 7.25403,-2.47863 7.46084,-1.63973 11.9656,-1.145 19.18862,2.10734 3.56472,1.60511 5.21174,1.89453 11.99628,2.10801 5.89224,0.18541 5.96979,0.19538 7.33842,0.94428 0.76078,0.41629 1.58187,0.97638 1.82463,1.24463 0.42069,0.46485 0.36823,0.52037 -1.11866,1.18383 -3.34303,1.49169 -11.17015,4.34114 -14.48064,5.27165 -1.93635,0.54426 -4.24571,0.34882 -5.92336,-0.50131 z m 114.27824,-0.92563 c -2.13865,-0.70921 -7.69846,-2.65865 -12.35513,-4.33208 -4.65666,-1.67343 -9.86565,-3.43976 -11.57552,-3.92518 l -3.10885,-0.88259 v -7.89951 c 0,-4.83181 -0.11217,-8.34499 -0.28885,-9.04663 -0.57809,-2.2958 -3.22247,-3.77917 -5.51345,-3.09278 -1.46498,0.43892 -2.77119,1.64191 -3.14785,2.89908 -0.20462,0.68297 -0.31027,3.50905 -0.31027,8.29993 v 7.26435 l -2.57969,-0.34021 c -1.41882,-0.18711 -3.20476,-0.34449 -3.96875,-0.34973 l -1.38906,-0.01 -0.0256,-6.01927 c -0.0141,-3.3106 -0.0438,-16.40678 -0.0662,-29.10261 -0.0385,-21.93887 -0.0179,-23.05391 0.41761,-22.48959 0.252,0.32657 1.09393,1.48673 1.87097,2.57814 5.15137,7.23552 6.94363,9.72433 10.47938,14.55208 2.18481,2.98318 4.54247,6.22756 5.23922,7.20974 0.69676,0.98218 2.15981,3.01993 3.25121,4.52833 1.09141,1.5084 2.93688,4.08973 4.10104,5.73628 6.69691,9.47188 8.59108,12.11839 12.33243,17.23073 2.27169,3.10413 4.34474,6.21742 4.60679,6.91841 0.96447,2.58002 2.56177,3.46961 6.21182,3.45957 2.47134,-0.007 4.21422,-0.51369 8.60562,-2.50284 8.72506,-3.95215 15.63249,-3.99109 24.77166,-0.13967 1.76429,0.74351 1.80369,0.85135 1.6302,4.46242 -0.0855,1.77956 -0.17522,3.26184 -0.19938,3.29394 -0.0925,0.12291 -3.80971,-1.5115 -5.73387,-2.52112 -4.09992,-2.15124 -8.10705,-2.40888 -12.74991,-0.81975 -3.03909,1.0402 -4.20186,1.626 -7.87991,3.96985 -1.6138,1.02841 -3.37032,2.03806 -3.90336,2.24367 -1.66186,0.64103 -4.33542,0.28135 -8.72237,-1.17344 z M 75.02245,173.02798 c -0.86721,-1.159 -2.00418,-2.88541 -2.52661,-3.83645 -0.52242,-0.95105 -1.12839,-1.93827 -1.3466,-2.19382 -0.53517,-0.62678 -0.28219,-0.80275 0.64371,-0.44776 1.64538,0.63084 4.12206,-0.33781 4.99147,-1.95221 0.89264,-1.65753 0.59303,-2.44865 -5.2279,-13.80414 -7.1001,-13.85091 -7.08649,-13.82813 -7.64672,-12.80181 -0.83662,1.53265 -10.47864,21.40779 -11.11442,22.91021 -0.95027,2.24558 -0.88154,3.29733 0.28875,4.41854 0.84314,0.80778 2.15984,1.19991 4.06114,1.20946 0.69123,0.003 1.25677,0.0628 1.25677,0.13177 0,0.069 -0.8747,1.58705 -1.94378,3.37344 -1.83133,3.06005 -1.99589,3.25227 -2.84427,3.3222 -1.17809,0.0971 -4.1344,0.7434 -6.45674,1.41153 -1.01864,0.29306 -2.06517,0.5942 -2.32562,0.66919 -0.45046,0.1297 -0.46944,-0.39018 -0.38942,-10.66659 0.0772,-9.91315 0.12451,-10.87921 0.57458,-11.72898 0.26976,-0.50932 2.59788,-4.43839 5.1736,-8.73125 2.57572,-4.29286 6.08563,-10.18646 7.79982,-13.09687 1.71418,-2.91042 3.479,-5.63385 3.92181,-6.05207 0.73158,-0.69095 0.9312,-0.74739 2.18568,-0.61792 1.86326,0.19231 3.22962,0.94049 5.46655,2.99331 1.15588,1.06075 2.70633,2.14029 4.02417,2.80193 3.80778,1.91172 4.24949,2.3186 5.73865,5.28608 1.20587,2.40298 2.66855,4.66657 9.6302,14.90325 1.18757,1.74625 2.6668,4.04669 3.28718,5.11208 l 1.12796,1.93708 -0.6581,0.99445 c -0.36195,0.54695 -1.77739,2.35417 -3.14542,4.01605 -1.36803,1.66187 -2.77218,3.43831 -3.12033,3.94763 -0.6782,0.99216 -6.46807,8.4029 -7.46853,9.55934 l -0.60195,0.69579 -0.88944,-0.82809 c -0.4892,-0.45544 -1.59898,-1.77636 -2.46619,-2.93537 z m 113.93158,-0.74435 c -2.24164,-3.0829 -7.87168,-10.73047 -10.34391,-14.05066 -0.73133,-0.98217 -1.10505,-1.72632 -1.01285,-2.0168 0.20374,-0.64194 2.43146,-4.65266 5.36329,-9.6559 1.36438,-2.32834 3.3846,-6.05975 4.4894,-8.29203 1.95798,-3.95617 2.05606,-4.09607 3.883,-5.53859 1.03086,-0.81395 3.11088,-2.66272 4.62227,-4.10837 3.64882,-3.49011 4.74866,-4.01053 8.06643,-3.81687 3.06841,0.17911 3.86147,0.4784 4.55318,1.71831 0.30301,0.54315 1.34481,2.34243 2.31511,3.99839 0.97029,1.65596 1.76417,3.05627 1.76417,3.1118 0,0.0555 0.87087,1.55814 1.93526,3.33916 1.0644,1.78101 2.59454,4.36929 3.40032,5.75174 0.80579,1.38245 2.30055,3.94229 3.32171,5.68854 1.02115,1.74625 2.19968,3.82984 2.61894,4.63021 l 0.76231,1.45521 0.0517,10.53041 c 0.0516,10.52238 0.0512,10.53029 -0.49321,10.35749 -2.1169,-0.67188 -7.83697,-2.23478 -8.17908,-2.23478 -0.53297,0 -4.21166,-5.65111 -4.21166,-6.46984 0,-0.0775 0.44729,-0.12341 0.99397,-0.10198 1.4225,0.0557 3.37569,-0.87935 3.88204,-1.85852 1.02278,-1.97784 0.73906,-2.83178 -4.97873,-14.98528 -4.18961,-8.90525 -5.8112,-12.11367 -6.18553,-12.23845 -0.3908,-0.13026 -0.75855,0.54693 -7.04045,12.96479 -4.24185,8.38515 -5.7213,11.55166 -5.7213,12.24547 0,2.47607 1.44626,3.64131 4.56337,3.67668 0.98188,0.0111 1.78555,0.047 1.78593,0.0798 2.7e-4,0.0327 -0.43118,0.86616 -0.95904,1.85208 -1.1299,2.11037 -3.49106,5.57954 -4.83583,7.1051 -0.93867,1.06485 -0.95866,1.07266 -1.50536,0.58794 -0.30473,-0.27018 -1.61216,-1.94644 -2.90541,-3.72502 z m -3.28755,-56.30296 c 2.01998,-0.84348 2.69481,-2.63902 2.58884,-6.8882 l -0.0752,-3.01345 2.82224,-0.96228 c 1.55223,-0.52925 3.77508,-1.47692 4.93967,-2.10594 l 2.11743,-1.14367 2.10387,2.01003 c 3.31256,3.1648 6.24397,4.28434 8.61937,3.29183 1.04126,-0.43506 3.62282,-3.39518 4.54071,-5.20656 0.35947,-0.70938 0.65358,-1.66664 0.65358,-2.127238 0,-0.841991 -0.90312,-2.619713 -1.33087,-2.619713 -0.12617,0 -1.17154,-1.089433 -2.32306,-2.420962 l -2.09367,-2.420963 1.11744,-2.407682 c 1.10566,-2.382322 2.05113,-5.042622 2.38372,-6.707163 l 0.17182,-0.859896 3.617,-0.0011 c 3.1206,-7.93e-4 3.73325,-0.07187 4.46405,-0.517466 1.50895,-0.92006 1.78031,-1.803318 1.87288,-6.096127 0.0747,-3.461766 0.0311,-3.919037 -0.44607,-4.681979 -1.01973,-1.630463 -1.56968,-1.800312 -5.82927,-1.800312 h -3.83693 l -0.5785,-2.645834 c -0.59846,-2.737103 -1.46794,-5.291835 -2.46857,-7.253239 -0.31774,-0.622829 -0.53964,-1.155176 -0.49311,-1.182994 0.91842,-0.549093 3.39768,-2.647292 4.52672,-3.830974 1.74754,-1.832118 2.01982,-2.764552 1.41488,-4.845452 -0.42226,-1.452525 -2.48181,-4.705156 -3.95235,-6.24193 -1.44697,-1.512128 -3.36676,-1.639499 -5.18602,-0.344072 -0.42348,0.301543 -1.99622,1.619678 -3.49497,2.929191 -1.49875,1.30951 -2.8881,2.38093 -3.08745,2.38093 -0.19934,0 -1.16401,-0.476203 -2.1437,-1.058225 -1.60407,-0.95296 -4.87097,-2.312215 -7.07992,-2.945741 l -0.83117,-0.238377 -0.0954,-3.910504 c -0.10343,-4.240689 -0.28549,-4.847412 -1.74043,-5.800238 -0.60362,-0.395301 -1.34184,-0.466706 -4.82496,-0.466706 -3.56136,0 -4.22271,0.06684 -4.93635,0.498882 -1.51764,0.918805 -1.73116,1.622719 -1.77884,5.864397 l -0.043,3.821879 -1.4552,0.405855 c -2.09231,0.583539 -4.41312,1.581095 -6.66805,2.86612 l -1.96454,1.11954 -2.62902,-2.468714 c -3.58021,-3.361904 -4.34577,-3.863485 -5.93255,-3.886893 -1.61265,-0.02379 -2.32196,0.47002 -4.16032,2.896312 -2.03137,2.681052 -3.07233,4.92584 -2.86187,6.171528 0.22425,1.327324 1.7305,3.269009 4.00149,5.158237 l 1.85728,1.545063 -0.70607,1.497645 c -0.84932,1.801495 -1.60116,4.073892 -2.46514,7.450772 l -0.64309,2.513542 -4.32604,0.132291 c -2.894,0.0885 -4.53052,0.248822 -4.94375,0.484317 -1.10691,0.630815 -1.36667,1.799151 -1.36667,6.147091 0,6.125689 0.21499,6.333244 6.55982,6.333244 h 4.22921 l 0.17427,0.992228 c 0.56312,3.206007 2.35408,8.096766 3.14368,8.584763 0.32902,0.203348 0.30036,0.238355 -3.49783,4.273066 -2.10391,2.234927 -2.19638,2.384298 -2.04731,3.307291 0.48637,3.01141 4.03836,7.74794 6.09393,8.12619 1.57595,0.28999 3.50855,-0.44129 5.34623,-2.02296 0.85885,-0.73921 2.23556,-1.92714 3.05935,-2.63986 l 1.49782,-1.29584 1.50978,0.90914 c 1.92188,1.1573 4.85225,2.37167 6.80553,2.82027 l 1.52136,0.34941 v 3.80246 c 0,6.05729 0.41125,6.49317 6.2177,6.59007 2.12597,0.0355 3.98594,-0.0558 4.36549,-0.21433 z m -6.77909,-28.706502 c -1.74378,-0.479377 -4.238,-2.150404 -5.81676,-3.896979 -3.19999,-3.540157 -4.05474,-9.045805 -2.03209,-13.089233 0.88253,-1.764244 3.16771,-4.303744 4.65938,-5.177922 1.3609,-0.797542 4.86802,-1.763091 6.38051,-1.756627 1.73818,0.0074 4.55802,0.708948 6.04363,1.503524 1.82683,0.977082 4.16682,3.333387 4.92294,4.95727 1.03043,2.212967 1.44433,4.759108 1.10936,6.824151 -0.79788,4.918731 -3.58177,8.628441 -7.7052,10.267672 -2.58395,1.027221 -4.77609,1.133946 -7.56177,0.368144 z M 97.6276,101.42874 c 3.71853,-0.88612 7.07652,-4.255838 7.07652,-7.101223 0,-1.105357 -0.85909,-4.086759 -1.94923,-6.764644 l -0.64435,-1.582817 1.2626,-1.592183 c 0.69443,-0.875702 1.94562,-2.604216 2.78043,-3.841143 1.6926,-2.507914 2.40102,-3.349853 3.18076,-3.780274 0.29104,-0.160658 2.27117,-0.362654 4.40029,-0.448882 3.61889,-0.146563 3.94072,-0.202832 4.93909,-0.863523 0.75786,-0.501526 1.30872,-1.1958 1.89712,-2.390992 0.71394,-1.450218 0.83108,-1.979229 0.84307,-3.807169 0.0146,-2.228495 -0.32981,-3.299499 -1.46104,-4.543152 -1.02351,-1.125233 -1.94221,-1.401072 -5.32327,-1.598298 -2.42563,-0.141491 -3.4239,-0.307985 -3.96246,-0.660862 -0.89501,-0.586431 -1.62982,-2.229975 -3.50255,-7.834127 l -1.46369,-4.380069 1.61828,-3.451169 c 2.05728,-4.387371 2.0715,-4.798597 0.22778,-6.584381 -1.72205,-1.667944 -2.85201,-2.444927 -7.20845,-4.956683 -4.88583,-2.816981 -5.73577,-3.028042 -6.94878,-1.725556 -0.9408,1.0102 -4.59693,9.941646 -4.64806,11.354609 -0.0597,1.649039 0.82738,2.576739 3.5039,3.66446 4.09145,1.662742 5.28285,2.394484 7.14476,4.388194 1.96221,2.101117 3.29077,4.395303 4.42537,7.641833 0.67908,1.943079 0.7396,2.431293 0.73802,5.953125 -0.002,3.311546 -0.0843,4.071762 -0.605,5.556249 -0.92847,2.646786 -2.57123,5.195948 -4.77713,7.412926 -2.12589,2.136569 -4.09837,3.37842 -7.39015,4.652762 -3.06902,1.188106 -4.39436,3.220153 -3.73561,5.727541 0.30397,1.156969 4.17161,8.788471 5.06945,10.002866 1.00897,1.364712 2.7651,1.968952 4.51233,1.552582 z m -23.779,-0.5182 c 1.32269,-0.39603 2.01446,-1.332441 4.19567,-5.679436 2.31228,-4.608214 2.70166,-6.209347 2.07405,-8.528592 -0.4308,-1.591945 -1.15152,-2.268813 -3.8569,-3.622225 -2.8567,-1.42911 -4.91097,-3.091513 -6.85705,-5.549019 -2.88207,-3.639484 -3.85858,-6.41555 -3.85858,-10.969368 0,-5.140147 1.47435,-9.450635 4.42022,-12.923199 2.27933,-2.686851 2.89416,-3.163078 6.10809,-4.731062 2.26287,-1.103992 3.11317,-1.663332 3.50496,-2.305611 1.18935,-1.949775 0.92087,-3.828753 -1.11259,-7.786637 -1.7696,-3.444324 -2.15271,-3.927294 -3.53352,-4.454633 -3.25509,-1.243129 -8.72707,1.4116 -10.75984,5.220134 -0.86361,1.618035 -0.85724,5.480544 0.0144,8.735657 l 0.61534,2.297941 -1.15332,2.067684 c -0.63432,1.137224 -1.60481,3.089651 -2.15664,4.338725 -0.79263,1.794142 -1.35751,2.622087 -2.69002,3.942754 l -1.68671,1.671714 -2.41419,0.357386 c -2.78296,0.41198 -3.69233,0.810268 -4.58787,2.009429 -0.9158,1.226275 -1.30276,2.644425 -1.28339,4.703423 0.0189,2.014765 0.51853,3.461589 1.58173,4.580893 1.32779,1.397859 2.01342,1.59577 6.13752,1.77162 4.76718,0.203269 5.07492,0.34326 6.78931,3.08855 0.70427,1.127752 1.90556,2.980283 2.66955,4.116732 0.76398,1.136451 1.38906,2.220256 1.38906,2.408454 0,0.188198 -0.65978,1.844826 -1.46619,3.681394 -2.19043,4.988655 -2.20771,6.871858 -0.0807,8.793482 1.23162,1.112697 3.74589,2.31191 5.74688,2.74105 0.76027,0.16305 1.40621,0.28621 1.43543,0.27371 0.0292,-0.0125 0.3961,-0.12544 0.81531,-0.25095 z"
         id="path927" /><path
         style="fill:#010101;stroke-width:0.264583"
         d="m 203.79267,233.4716 c 5.76048,-0.48176 11.12398,-2.15947 15.8446,-4.95619 0.30661,-0.18166 0.51778,-0.47931 0.46928,-0.66146 -0.0485,-0.18215 -0.003,-0.24608 0.10093,-0.14206 0.26521,0.26521 0.91749,-0.12758 2.76462,-1.66477 0.91407,-0.7607 1.52398,-1.45703 1.42147,-1.6229 -0.0998,-0.16139 -0.0592,-0.21612 0.0913,-0.12313 0.14895,0.0921 0.90921,-0.57415 1.68946,-1.48047 0.78025,-0.90632 1.18279,-1.46926 0.89454,-1.25098 -0.28826,0.21828 0.048,-0.18467 0.74733,-0.89545 0.74965,-0.76197 1.21237,-1.44625 1.12751,-1.66739 -0.0792,-0.20628 -0.0338,-0.30697 0.1009,-0.22375 0.33372,0.20625 2.45967,-3.77171 3.31841,-6.20924 0.38451,-1.09141 0.92934,-3.14946 1.21074,-4.57345 0.48634,-2.46108 0.51163,-3.97927 0.51163,-30.71068 0,-25.47852 -0.0412,-28.24416 -0.43835,-29.42551 -0.60172,-1.78983 -3.85127,-7.51805 -4.15753,-7.32877 -0.13661,0.0844 -0.16271,0.0149 -0.058,-0.15452 0.15185,-0.24569 -1.89632,-3.99159 -2.48031,-4.53624 -0.078,-0.0728 -0.16823,-0.27099 -0.20049,-0.44053 -0.12745,-0.66984 -2.11108,-3.5205 -2.31862,-3.33208 -0.12161,0.1104 -0.13559,0.0521 -0.0311,-0.12953 0.22969,-0.39918 -0.45924,-1.46799 -0.76667,-1.1894 -0.11942,0.10821 -0.13417,0.0523 -0.0328,-0.12427 0.22741,-0.39606 -2.57915,-5.17286 -2.87949,-4.90094 -0.11839,0.10719 -0.1278,0.0431 -0.0209,-0.14234 0.11475,-0.19912 -0.24708,-1.03614 -0.88363,-2.04403 -0.59287,-0.93875 -1.07795,-1.83583 -1.07795,-1.99351 0,-0.15767 -0.13746,-0.20173 -0.30547,-0.0979 -0.18265,0.11289 -0.23389,0.073 -0.12745,-0.0992 0.16329,-0.26419 -0.78604,-2.43956 -1.06462,-2.43956 -0.0667,0 -0.0476,0.11906 0.0423,0.26458 0.0899,0.14553 0.0294,0.26459 -0.1345,0.26459 -0.16762,0 -0.23127,-0.21037 -0.14545,-0.48074 0.17731,-0.55866 -0.974,-1.79154 -1.41722,-1.51762 -0.1664,0.10285 -0.22218,0.0201 -0.13667,-0.20272 0.16096,-0.41946 -0.56989,-0.80843 -1.00904,-0.53703 -0.15495,0.0958 -0.20505,0.0502 -0.11141,-0.10132 0.1035,-0.16747 -1.15036,-0.7183 -3.20027,-1.4059 -2.51263,-0.84282 -3.92222,-1.16175 -5.53849,-1.25314 -2.71158,-0.15332 -5.71006,0.13936 -5.46642,0.53359 0.10296,0.16659 0.0515,0.20743 -0.12441,0.0987 -0.41794,-0.25829 -2.44774,0.38615 -2.24574,0.713 0.0915,0.14799 0.0329,0.18484 -0.13188,0.083 -0.25982,-0.16058 -1.04453,0.18497 -3.04712,1.3418 -0.29928,0.17289 -1.56306,1.146 -2.80839,2.16248 -2.56438,2.09312 -3.53697,2.9373 -2.93816,2.55026 0.35267,-0.22795 0.36088,-0.20266 0.0593,0.18271 -0.19255,0.24602 -0.50567,0.38759 -0.69582,0.31462 -0.19017,-0.073 -0.66981,0.26153 -1.06588,0.74333 -0.39607,0.48181 -0.62543,0.69742 -0.50969,0.47913 0.11574,-0.21828 -0.37818,0.0773 -1.0976,0.65693 -0.71941,0.5796 -1.34771,1.14514 -1.39622,1.25677 -0.0485,0.11164 -0.20576,0.20297 -0.34946,0.20297 -0.83691,0 -6.14055,4.39551 -5.93861,4.92175 0.0745,0.19414 0.003,0.43471 -0.15846,0.53461 -0.19036,0.11765 -0.21849,0.0596 -0.0799,-0.16469 0.13704,-0.22174 0.11039,-0.28228 -0.0741,-0.16828 -0.44064,0.27233 -1.95123,4.38284 -1.74362,4.74462 0.1005,0.17514 0.0939,0.23878 -0.0147,0.14141 -0.25019,-0.22437 -3.1356,5.26856 -2.93665,5.59046 0.0811,0.13121 0.008,0.32471 -0.16235,0.43001 -0.19347,0.11957 -0.2389,0.0768 -0.12099,-0.11401 0.10383,-0.168 0.13241,-0.30546 0.0635,-0.30546 -0.12556,0 -1.49344,2.34703 -1.49344,2.56248 0,0.063 0.13746,0.0296 0.30546,-0.0742 0.1952,-0.12064 0.23339,-0.0722 0.1058,0.13428 -0.10982,0.17769 -0.26649,0.25625 -0.34816,0.17458 -0.25362,-0.25363 -1.42243,1.69109 -1.22379,2.0362 0.10323,0.17932 -0.1062,0.059 -0.46538,-0.26742 -0.52906,-0.48078 -0.72312,-0.53102 -1.02209,-0.26458 -0.30619,0.27287 -0.31758,0.25992 -0.0669,-0.0761 0.23553,-0.31564 0.18327,-0.59273 -0.23698,-1.25646 -0.29653,-0.46833 -0.64955,-0.78327 -0.7845,-0.69987 -0.13494,0.0834 -0.21264,-0.006 -0.17265,-0.19876 0.0403,-0.19398 -0.10446,-0.31102 -0.32418,-0.2622 -0.21828,0.0485 -0.31176,0.003 -0.20774,-0.10093 0.28592,-0.28593 -0.30457,-1.21953 -0.64016,-1.01213 -0.16071,0.0993 -0.22055,0.0647 -0.13298,-0.077 0.29201,-0.47249 -5.7947,-8.91523 -6.23235,-8.64476 -0.15227,0.0941 -0.20305,0.0517 -0.11284,-0.0943 0.0902,-0.14596 -0.0469,-0.49178 -0.30468,-0.76848 -0.25778,-0.2767 -0.48987,-0.59365 -0.51575,-0.70433 -0.17435,-0.74573 -2.41989,-3.67692 -2.68928,-3.51043 -0.1133,0.07 -0.43027,-0.13777 -0.70438,-0.46176 l -0.49838,-0.58907 0.59531,0.50403 c 0.94673,0.80155 0.70038,0.2825 -0.77561,-1.63419 -1.48426,-1.92744 -2.01552,-2.544 -1.66972,-1.93781 0.14321,0.25103 0.11148,0.30948 -0.0978,0.18015 -0.17038,-0.1053 -0.24041,-0.30369 -0.15563,-0.44087 0.0848,-0.13718 -0.0945,-0.57544 -0.39836,-0.97391 -2.15642,-2.82759 -3.87464,-4.97123 -4.04461,-5.04601 -0.11026,-0.0485 -0.20046,-0.20432 -0.20046,-0.34625 0,-0.14192 -0.33637,-0.69755 -0.74749,-1.23472 -1.85124,-2.41883 -3.92087,-5.19906 -4.3302,-5.81696 -0.84542,-1.27617 -3.19402,-3.75867 -3.55595,-3.75867 -0.19921,0 -0.3622,-0.10021 -0.3622,-0.2227 0,-0.33147 -1.898,-0.83788 -3.0734,-0.82001 -1.19618,0.0182 -3.44235,1.05704 -3.33618,1.543 0.04,0.18304 -0.0388,0.2639 -0.17503,0.17969 -0.33156,-0.20491 -2.45144,2.48047 -2.23481,2.83098 0.0935,0.15123 0.046,0.19835 -0.10555,0.10471 -0.34211,-0.21144 -0.96864,0.49987 -0.75078,0.85238 0.0877,0.14184 0.02,0.34404 -0.15039,0.44934 -0.20652,0.12764 -0.23843,0.076 -0.0957,-0.15489 0.1459,-0.23607 0.11105,-0.28268 -0.10945,-0.14641 -0.17792,0.10996 -0.26105,0.36267 -0.18473,0.56158 0.0763,0.1989 0.007,0.44338 -0.15513,0.54328 -0.1882,0.11632 -0.22511,0.048 -0.10262,-0.18996 0.10522,-0.20439 -0.17613,0.0431 -0.62521,0.54998 -0.44907,0.50688 -0.75625,1.07861 -0.68261,1.27051 0.0736,0.19191 0.0297,0.28452 -0.0977,0.2058 -0.31018,-0.1917 -0.90868,0.55298 -0.70687,0.87952 0.0877,0.14184 0.02,0.34404 -0.15039,0.44934 -0.20652,0.12764 -0.23843,0.076 -0.0957,-0.15489 0.1459,-0.23607 0.11105,-0.28268 -0.10945,-0.14641 -0.17792,0.10996 -0.25721,0.37267 -0.1762,0.58379 0.081,0.21112 0.0423,0.31898 -0.086,0.23969 -0.1283,-0.0793 -0.92367,0.7182 -1.76751,1.7722 -0.84383,1.05399 -1.95789,2.44544 -2.47569,3.09209 -0.51779,0.64666 -0.76284,1.07405 -0.54456,0.94977 0.21828,-0.12428 0.30861,-0.12854 0.20073,-0.009 -0.10788,0.11908 -0.0483,0.40606 0.13229,0.63773 0.2906,0.37269 0.27509,0.37938 -0.13458,0.0581 -0.37801,-0.29645 -0.5381,-0.30081 -0.87194,-0.0238 -0.2249,0.18665 -0.34825,0.49746 -0.27411,0.69068 0.0741,0.19322 -0.01,0.32298 -0.18639,0.28834 -0.17666,-0.0346 -0.29144,0.0859 -0.25506,0.26776 0.0364,0.1819 -0.0387,0.30096 -0.16686,0.26458 -0.12815,-0.0364 -0.84805,0.70776 -1.59977,1.65365 -0.75172,0.94588 -1.54343,1.93371 -1.75935,2.19516 -0.21593,0.26145 -0.31107,0.60727 -0.21144,0.76848 0.10397,0.16824 0.0613,0.21904 -0.10019,0.11924 -0.36117,-0.22322 -1.71304,1.36761 -1.48109,1.7429 0.0968,0.15661 0.0516,0.20685 -0.10109,0.11247 -0.15181,-0.0938 -0.59299,0.24496 -0.98039,0.75287 -0.3874,0.5079 -0.62558,0.92346 -0.52929,0.92346 0.0963,0 -0.0581,0.20836 -0.34312,0.46302 -0.63465,0.56707 -4.56752,5.5193 -4.56752,5.75137 0,0.0918 0.13746,0.0819 0.30547,-0.022 0.19077,-0.1179 0.23358,-0.0725 0.11401,0.12099 -0.1053,0.17038 -0.29167,0.24785 -0.41416,0.17215 -0.12248,-0.0757 -0.85186,0.66649 -1.62083,1.64933 -0.76896,0.98283 -1.99998,2.54593 -2.73558,3.47356 -0.7356,0.92762 -1.30473,1.79968 -1.26475,1.93789 0.04,0.13822 -0.0441,0.17913 -0.18681,0.0909 -0.14274,-0.0882 -0.45672,0.1406 -0.69776,0.50846 l -0.43824,0.66884 -0.7549,-0.99114 c -0.4152,-0.54513 -0.93959,-1.22927 -1.16533,-1.52031 -0.22573,-0.29104 -1.1975,-1.60073 -2.15947,-2.91041 -0.96198,-1.30969 -1.86179,-2.34854 -1.9996,-2.30855 -0.1378,0.04 -0.17514,-0.0493 -0.083,-0.19844 0.329,-0.53235 -0.16948,-0.84383 -0.56511,-0.35312 -0.35381,0.43884 -0.36121,0.42769 -0.0885,-0.13337 0.32917,-0.67732 -0.0923,-1.51219 -0.6038,-1.19606 -0.15151,0.0936 -0.20644,0.0585 -0.12205,-0.078 0.20439,-0.3307 -1.50181,-3.07767 -1.75459,-2.82489 -0.10842,0.10842 -0.11857,-0.008 -0.0225,-0.25783 0.10029,-0.26136 0.0499,-0.45495 -0.11831,-0.45495 -0.1611,0 -0.26386,-0.0893 -0.22838,-0.19843 0.15055,-0.46303 -1.71765,-3.26694 -2.63283,-3.95152 -1.1043,-0.82604 -4.18544,-3.84424 -4.13663,-4.05213 0.13589,-0.5788 -4.70678,-3.60406 -5.2593,-3.28553 -0.18638,0.10746 -0.25117,0.0985 -0.14397,-0.0199 0.25051,-0.27669 -3.79062,-2.79185 -4.15446,-2.58569 -0.15058,0.0853 -0.18512,0.0573 -0.0768,-0.0623 0.20314,-0.22413 -1.40651,-1.45492 -1.90279,-1.45492 -0.15324,0 -0.27862,-0.11906 -0.27862,-0.26459 0,-0.14552 -0.17859,-0.26458 -0.39687,-0.26458 -0.21828,0 -0.39688,-0.0908 -0.39688,-0.20184 0,-0.23265 -0.16948,-0.33096 -3.19883,-1.85539 -2.83143,-1.42483 -5.168,-1.76178 -8.48159,-1.22308 -1.21561,0.19762 -2.247,0.3617 -2.29196,0.36461 -0.045,0.003 0.003,0.14274 0.10702,0.31075 0.11867,0.19201 0.0724,0.23353 -0.12458,0.11179 -0.73652,-0.4552 -4.53285,2.64158 -4.09896,3.34363 0.10165,0.16447 0.0579,0.21479 -0.10121,0.11645 -0.33492,-0.207 -2.00892,2.64102 -1.7749,3.01968 0.0883,0.14291 0.003,0.22713 -0.1898,0.18714 -0.19379,-0.0402 -0.33418,0.13297 -0.31412,0.38748 0.0199,0.25309 -0.0694,0.39489 -0.19844,0.31511 -0.12909,-0.0798 -0.23471,-0.014 -0.23471,0.1462 0,0.1602 -0.24105,0.55 -0.53566,0.86622 -0.29461,0.31623 -0.47456,0.73416 -0.3999,0.92872 0.0747,0.19457 0.024,0.28471 -0.11253,0.20032 -0.30012,-0.18548 -0.88993,0.83119 -0.67962,1.17148 0.0819,0.13246 0.009,0.32699 -0.16094,0.43229 -0.21003,0.1298 -0.24035,0.0718 -0.0942,-0.18016 0.11858,-0.20438 0.12982,-0.29501 0.025,-0.20138 -0.55717,0.49762 -2.51484,4.02218 -2.36696,4.26145 0.0996,0.1611 0.0478,0.20278 -0.12169,0.098 -0.34663,-0.21423 -1.9559,2.44752 -1.7152,2.83698 0.0869,0.14067 0.0206,0.17078 -0.14743,0.0669 -0.168,-0.10383 -0.30546,-0.0898 -0.30546,0.0313 0,0.12105 -0.41703,0.85331 -0.92674,1.62726 -0.5097,0.77395 -0.84849,1.53377 -0.75286,1.68849 0.10239,0.16568 0.0483,0.20372 -0.1316,0.0925 -0.40697,-0.25151 -0.39021,0.17074 0.0253,0.63667 0.27982,0.31378 0.26182,0.31891 -0.1169,0.0333 -0.39107,-0.29494 -0.51501,-0.20552 -0.98085,0.7076 -0.29327,0.57486 -0.47879,1.11947 -0.41226,1.21025 0.0665,0.0908 0.0383,0.1022 -0.0628,0.0254 -0.26926,-0.20465 -2.48068,3.33507 -2.2832,3.65461 0.0921,0.14905 0.0492,0.19791 -0.0953,0.10858 -0.14453,-0.0893 -0.52773,0.309 -0.85156,0.88516 -0.32382,0.57617 -0.49185,1.0494 -0.3734,1.05163 0.11845,0.002 0.0761,0.0927 -0.0941,0.20094 -0.17023,0.10829 -0.34882,0.37152 -0.39687,0.58496 -0.0481,0.21344 -0.22777,0.53981 -0.39937,0.72528 -0.91342,0.98719 -0.97267,2.92639 -0.9334,30.54672 0.0403,28.34972 0.0596,28.86503 1.23146,32.91682 0.78905,2.72821 2.56012,6.73437 2.88766,6.53193 0.13792,-0.0852 0.16557,-0.0171 0.0615,0.15133 -0.26432,0.42767 2.67371,4.88301 3.06186,4.64312 0.1928,-0.11916 0.22961,-0.0691 0.10154,0.13813 -0.24458,0.39574 0.87277,1.66481 1.25681,1.42747 0.14959,-0.0925 0.18578,-0.0336 0.0823,0.13384 -0.36742,0.59449 4.33649,4.93205 5.15502,4.75355 0.1913,-0.0417 0.35324,0.0731 0.35985,0.25522 0.0137,0.37812 2.77887,2.14183 4.44897,2.83774 0.61562,0.25653 1.35743,0.56912 1.64848,0.69467 1.16876,0.50415 4.89124,1.56507 7.01145,1.99829 2.09748,0.42856 6.83796,0.46259 70.37917,0.50524 37.47161,0.0252 69.20271,-0.044 70.51355,-0.1536 z M 49.27392,226.59672 c 0.0899,-0.14552 0.30532,-0.26276 0.47863,-0.26053 0.18934,0.002 0.15671,0.10642 -0.0818,0.26053 -0.50829,0.32849 -0.59989,0.32849 -0.39687,0 z m -1.22346,-1.92264 c 0.26131,-0.25936 0.2917,-0.22897 0.14811,0.14812 -0.0993,0.26093 -0.2473,0.40778 -0.32876,0.32631 -0.0815,-0.0815 -1.7e-4,-0.29495 0.18065,-0.47443 z m 30.04682,-0.22029 c -0.0539,-0.0872 0.22535,-0.3241 0.62056,-0.52641 0.39522,-0.20232 1.25436,-0.67299 1.9092,-1.04594 0.65484,-0.37295 1.99112,-1.01578 2.9695,-1.42851 0.97838,-0.41273 1.7238,-0.83953 1.65649,-0.94844 -0.0673,-0.10891 0.0252,-0.19271 0.2055,-0.18621 0.84904,0.0306 1.27096,-0.0945 1.12351,-0.33311 -0.096,-0.15536 0.0227,-0.19082 0.29237,-0.0873 0.30597,0.11741 0.39225,0.0743 0.26458,-0.13229 -0.12044,-0.19487 -0.0512,-0.25346 0.19017,-0.16085 0.20879,0.0801 1.07817,-0.14194 1.93198,-0.49347 0.8538,-0.35153 2.83007,-1.08824 4.39171,-1.63713 1.56165,-0.54889 2.77586,-1.10073 2.69824,-1.22632 -0.0776,-0.12558 0.0234,-0.16518 0.22457,-0.088 0.20113,0.0772 1.30864,-0.16079 2.46114,-0.52882 1.1525,-0.36803 2.31084,-0.67067 2.57408,-0.67253 0.26325,-0.002 0.42411,-0.0927 0.35747,-0.20181 -0.0667,-0.10914 0.3111,-0.22166 0.83943,-0.25005 0.52834,-0.0284 1.00025,-0.17052 1.0487,-0.31586 0.0484,-0.14534 0.23376,-0.20836 0.41181,-0.14003 0.17806,0.0683 2.16466,-0.28535 4.41468,-0.78594 12.90468,-2.87105 28.56072,-3.72255 39.54511,-2.15075 1.45521,0.20823 4.07458,0.56735 5.82083,0.79806 1.74625,0.2307 4.18703,0.60929 5.42396,0.8413 1.23693,0.23202 2.48708,0.46296 2.77813,0.51321 1.23993,0.2141 6.32412,1.52593 9.64395,2.48835 5.58549,1.61924 13.36659,4.54944 17.87271,6.73049 1.60073,0.77479 3.14854,1.51078 3.43958,1.63553 0.33303,0.14276 -1.33416,0.28473 -4.49791,0.38304 -6.56333,0.20394 -110.48412,0.15679 -110.61205,-0.0502 z M 45.13913,222.9587 c -0.32129,-0.40967 -0.3146,-0.42518 0.0581,-0.13459 0.23167,0.18064 0.51865,0.24017 0.63773,0.1323 0.11908,-0.10788 0.13087,-0.0473 0.0262,0.13458 -0.246,0.42749 -0.28921,0.41957 -0.72201,-0.13229 z m 13.5275,-0.13229 c 0,-0.10914 -0.11875,-0.19844 -0.26388,-0.19844 -0.57034,0 -3.80868,-1.69481 -4.65031,-2.43377 -0.51327,-0.45066 -1.0237,-0.70012 -1.20423,-0.58854 -0.18772,0.11602 -0.24343,0.0805 -0.13896,-0.0885 0.0959,-0.15519 -0.5703,-0.97199 -1.48047,-1.81511 -0.91017,-0.84312 -1.41674,-1.36167 -1.1257,-1.15234 0.52243,0.37576 0.52282,0.37316 0.0308,-0.2039 -0.27411,-0.32148 -0.61993,-0.5094 -0.76849,-0.41758 -0.16106,0.0995 -0.18852,0.0349 -0.068,-0.16003 0.12033,-0.19471 -0.0555,-0.61258 -0.43477,-1.03307 -0.35027,-0.38836 -0.79794,-1.02946 -0.99482,-1.42468 -0.19689,-0.39522 -0.4775,-0.64471 -0.62357,-0.55443 -0.14741,0.0911 -0.18408,0.0323 -0.0824,-0.13225 0.10075,-0.16301 -0.0741,-0.80076 -0.38862,-1.41721 -1.01708,-1.99366 -1.58986,-3.99906 -1.93325,-6.76868 -0.28525,-2.30062 -0.28044,-2.71198 0.0317,-2.71198 0.20236,0 0.29518,-0.1177 0.20627,-0.26155 -0.096,-0.15536 0.0227,-0.19082 0.29238,-0.0873 0.33241,0.12756 0.39601,0.0804 0.23744,-0.1762 -0.13351,-0.21603 -0.11354,-0.28675 0.0521,-0.18439 0.14776,0.0913 1.08889,-0.24998 2.0914,-0.75845 1.00251,-0.50847 2.80457,-1.23353 4.00459,-1.61125 2.21234,-0.69636 2.24944,-0.69804 6.32569,-0.28577 0.31353,0.0317 0.5234,0.13313 0.46639,0.22538 -0.057,0.0923 0.27075,0.32282 0.72838,0.51237 0.45762,0.18956 1.71368,0.92019 2.79125,1.62363 1.07756,0.70345 2.08925,1.19862 2.24818,1.1004 0.15894,-0.0982 0.21598,-0.0605 0.12676,0.0839 -0.28579,0.46243 5.89442,2.9287 6.46122,2.5784 0.1286,-0.0795 0.23382,-0.0339 0.23382,0.10127 0,0.38344 3.08517,0.89771 5.42396,0.90413 2.99222,0.008 5.88037,-0.49295 9.11388,-1.58148 1.5358,-0.51701 2.8519,-1.01134 2.92466,-1.09851 0.0728,-0.0872 0.31088,-0.19403 0.52916,-0.23748 1.10517,-0.22 2.6157,-0.94634 2.46733,-1.18641 -0.0974,-0.15753 -0.0377,-0.19114 0.14204,-0.08 0.17043,0.10533 1.52828,-0.28089 3.01744,-0.85827 1.48916,-0.57738 4.07679,-1.50248 5.75028,-2.05578 1.67349,-0.5533 3.08264,-1.10193 3.13145,-1.21917 0.0488,-0.11724 0.18334,-0.1547 0.29895,-0.0832 0.11562,0.0715 1.4449,-0.22796 2.95397,-0.66536 1.50906,-0.43741 3.04141,-0.85793 3.40521,-0.9345 0.3638,-0.0766 1.07818,-0.24811 1.5875,-0.3812 6.46403,-1.68905 19.54014,-3.11869 25.53229,-2.79148 11.7433,0.64124 19.57591,2.12391 28.83958,5.45915 3.36967,1.2132 4.47032,1.5364 4.7291,1.38869 0.16389,-0.0935 0.20686,-0.0698 0.0955,0.0528 -0.21694,0.23876 8.72181,3.50962 13.96084,5.10853 3.09791,0.94547 3.27779,0.96879 7.40834,0.96082 3.30564,-0.006 4.56746,-0.11194 5.75808,-0.48171 0.94143,-0.29238 1.45721,-0.58284 1.34818,-0.75924 -0.10552,-0.17075 -0.0527,-0.20915 0.13126,-0.0954 0.43269,0.26741 1.4064,-0.0863 1.1921,-0.433 -0.10563,-0.17092 -0.0535,-0.2101 0.12922,-0.0972 0.33943,0.20978 3.00164,-1.13367 2.82211,-1.42414 -0.0621,-0.10047 0.0441,-0.18267 0.23591,-0.18267 0.5551,0 2.29225,-1.16714 2.12937,-1.43067 -0.0812,-0.13143 0.0566,-0.16056 0.30634,-0.0647 0.33242,0.12757 0.39602,0.0804 0.23745,-0.1762 -0.13381,-0.2165 -0.11356,-0.28676 0.053,-0.18382 0.14826,0.0916 0.88467,-0.13014 1.63646,-0.49282 3.79012,-1.82841 6.92611,-1.38052 13.76065,1.96532 1.2229,0.59867 2.39968,1.08849 2.61506,1.08849 0.32754,0 0.3711,0.422 0.26625,2.57969 -0.10779,2.21818 -0.26462,2.91338 -1.11912,4.96093 -0.54657,1.30969 -1.00784,2.58394 -1.02505,2.83168 -0.0172,0.24773 -0.0849,0.39683 -0.15037,0.33133 -0.18155,-0.18154 -1.32892,1.82455 -1.1807,2.06437 0.0713,0.11533 0.0288,0.17698 -0.0945,0.13699 -0.28915,-0.0938 -2.22794,2.04246 -2.05945,2.26921 0.0701,0.0944 0.0465,0.11043 -0.0526,0.0356 -0.2761,-0.2085 -1.67568,1.23888 -1.48941,1.54028 0.0956,0.15461 0.0296,0.18205 -0.15837,0.0659 -0.39409,-0.24356 -1.40184,0.60851 -1.16771,0.98732 0.0941,0.15231 0.037,0.18979 -0.13106,0.0859 -0.39257,-0.24262 -1.68076,0.60945 -1.46041,0.96598 0.0956,0.15475 0.0444,0.19833 -0.11639,0.099 -0.33713,-0.20835 -2.20857,0.62235 -2.03494,0.90328 0.065,0.10511 -0.0294,0.17999 -0.20977,0.16641 -0.18034,-0.0136 -0.75062,0.0682 -1.2673,0.18171 -0.81693,0.17949 -1.12662,0.0831 -2.37522,-0.73918 -0.78969,-0.52007 -1.58734,-0.94559 -1.77256,-0.94559 -0.18522,0 -0.33676,-0.1318 -0.33676,-0.29289 0,-0.16109 -0.18478,-0.22198 -0.41062,-0.13532 -0.26828,0.10295 -0.34495,0.0513 -0.22118,-0.14895 0.12766,-0.20656 0.0414,-0.2497 -0.26458,-0.13229 -0.24972,0.0958 -0.38849,0.0682 -0.30839,-0.0614 0.19636,-0.3177 -1.67101,-1.39843 -2.03143,-1.17567 -0.16265,0.10052 -0.20911,0.0532 -0.10814,-0.11019 0.0993,-0.16069 -0.086,-0.36988 -0.42214,-0.47657 -0.32953,-0.10459 -0.59915,-0.14838 -0.59915,-0.0973 0,0.0511 -0.27175,-0.13981 -0.60389,-0.42419 -0.33214,-0.28439 -0.68933,-0.52129 -0.79375,-0.52645 -0.10442,-0.005 -0.48752,-0.17464 -0.85132,-0.37664 -1.26026,-0.69973 -4.92798,-2.52584 -5.70335,-2.83963 -0.42842,-0.17337 -1.91003,-0.81254 -3.29248,-1.42038 -3.81908,-1.67917 -7.96419,-3.17392 -8.27277,-2.9832 -0.15161,0.0937 -0.20215,0.0514 -0.11232,-0.0939 0.20355,-0.32935 -6.05488,-2.29925 -6.47664,-2.03859 -0.1668,0.10309 -0.22931,0.0698 -0.14005,-0.0747 0.2161,-0.34965 -9.68418,-3.01764 -14.89614,-4.0143 -7.73471,-1.47908 -12.13258,-1.99652 -20.79468,-2.44665 -6.63056,-0.34456 -15.09262,-0.0223 -21.14938,0.80543 -5.81731,0.79501 -11.89019,1.8862 -11.98739,2.15393 -0.0488,0.13444 -0.19326,0.17984 -0.321,0.10089 -0.21551,-0.13319 -4.38566,0.75078 -5.2788,1.11897 -0.21828,0.09 -0.46587,0.15148 -0.5502,0.13665 -0.49012,-0.0862 -6.8438,1.98931 -6.67082,2.17911 0.11526,0.12646 0.0632,0.1458 -0.11572,0.043 -0.3918,-0.22519 -2.4879,0.36052 -2.31152,0.6459 0.0682,0.11035 -0.14406,0.14187 -0.47168,0.0701 -0.49643,-0.10882 -0.52956,-0.0785 -0.19881,0.18192 0.3414,0.26882 0.33228,0.29172 -0.0653,0.16387 -0.43438,-0.13969 -5.26235,1.39069 -6.41698,2.03406 -0.29104,0.16217 -0.5887,0.30736 -0.66146,0.32263 -1.19966,0.25189 -2.3631,0.73234 -2.2432,0.92634 0.0873,0.14129 -0.0426,0.17376 -0.3,0.075 -0.31934,-0.12254 -0.39402,-0.0771 -0.25177,0.15302 0.12522,0.20261 0.0662,0.30856 -0.15504,0.27819 -0.76254,-0.10467 -1.30731,0.0254 -1.1529,0.27521 0.096,0.15536 -0.0227,0.19082 -0.29237,0.0873 -0.33242,-0.12756 -0.39602,-0.0804 -0.23745,0.1762 0.13942,0.22559 0.11397,0.28701 -0.0714,0.17242 -0.35831,-0.22145 -2.48485,0.60268 -2.3052,0.89336 0.072,0.11653 -0.0896,0.1542 -0.35915,0.0837 -0.26955,-0.0705 -0.67226,0.054 -0.89491,0.27666 -0.22265,0.22265 -0.45857,0.35107 -0.52426,0.28538 -0.0657,-0.0657 -0.67276,0.16068 -1.34903,0.50305 -0.67627,0.34237 -1.16456,0.68752 -1.08508,0.767 0.0795,0.0795 -7.9e-4,0.23436 -0.17856,0.34418 -0.20644,0.12759 -0.25491,0.0894 -0.13428,-0.1058 0.30133,-0.48755 -0.0297,-0.37247 -2.24746,0.78133 -1.20409,0.62643 -2.01643,1.20413 -1.91775,1.3638 0.10029,0.16227 0.0436,0.19817 -0.13676,0.0867 -0.2557,-0.15803 -4.10663,1.71487 -4.5363,2.20624 -0.0728,0.0832 -0.9322,0.5557 -1.90986,1.04999 -0.97766,0.49429 -1.73317,0.97054 -1.67891,1.05833 0.0543,0.0878 -0.24716,0.15963 -0.66983,0.15963 -0.42267,0 -0.76848,-0.0893 -0.76848,-0.19844 z m -10.31875,-5.91546 c 0,-0.21898 0.51375,-0.34281 0.63153,-0.15222 0.0764,0.12364 -0.0344,0.2248 -0.2463,0.2248 -0.21188,0 -0.38523,-0.0327 -0.38523,-0.0726 z m 40.34895,-15.18506 c 0.0899,-0.14552 0.30533,-0.26276 0.47864,-0.26053 0.18934,0.002 0.1567,0.10642 -0.0818,0.26053 -0.5083,0.32849 -0.59989,0.32849 -0.39688,0 z m -16.91279,-5.69814 c -0.62144,-0.32407 -0.82109,-0.33673 -1.01715,-0.0645 -0.17766,0.24668 -0.20575,0.21885 -0.10339,-0.10242 0.14688,-0.46099 -0.47692,-0.86903 -0.91481,-0.5984 -0.13599,0.0841 -0.21454,0.005 -0.17456,-0.17595 0.04,-0.18082 -0.21532,-0.47858 -0.56736,-0.66169 -0.35203,-0.18311 -0.73963,-0.51084 -0.86133,-0.7283 -0.34192,-0.61099 -3.41412,-2.57234 -3.72666,-2.37917 -0.15272,0.0944 -0.20561,0.055 -0.11754,-0.0875 0.24284,-0.39293 -1.93633,-1.34468 -4.75656,-2.07744 -3.93,-1.0211 -5.9391,-0.92164 -10.261,0.50795 -1.93479,0.63998 -3.82981,1.36805 -4.21117,1.61793 -0.38136,0.24988 -0.70077,0.35133 -0.70979,0.22546 -0.009,-0.12588 -0.004,-1.4195 0.0109,-2.8747 0.0203,-1.97028 0.12477,-2.72007 0.40917,-2.93658 0.21004,-0.15991 0.29446,-0.38736 0.18758,-0.50544 -0.10688,-0.11809 -0.0651,-0.14119 0.0928,-0.0513 0.1579,0.0898 1.19836,-0.1905 2.31213,-0.62298 3.73763,-1.45132 7.76286,-2.18235 12.08516,-2.1948 4.77228,-0.0138 6.5473,0.40586 12.13288,2.86818 3.21688,1.4181 4.38187,1.70336 8.12276,1.98889 3.17397,0.24227 4.6152,0.16826 4.6152,-0.23698 0,-0.0982 0.23033,-0.4722 0.51185,-0.83121 0.28152,-0.35901 1.08329,-1.42665 1.78171,-2.37254 0.69843,-0.94588 2.64327,-3.38666 4.32188,-5.42395 1.6786,-2.0373 3.5128,-4.38415 4.076,-5.21523 0.5632,-0.83108 1.21878,-1.72405 1.45684,-1.98437 0.23806,-0.26033 1.02369,-1.24723 1.74585,-2.19311 0.72215,-0.94589 1.45539,-1.89839 1.62941,-2.11667 0.17402,-0.21828 1.23405,-1.64057 2.35561,-3.16063 1.12157,-1.52007 2.32008,-3.06666 2.66336,-3.43688 0.34328,-0.37022 0.62415,-0.74512 0.62415,-0.83311 0,-0.088 0.30605,-0.50593 0.68011,-0.92875 0.37405,-0.42281 1.17193,-1.48313 1.77307,-2.35625 0.60113,-0.87313 1.21782,-1.74046 1.37041,-1.92741 0.1526,-0.18695 0.39705,-0.48461 0.54323,-0.66146 0.71139,-0.86068 2.68144,-3.27003 2.96386,-3.62476 0.25168,-0.31611 2.04129,-2.67858 3.71307,-4.90163 0.5737,-0.76287 2.24628,-2.76991 3.08461,-3.70141 0.52387,-0.58208 0.95257,-1.15261 0.95269,-1.26783 1.1e-4,-0.11523 0.25017,-0.47241 0.55569,-0.79375 0.30551,-0.32134 1.04072,-1.29863 1.63379,-2.17175 0.59306,-0.87313 1.1525,-1.64703 1.24319,-1.71979 0.0907,-0.0728 0.43157,-0.5142 0.7575,-0.98097 0.57046,-0.81699 0.78909,-1.09035 2.57128,-3.215 0.44447,-0.52987 1.27398,-1.61825 1.84335,-2.41862 1.35773,-1.90853 1.54339,-2.01188 1.76721,-0.98373 0.10194,0.46829 0.17673,13.08244 0.16619,28.03144 l -0.0191,27.17999 -0.82766,0.13736 c -0.45521,0.0755 -2.40523,0.22826 -4.33338,0.33937 l -3.50573,0.20201 v -6.93499 c 0,-7.94469 -0.16834,-9.15415 -1.45905,-10.48315 -1.83159,-1.88594 -5.82654,-1.46888 -7.09827,0.74103 -0.20769,0.36091 -0.34879,3.41963 -0.43852,9.50598 l -0.13229,8.97386 -0.79375,0.0988 c -4.04255,0.50314 -10.67078,2.18256 -15.42444,3.90815 -1.83241,0.66517 -2.56893,0.83236 -3.9719,0.90164 -0.38996,0.0193 -0.54264,0.14065 -0.42214,0.33563 0.11125,0.18001 0.0731,0.23399 -0.0928,0.13143 -0.40188,-0.24837 -1.15381,0.0931 -0.94588,0.42954 0.1096,0.17733 0.009,0.21852 -0.27077,0.11108 -0.24473,-0.0939 -0.82981,1.7e-4 -1.30018,0.20907 -1.80987,0.80377 -7.8643,3.04318 -10.6448,3.93729 -3.31525,1.06606 -6.26254,1.27984 -7.65238,0.55507 z m 21.80758,-6.29233 c 0,-0.32341 -3.53529,-2.32487 -4.30531,-2.4374 -0.73628,-0.10759 -0.76284,-0.0938 -0.1926,0.10017 0.72434,0.24636 2.29409,1.07777 3.63802,1.92688 0.47294,0.2988 0.85989,0.48346 0.85989,0.41035 z m 91.12576,4.78072 c -3.02484,-1.03634 -4.38259,-1.38777 -4.6922,-1.2145 -0.32104,0.17966 -0.39984,0.15043 -0.29949,-0.11108 0.16616,-0.43301 -11.04902,-4.58901 -11.54931,-4.27982 -0.18967,0.11723 -0.24973,0.0855 -0.14841,-0.0785 0.0936,-0.15146 -0.0368,-0.33592 -0.28985,-0.40991 -0.25302,-0.074 -2.18645,-0.68176 -4.2965,-1.35059 -2.11005,-0.66884 -4.09438,-1.21715 -4.40961,-1.21847 l -0.57315,-0.002 -0.0975,-8.53281 c -0.10051,-8.7986 -0.1603,-9.30609 -1.2494,-10.60518 -1.37409,-1.63903 -5.21486,-1.62736 -6.70603,0.0204 -0.87162,0.96313 -0.97387,1.93416 -0.99539,9.45348 -0.0118,4.14404 -0.10519,7.5863 -0.2074,7.64947 -0.10221,0.0632 -1.99948,-0.0817 -4.21616,-0.32198 l -4.03032,-0.43683 -0.0685,-28.57732 c -0.0377,-15.71752 -0.03,-28.84833 0.017,-29.17958 0.0844,-0.59447 0.48154,-0.15362 3.64153,4.04185 0.2192,0.29104 0.31511,0.36194 0.21313,0.15756 -0.11801,-0.2365 -0.0786,-0.30557 0.10848,-0.18996 0.16165,0.0999 0.21935,0.37595 0.12821,0.61345 -0.11234,0.29276 -0.0639,0.36889 0.15041,0.23644 0.17385,-0.10745 0.29905,-0.0972 0.27821,0.0227 -0.0783,0.45088 0.0521,0.76607 0.58279,1.40873 0.30043,0.3638 0.45798,0.49423 0.35011,0.28985 -0.13047,-0.24721 -0.0924,-0.30752 0.11364,-0.18016 0.17038,0.1053 0.23939,0.30536 0.15334,0.44459 -0.086,0.13922 0.88421,1.67704 2.15612,3.41737 1.99247,2.72627 2.37059,3.11901 2.73181,2.83744 0.3597,-0.28037 0.37334,-0.26786 0.0961,0.0881 -0.25835,0.33167 -0.24145,0.53162 0.0842,0.99662 0.2241,0.31994 0.51014,0.51824 0.63564,0.44067 0.12551,-0.0776 0.31436,-0.002 0.41966,0.16875 0.11957,0.19347 0.0768,0.2389 -0.11401,0.12099 -0.53606,-0.3313 -0.33161,0.13281 0.64396,1.4618 0.52367,0.71338 1.07592,1.2152 1.23151,1.11905 0.16451,-0.10168 0.20485,-0.0494 0.0968,0.12546 -0.21114,0.34163 0.87375,1.9444 1.18565,1.75164 0.11232,-0.0694 0.29038,0.0132 0.39568,0.18356 0.11957,0.19347 0.0768,0.2389 -0.11401,0.12099 -0.168,-0.10383 -0.30546,-0.12256 -0.30546,-0.0416 0,0.28882 2.44976,3.45495 2.63419,3.40449 0.10342,-0.0283 0.18803,0.1 0.18803,0.28511 0,0.59021 1.69342,2.82932 1.99761,2.64132 0.17548,-0.10845 0.21317,-0.0559 0.0959,0.13378 -0.17282,0.27961 2.32209,4.00267 2.6823,4.00267 0.0768,0 -0.0238,-0.20836 -0.22348,-0.46302 -0.32861,-0.419 -0.31939,-0.42873 0.097,-0.10231 0.25306,0.19839 0.39694,0.46291 0.31973,0.58783 -0.18782,0.30391 0.67412,1.597 0.95061,1.42612 0.11955,-0.0739 0.30352,0.005 0.40882,0.17544 0.12647,0.20464 0.0761,0.23851 -0.14834,0.0998 -0.2265,-0.13998 -0.29894,-0.0874 -0.21727,0.15756 0.0674,0.20216 0.25151,0.36756 0.40915,0.36756 0.15765,0 0.38585,0.10838 0.50712,0.24086 0.1281,0.13993 0.0819,0.1611 -0.11024,0.0505 -0.63839,-0.36738 -0.31282,0.18909 1.74312,2.9794 1.14062,1.54804 2.5267,3.49923 3.08017,4.33598 0.55347,0.83674 1.10852,1.52135 1.23344,1.52135 0.12492,0 0.22712,0.1201 0.22712,0.26688 0,0.37127 1.5758,2.51125 1.8492,2.51125 0.12285,0 0.32259,0.10838 0.44386,0.24085 0.13017,0.14221 0.071,0.15421 -0.14457,0.0293 -0.25117,-0.14555 -0.32339,-0.0969 -0.23151,0.15602 0.0735,0.20216 0.27634,0.33484 0.45087,0.29485 0.17452,-0.04 0.2511,0.0344 0.17017,0.16539 -0.0809,0.13095 0.22049,0.74559 0.66983,1.36588 0.55287,0.76321 0.88153,1.02332 1.0167,0.80462 0.14676,-0.23748 0.24377,-0.20841 0.36581,0.10962 0.0971,0.25296 0.0574,0.36563 -0.0955,0.27116 -0.41964,-0.25935 -0.30383,0.12539 0.28785,0.95633 0.30216,0.42435 0.67775,0.69223 0.83463,0.59527 0.16509,-0.10204 0.20901,-0.053 0.10427,0.11652 -0.14156,0.22903 3.88889,6.0948 4.58175,6.66812 0.34757,0.2876 1.01181,1.51755 1.46174,2.70664 0.26043,0.68829 0.57596,1.18812 0.70117,1.11074 0.1252,-0.0774 0.16596,0.02 0.0906,0.21648 -0.19025,0.49576 0.87854,1.43266 2.13502,1.87157 1.50809,0.5268 4.55537,0.54476 6.51756,0.0384 0.92235,-0.23801 3.18502,-1.13696 5.02817,-1.99767 1.84314,-0.8607 3.48728,-1.56492 3.65364,-1.56492 0.16635,0 0.24727,-0.0893 0.17982,-0.19843 -0.0675,-0.10914 0.1934,-0.20905 0.57969,-0.22202 0.38629,-0.013 1.59531,-0.24322 2.68672,-0.51167 1.45122,-0.35695 2.97958,-0.48788 5.68854,-0.48731 3.99994,7.9e-4 5.64329,0.31328 10.30862,1.95994 1.25172,0.4418 2.40954,0.72065 2.57293,0.61967 0.1657,-0.1024 0.22416,-0.0656 0.13221,0.0832 -0.0907,0.14673 0.1227,0.39781 0.47419,0.55796 0.62552,0.285 0.64077,0.36998 0.71931,4.00786 0.0441,2.04418 -0.0167,3.7165 -0.13516,3.71626 -0.11846,-2.3e-4 -0.84677,-0.28923 -1.61847,-0.64221 -0.77169,-0.35298 -1.62726,-0.6804 -1.90127,-0.7276 -0.27401,-0.0472 -0.65553,-0.23465 -0.84783,-0.41655 -0.19229,-0.1819 -0.51971,-0.33073 -0.7276,-0.33073 -0.20789,0 -0.37798,-0.1318 -0.37798,-0.29289 0,-0.16109 -0.18477,-0.22199 -0.41061,-0.13532 -0.22584,0.0867 -0.34864,0.0573 -0.2729,-0.0653 0.21381,-0.34596 -3.2133,-1.59007 -5.21727,-1.89398 -2.09139,-0.31717 -3.88889,-0.15508 -6.19965,0.55905 -2.57617,0.79615 -4.56831,1.58254 -4.56831,1.80332 0,0.11081 -0.14883,0.20416 -0.33073,0.20744 -0.1819,0.003 -0.77722,0.273 -1.32292,0.59939 -0.9132,0.5462 -1.11895,0.83364 -1.01696,1.42074 0.0208,0.11995 -0.0861,0.14149 -0.23757,0.0479 -0.1515,-0.0936 -0.20088,-0.29091 -0.10973,-0.4384 0.0911,-0.14748 -0.20845,-0.0746 -0.66579,0.16185 -0.45734,0.23649 -0.76941,0.53049 -0.69349,0.65333 0.0759,0.12283 -0.069,0.38565 -0.32208,0.58404 -0.41637,0.32642 -0.42559,0.31669 -0.097,-0.10231 0.49526,-0.63151 0.23142,-0.58121 -0.8692,0.16569 -0.50954,0.34578 -0.84226,0.72206 -0.73935,0.83616 0.1029,0.11411 0.0331,0.1186 -0.15523,0.01 -0.18828,-0.10862 -0.48593,-0.0842 -0.66145,0.0543 -0.76385,0.60276 -2.05239,0.83497 -4.1556,0.7489 -1.89206,-0.0774 -2.92445,-0.32346 -6.50549,-1.55035 z m -0.37368,-9.98817 c -0.15576,-0.29104 -0.22367,-0.52916 -0.15091,-0.52916 0.0728,0 0.25974,0.23812 0.4155,0.52916 0.15576,0.29105 0.22367,0.52917 0.15091,0.52917 -0.0728,0 -0.25974,-0.23812 -0.4155,-0.52917 z M 76.49446,175.80175 c -0.46204,0.36383 -0.47076,0.35766 -0.12192,-0.0863 0.33519,-0.42662 0.29566,-0.555 -0.3666,-1.19062 -0.40826,-0.39185 -0.64823,-0.54523 -0.53326,-0.34084 0.14149,0.25152 0.10806,0.3092 -0.10344,0.17849 -0.17187,-0.10622 -0.28467,-0.33298 -0.25069,-0.50391 0.0714,-0.35912 -1.63132,-2.82431 -1.95077,-2.82431 -0.11751,0 -0.18984,-0.0893 -0.16073,-0.19844 0.0662,-0.24836 -1.26649,-2.85767 -1.966,-3.84916 l -0.5223,-0.74031 1.33549,0.17716 c 0.73452,0.0974 1.76747,0.0961 2.29544,-0.003 0.85458,-0.16032 0.92152,-0.2292 0.60981,-0.62748 -0.31596,-0.40369 -0.30418,-0.41129 0.12062,-0.0778 0.41359,0.32467 0.55072,0.29446 1.12893,-0.24874 0.77613,-0.72914 1.33827,-2.39252 1.04005,-3.07752 -0.11562,-0.26559 -0.19119,-0.57259 -0.16792,-0.68224 0.0383,-0.18058 -2.6236,-5.42751 -6.37667,-12.56906 -0.78452,-1.49283 -1.52589,-2.62392 -1.64747,-2.51354 -0.12159,0.11039 -0.14095,0.0608 -0.043,-0.1102 0.20617,-0.35996 -0.32795,-1.67347 -0.68049,-1.67347 -0.13075,0 -0.18515,-0.0893 -0.12089,-0.19844 0.0643,-0.10914 0.0106,-0.47992 -0.11932,-0.82395 -0.20761,-0.54988 -0.29183,-0.58187 -0.69654,-0.26458 -0.41163,0.32271 -0.42387,0.31424 -0.11558,-0.08 0.29357,-0.37543 0.1846,-0.75954 -0.73355,-2.58563 -1.24798,-2.48211 -2.06025,-3.45408 -2.41655,-2.89165 -0.12611,0.19907 -0.23112,0.52536 -0.23335,0.72508 -0.003,0.30778 0.0665,0.30778 0.45897,0 0.419,-0.3286 0.42873,-0.31938 0.10231,0.097 -0.19839,0.25306 -0.44486,0.4081 -0.54773,0.34453 -0.17173,-0.10614 -6.28547,12.14112 -6.43452,12.88987 -0.036,0.18063 -0.1395,0.38794 -0.2301,0.4607 -0.32325,0.25961 -2.08704,3.96883 -1.88912,3.97281 0.11097,0.002 0.062,0.0929 -0.10879,0.20158 -0.28389,0.18057 -1.58639,2.80873 -2.52062,5.08603 -0.63135,1.539 0.28597,4.24058 1.30687,3.84882 0.19864,-0.0762 0.29679,-0.0344 0.21811,0.0929 -0.21872,0.35389 0.83876,0.54862 3.00085,0.55261 1.84407,0.003 1.93537,0.0308 1.55326,0.46663 -0.38501,0.43911 -1.22144,1.946 -1.32022,2.37848 -0.0253,0.11066 -0.26099,0.43201 -0.52381,0.71412 -0.53351,0.57266 -0.64415,1.07631 -0.17238,0.78474 0.19077,-0.11791 0.23358,-0.0725 0.11401,0.12099 -0.1053,0.17038 -0.32252,0.22877 -0.48272,0.12977 -0.187,-0.11558 -0.23122,-0.0236 -0.12353,0.25709 0.10342,0.26951 0.0446,0.41296 -0.15348,0.37413 -0.17666,-0.0346 -0.30488,0.14411 -0.28493,0.39721 0.0199,0.25309 -0.0569,0.4026 -0.17071,0.33224 -0.19163,-0.11843 -0.64287,0.60765 -0.58594,0.94279 0.0138,0.0812 -0.47023,0.17693 -1.07564,0.21265 -0.60541,0.0357 -1.16335,0.14785 -1.23986,0.24917 -0.0765,0.10132 -0.60104,0.21221 -1.1656,0.24643 -0.56456,0.0342 -1.17083,0.18201 -1.34726,0.32843 -0.17643,0.14643 -0.37842,0.20859 -0.44887,0.13814 -0.0704,-0.0704 -1.13106,0.16621 -2.35691,0.52591 -1.22585,0.3597 -2.40741,0.65656 -2.62569,0.6597 -0.34771,0.005 -0.38711,-1.34502 -0.31803,-10.89671 0.0508,-7.02999 0.1764,-11.01994 0.35351,-11.23334 0.15106,-0.18202 0.18648,-0.47362 0.0787,-0.648 -0.11931,-0.19305 -0.0839,-0.24782 0.0905,-0.14004 0.28964,0.179 0.75809,-0.7934 0.61947,-1.28588 -0.041,-0.14552 0.0139,-0.17617 0.12201,-0.0681 0.27569,0.27569 4.44067,-6.71359 4.19878,-7.04601 -0.0648,-0.0891 -0.0387,-0.10266 0.058,-0.0302 0.24796,0.18576 1.3995,-1.78946 1.21618,-2.08609 -0.0829,-0.13421 -0.0134,-0.15906 0.15465,-0.0552 0.16801,0.10383 0.30547,0.0562 0.30547,-0.10593 0,-0.16209 0.47546,-0.99487 1.05658,-1.85061 0.67819,-0.99867 1.0009,-1.72784 0.90109,-2.036 -0.10927,-0.33734 -0.0831,-0.3796 0.088,-0.14209 0.17667,0.24523 0.44228,-0.0272 0.96752,-0.99218 0.39819,-0.73162 0.62726,-1.33204 0.50904,-1.33427 -0.11822,-0.002 -0.0856,-0.0915 0.0724,-0.19844 0.57611,-0.38973 2.23381,-3.27594 2.05782,-3.58285 -0.0996,-0.17363 -0.0822,-0.22605 0.0385,-0.11648 0.29976,0.27195 1.53077,-1.84329 1.29487,-2.22498 -0.11575,-0.18729 -0.0722,-0.23309 0.11292,-0.11869 0.35794,0.22122 1.42865,-1.40102 1.24563,-1.88727 -0.0678,-0.18016 0.0159,-0.29922 0.18588,-0.26458 0.17005,0.0346 0.31468,-0.0561 0.32141,-0.20162 0.007,-0.14552 0.41901,-0.77059 0.9162,-1.38906 0.86086,-1.07084 0.97168,-1.12448 2.32341,-1.12448 0.78068,0 1.83523,0.17374 2.34345,0.38609 0.50821,0.21234 1.06994,0.35092 1.24827,0.30794 0.17834,-0.043 0.23905,-0.0296 0.13492,0.0298 -0.24203,0.13798 3.02617,2.87122 3.31785,2.77476 0.11995,-0.0397 0.14832,0.0408 0.063,0.17878 -0.33333,0.53935 5.80098,3.90828 6.3248,3.47355 0.22173,-0.18402 0.31733,-0.14857 0.31733,0.11768 0,0.20957 -0.12899,0.30726 -0.28664,0.2171 -0.15764,-0.0902 0.0332,0.1405 0.42414,0.51257 0.39092,0.37207 1.2644,1.77884 1.94106,3.12616 1.49618,2.97907 2.49503,4.52495 2.80139,4.33561 0.12609,-0.0779 0.16298,0.031 0.082,0.24216 -0.081,0.21111 -0.002,0.47382 0.17621,0.58379 0.22049,0.13627 0.25534,0.0897 0.10945,-0.14641 -0.1427,-0.2309 -0.1108,-0.28253 0.0957,-0.15489 0.17038,0.10529 0.24141,0.30208 0.15785,0.43729 -0.16832,0.27234 0.51038,1.37899 0.71825,1.17112 0.0718,-0.0718 0.13061,0.0271 0.13061,0.21993 0,0.45525 3.05484,4.9376 3.27316,4.80268 0.0915,-0.0566 0.16737,0.0407 0.16852,0.21623 0.001,0.1755 0.43709,0.99699 0.96873,1.82553 0.74414,1.15971 1.09037,1.4826 1.50427,1.40289 0.29963,-0.0577 0.46786,0.009 0.38,0.15153 -0.0867,0.14029 -0.26711,0.18741 -0.40091,0.10472 -0.1338,-0.0827 -0.17262,0.0337 -0.0863,0.25875 0.0863,0.225 0.28197,0.33185 0.43472,0.23744 0.16146,-0.0998 0.19928,-0.0447 0.0903,0.13159 -0.10308,0.16678 0.1603,0.81025 0.58528,1.42994 0.42498,0.61969 1.26681,1.93572 1.87073,2.92451 l 1.09805,1.79781 -0.68855,0.90273 c -0.39158,0.51338 -0.60408,1.03942 -0.4927,1.21964 0.11704,0.18937 0.0839,0.24769 -0.0824,0.14491 -0.3013,-0.18621 -3.90452,4.10828 -3.90452,4.6536 0,0.18228 -0.14654,0.33142 -0.32563,0.33142 -0.46236,0 -1.19721,1.13173 -0.97173,1.49655 0.10797,0.17471 0.073,0.2336 -0.082,0.13786 -0.32562,-0.20125 -4.34745,4.94138 -4.24721,5.43083 0.0386,0.1887 -0.0704,0.31604 -0.24235,0.28298 -0.17195,-0.0331 -0.76726,0.56101 -1.32292,1.32014 -0.55566,0.75914 -1.223,1.59421 -1.48296,1.8557 -0.25998,0.2615 -0.39041,0.60856 -0.28986,0.77126 0.10405,0.16835 0.0641,0.22245 -0.0926,0.12556 -0.38064,-0.23525 -0.95456,0.51657 -0.71513,0.9368 0.10727,0.18828 -0.2241,-0.13167 -0.73637,-0.71099 -0.8556,-0.96757 -0.97191,-1.02141 -1.42903,-0.66145 z m 114.45497,-0.78932 c -0.91288,-1.15896 -1.77899,-2.03353 -1.92468,-1.94349 -0.14569,0.09 -0.1862,0.0364 -0.09,-0.11925 0.18652,-0.30179 -1.38613,-2.55672 -2.27936,-3.26822 -0.29463,-0.2347 -0.46488,-0.5413 -0.37832,-0.68136 0.0866,-0.14005 -0.35364,-0.81122 -0.9782,-1.49151 -0.62457,-0.68028 -1.09749,-1.23687 -1.05094,-1.23687 0.10981,0 -3.75802,-5.37736 -5.70931,-7.9375 l -1.51244,-1.98438 0.74366,-1.02505 c 0.40901,-0.56378 0.68549,-1.11915 0.61441,-1.23417 -0.0711,-0.11502 -0.0239,-0.24906 0.10475,-0.29787 0.48741,-0.18484 2.41893,-4.13708 2.26028,-4.62491 -0.11692,-0.35953 -0.0919,-0.39636 0.0933,-0.13762 0.19104,0.26682 0.45781,0.0204 1.08986,-1.00683 0.46029,-0.74807 0.77107,-1.46663 0.69062,-1.59679 -0.0805,-0.13017 0.10443,-0.37083 0.41084,-0.53482 0.33197,-0.17766 0.49657,-0.45588 0.40731,-0.68847 -0.0824,-0.21468 -0.0515,-0.32957 0.0687,-0.25532 0.12015,0.0743 0.64723,-0.63642 1.17129,-1.57929 0.52406,-0.94287 0.81135,-1.63309 0.63841,-1.53382 -0.17293,0.0993 -0.0605,-0.10659 0.24994,-0.45748 0.80947,-0.91505 1.47255,-2.3233 1.25765,-2.671 -0.10791,-0.1746 -0.0656,-0.2245 0.10244,-0.12068 0.26693,0.16497 0.75977,-0.77207 0.64151,-1.21973 -0.0288,-0.10914 0.0666,-0.19844 0.21216,-0.19844 0.14552,0 0.26459,-0.15528 0.26459,-0.34507 0,-0.1898 0.38098,-0.93394 0.84662,-1.65365 0.46564,-0.71971 0.81988,-1.40672 0.78719,-1.52668 -0.0327,-0.11995 0.0441,-0.15411 0.17066,-0.0759 0.12655,0.0782 0.68025,-0.27013 1.23044,-0.77408 0.55019,-0.50396 1.08599,-0.91629 1.19067,-0.91629 0.35928,0 1.06723,-0.96899 0.86822,-1.18837 -0.10946,-0.12066 -0.0661,-0.14357 0.0964,-0.0509 0.16246,0.0927 0.51964,-0.0946 0.79375,-0.41604 0.49223,-0.5773 0.49186,-0.57967 -0.0308,-0.1922 -0.48928,0.36275 -0.50198,0.35764 -0.16846,-0.0678 0.19839,-0.25306 0.46949,-0.39288 0.60245,-0.31071 0.13295,0.0822 1.10172,-0.70128 2.15283,-1.74101 2.64949,-2.6208 4.00379,-3.30175 6.54131,-3.28899 1.0914,0.005 2.60379,0.16257 3.36085,0.34907 1.55703,0.38359 1.61525,0.45598 4.64938,5.78053 0.93228,1.63603 1.78347,2.88619 1.89154,2.77812 0.10807,-0.10807 0.16298,-0.0774 0.12202,0.0681 -0.11487,0.40812 0.30057,1.4552 0.57737,1.4552 0.13571,0 0.21699,0.0921 0.18061,0.20456 -0.11811,0.36526 3.3652,6.1 3.61237,5.94724 0.13184,-0.0815 0.15475,-0.0107 0.0509,0.15732 -0.32489,0.52569 0.10429,0.8993 0.59361,0.51675 0.39547,-0.30918 0.40218,-0.2961 0.067,0.13066 -0.30575,0.38932 -0.31064,0.53144 -0.0273,0.79375 0.27381,0.25352 0.30131,0.24276 0.13311,-0.0521 -0.14321,-0.25103 -0.11147,-0.30948 0.0978,-0.18015 0.17038,0.1053 0.2428,0.29983 0.16094,0.43229 -0.22791,0.36876 0.39201,1.34923 0.72353,1.14434 0.17714,-0.10948 0.21725,-0.0593 0.10186,0.12737 -0.25896,0.41902 1.92003,4.32806 2.28636,4.10165 0.15877,-0.0981 0.2095,-0.0538 0.11441,0.1001 -0.19643,0.31783 1.07026,2.71581 1.43458,2.71581 0.13308,0 0.21838,0.0893 0.18955,0.19843 -0.0288,0.10914 0.0407,0.4726 0.15454,0.80768 0.17796,0.52386 0.26874,0.56094 0.64773,0.26459 0.38627,-0.30204 0.39965,-0.29195 0.10818,0.0816 -0.26932,0.34514 -0.25674,0.60781 0.0661,1.38057 0.3322,0.79508 0.39874,2.68113 0.39874,11.3026 v 10.34827 l -0.8599,-0.18625 c -0.47294,-0.10244 -2.16958,-0.57955 -3.77031,-1.06025 -1.60073,-0.4807 -3.32713,-0.95475 -3.83646,-1.05345 -1.00391,-0.19454 -1.84721,-1.29084 -3.98607,-5.18194 l -1.03219,-1.87781 0.89293,0.16751 c 1.64983,0.30951 4.89242,-1.22529 4.53831,-2.1481 -0.0725,-0.18888 -0.0165,-0.34342 0.12449,-0.34342 0.41508,0 0.29361,-1.62037 -0.22353,-2.98204 -0.26366,-0.69423 -0.58031,-1.17048 -0.70367,-1.05833 -0.12335,0.11215 -0.13696,0.0524 -0.0302,-0.13282 0.11233,-0.19494 -0.48258,-1.73451 -1.41279,-3.65614 -0.88375,-1.82568 -1.60682,-3.40383 -1.60682,-3.50701 0,-0.10317 -0.20563,-0.48116 -0.45695,-0.83998 -0.25132,-0.35881 -0.47734,-0.77226 -0.50227,-0.91877 -0.0249,-0.1465 -0.60994,-1.457 -1.30004,-2.91221 -0.6901,-1.4552 -1.62988,-3.47927 -2.08841,-4.49791 -1.37841,-3.06224 -2.78716,-5.68854 -3.05131,-5.68854 -0.39086,0 -2.15325,3.17883 -1.95464,3.52559 0.0979,0.17098 0.0786,0.2206 -0.0429,0.11027 -0.18668,-0.16947 -2.18693,3.63705 -2.32994,4.43393 -0.0261,0.14552 -0.12078,0.32411 -0.21038,0.39687 -0.42426,0.34456 -1.2911,2.43635 -1.12761,2.72106 0.1016,0.17691 0.0854,0.23145 -0.0361,0.12121 -0.28925,-0.26256 -1.75755,2.42599 -1.53646,2.81338 0.0934,0.16361 0.0698,0.20666 -0.0524,0.0957 -0.1222,-0.11099 -1.39996,2.1512 -2.83948,5.02709 -2.26573,4.52652 -2.60018,5.36351 -2.4899,6.23115 0.27261,2.14474 1.68052,3.09878 4.57298,3.09878 0.92812,0 1.68748,0.091 1.68748,0.20235 0,0.1113 -0.24151,0.65297 -0.53669,1.20371 -0.29518,0.55075 -0.45469,1.1443 -0.35446,1.319 0.10023,0.1747 0.0842,0.22878 -0.0356,0.12016 -0.29781,-0.26997 -1.24633,1.34166 -1.02097,1.73474 0.0993,0.17316 0.0828,0.22629 -0.0366,0.11807 -0.30071,-0.27249 -1.00059,0.78812 -0.7682,1.16414 0.10594,0.17142 0.0731,0.23371 -0.0749,0.14222 -0.14487,-0.0895 -0.52438,0.19022 -0.84336,0.62167 -0.43727,0.59144 -0.51624,0.90353 -0.32095,1.26843 0.19705,0.36819 0.16477,0.48398 -0.13495,0.48398 -0.2432,0 -0.33927,-0.16032 -0.25104,-0.41893 0.0786,-0.2304 -0.39064,0.17639 -1.04279,0.904 -0.65214,0.7276 -1.13179,1.47174 -1.06589,1.65364 0.22857,0.63085 -0.0731,0.32008 -1.7245,-1.77648 z m 2.12552,1.57804 c 0,-0.14552 0.0525,-0.26458 0.11668,-0.26458 0.0642,0 0.19026,0.11906 0.2802,0.26458 0.0899,0.14553 0.0374,0.26459 -0.11668,0.26459 -0.15411,0 -0.2802,-0.11906 -0.2802,-0.26459 z M 69.60274,166.68024 c 0,-0.21188 0.10116,-0.32272 0.2248,-0.2463 0.12364,0.0764 0.1563,0.24977 0.0726,0.38523 -0.21395,0.34618 -0.29738,0.3072 -0.29738,-0.13893 z m 19.90181,-2.81236 c 0.0852,-0.13784 0.26767,-0.18092 0.40551,-0.0957 0.13784,0.0852 0.18091,0.26767 0.0957,0.40551 -0.0852,0.13784 -0.26766,0.18091 -0.4055,0.0957 -0.13784,-0.0852 -0.18092,-0.26766 -0.0957,-0.4055 z m 2.58777,-3.27306 c 0,-0.21188 0.10116,-0.32271 0.2248,-0.2463 0.12364,0.0764 0.1563,0.24977 0.0726,0.38524 -0.21395,0.34617 -0.29738,0.3072 -0.29738,-0.13894 z M 46.72663,148.34621 c -0.32911,-0.41965 -0.31975,-0.42901 0.0999,-0.0999 0.25466,0.19972 0.46302,0.40808 0.46302,0.46302 0,0.21776 -0.21727,0.0776 -0.56291,-0.36312 z m 110.98235,-1.24514 c 0,-0.21188 0.10116,-0.32271 0.2248,-0.2463 0.12364,0.0764 0.15631,0.24977 0.0726,0.38524 -0.21395,0.34617 -0.29738,0.3072 -0.29738,-0.13894 z m 9.93222,-1.66528 c -0.3291,-0.41965 -0.31975,-0.429 0.0999,-0.0999 0.25466,0.19972 0.46302,0.40808 0.46302,0.46302 0,0.21777 -0.21727,0.0776 -0.56292,-0.36312 z m -81.89888,-0.45138 c 0,-0.21188 0.10116,-0.32272 0.2248,-0.2463 0.12364,0.0764 0.1563,0.24977 0.0726,0.38523 -0.21395,0.34618 -0.29738,0.3072 -0.29738,-0.13893 z m 76.00176,-9.0449 c -0.13935,-0.36313 -0.10063,-0.3795 0.23628,-0.0999 0.45911,0.38103 0.5069,0.53419 0.16665,0.53419 -0.12995,0 -0.31127,-0.19543 -0.40293,-0.4343 z m 26.46334,-1.1091 c -0.075,-0.12127 0.0318,-0.22049 0.23732,-0.22049 0.20548,0 0.31228,0.0992 0.23733,0.22049 -0.075,0.12126 -0.18174,0.22048 -0.23733,0.22048 -0.0556,0 -0.16238,-0.0992 -0.23732,-0.22048 z m -75.15762,-1.8779 c -0.0837,-0.13547 -0.0511,-0.30882 0.0726,-0.38524 0.12364,-0.0764 0.2248,0.0344 0.2248,0.2463 0,0.44614 -0.0834,0.48512 -0.29738,0.13894 z m -67.34776,-1.97026 c 0,-0.0549 0.168,-0.23932 0.37332,-0.40972 0.28586,-0.23725 0.41941,-0.23526 0.57005,0.008 0.12025,0.19457 0.0851,0.24931 -0.0905,0.14082 -0.15795,-0.0976 -0.36197,-0.0565 -0.45338,0.0914 -0.16356,0.26465 -0.39954,0.36447 -0.39954,0.169 z m 110.59583,-1.10243 c 0,-0.0307 0.15875,-0.18755 0.35278,-0.34858 0.26362,-0.21879 0.35278,-0.20468 0.35278,0.0558 0,0.19172 -0.15875,0.34858 -0.35278,0.34858 -0.19403,0 -0.35278,-0.0251 -0.35278,-0.0558 z m -82.4064,-0.10231 c -0.0837,-0.13547 -0.0511,-0.30882 0.0726,-0.38524 0.12365,-0.0764 0.22481,0.0344 0.22481,0.2463 0,0.44614 -0.0834,0.48512 -0.29738,0.13894 z m -26.69323,-0.69115 c 0.0862,-0.22456 0.21342,-0.35154 0.28277,-0.28219 0.0694,0.0694 0.0476,0.25309 -0.0483,0.40829 -0.26089,0.42213 -0.41338,0.34012 -0.23447,-0.1261 z m 147.7288,-0.74995 c 0,-0.0549 0.20835,-0.2633 0.46302,-0.46302 0.41964,-0.3291 0.429,-0.31975 0.0999,0.0999 -0.34565,0.44073 -0.56292,0.58089 -0.56292,0.36312 z m -0.52917,-1.11921 c 0,-0.21897 0.51375,-0.3428 0.63153,-0.15222 0.0764,0.12364 -0.0344,0.2248 -0.2463,0.2248 -0.21187,0 -0.38523,-0.0327 -0.38523,-0.0726 z m -125.2689,-0.87927 c -0.0837,-0.13547 -0.0511,-0.30883 0.0726,-0.38524 0.12365,-0.0764 0.22481,0.0344 0.22481,0.2463 0,0.44613 -0.0834,0.48511 -0.29738,0.13894 z m 70.50826,-0.94433 c 0,-0.14552 0.11541,-0.086 0.25647,0.13229 0.14107,0.21829 0.25648,0.51594 0.25648,0.66146 0,0.14552 -0.11541,0.086 -0.25648,-0.13229 -0.14106,-0.21828 -0.25647,-0.51594 -0.25647,-0.66146 z m 2.33939,-0.33073 c -0.32128,-0.40967 -0.31459,-0.42518 0.0581,-0.13459 0.23166,0.18064 0.51865,0.24018 0.63773,0.1323 0.11908,-0.10788 0.13086,-0.0473 0.0262,0.13458 -0.24601,0.42749 -0.28921,0.41957 -0.72201,-0.13229 z m 45.42109,-1.63536 c -0.0837,-0.13547 -0.0511,-0.30882 0.0726,-0.38524 0.12364,-0.0764 0.2248,0.0344 0.2248,0.2463 0,0.44614 -0.0834,0.48512 -0.29738,0.13894 z m -106.90109,-0.0152 c -0.0927,-0.14998 0.0135,-0.19434 0.24897,-0.10398 0.45837,0.17589 0.54223,0.36553 0.16165,0.36553 -0.13693,0 -0.32171,-0.1177 -0.41062,-0.26155 z m 69.6108,-1.81101 c -0.075,-0.12127 0.0318,-0.22049 0.23733,-0.22049 0.20547,0 0.31227,0.0992 0.23732,0.22049 -0.0749,0.12125 -0.18174,0.22047 -0.23732,0.22047 -0.0556,0 -0.16239,-0.0992 -0.23733,-0.22049 z m 40.85087,-1.7229 c 0,-0.0502 0.2263,-0.29609 0.50289,-0.5464 0.37792,-0.34201 0.55247,-0.37492 0.70234,-0.13242 0.11963,0.19355 0.0892,0.25456 -0.076,0.15244 -0.15152,-0.0936 -0.42261,0.007 -0.60244,0.2237 -0.31205,0.376 -0.52675,0.49937 -0.52675,0.30268 z m -67.58708,-0.46048 c 0.0852,-0.13784 0.26767,-0.18092 0.40551,-0.0957 0.13784,0.0852 0.18092,0.26767 0.0957,0.40551 -0.0852,0.13784 -0.26767,0.18092 -0.40551,0.0957 -0.13784,-0.0852 -0.18092,-0.26767 -0.0957,-0.40551 z m 62.03083,-3.49392 c 1.37771,-0.47599 1.5801,-0.66153 2.18457,-2.00274 0.46671,-1.03552 0.55644,-1.77303 0.57342,-4.71322 l 0.0201,-3.4856 1.1296,-0.1694 c 0.71759,-0.10761 1.06457,-0.27462 0.95131,-0.45788 -0.10477,-0.16951 -0.0561,-0.21295 0.11804,-0.10534 0.35389,0.21872 4.1573,-1.31629 6.10069,-2.46215 0.75951,-0.44783 1.43887,-0.81423 1.50967,-0.81423 0.0708,0 0.49636,0.4187 0.94568,0.93045 0.44932,0.51175 1.01123,0.8987 1.24869,0.8599 0.23745,-0.0388 0.40552,0.0676 0.37348,0.2365 -0.0854,0.4502 1.8251,2.08733 3.31977,2.84474 1.82182,0.92318 3.63099,1.1079 4.80828,0.49092 0.50932,-0.26692 0.89332,-0.63903 0.85334,-0.82691 -0.04,-0.18788 0.0382,-0.27309 0.17365,-0.18935 0.13549,0.0837 0.79329,-0.45607 1.46176,-1.19957 1.13282,-1.25997 1.33686,-1.61767 1.24019,-2.17416 -0.0208,-0.11996 0.0717,-0.15041 0.20553,-0.0677 0.37722,0.23314 0.56096,-0.53661 0.21204,-0.88829 -0.23774,-0.23961 -0.20292,-0.27171 0.14929,-0.13764 0.33766,0.12854 0.5304,-0.012 0.7276,-0.53071 0.34983,-0.9201 0.3434,-1.994048 -0.0119,-1.994048 -0.15411,0 -0.20598,-0.120084 -0.11527,-0.266854 0.0907,-0.146769 -0.73653,-1.162478 -1.83831,-2.257125 -1.10177,-1.09465 -2.29936,-2.459376 -2.6613,-3.032729 -0.48278,-0.764775 -0.78182,-0.999788 -1.12264,-0.882279 -0.42154,0.145341 -0.42534,0.126249 -0.041,-0.206148 0.84121,-0.727471 3.6657,-7.975684 3.67403,-9.428302 0.003,-0.587901 0.048,-0.595312 3.58843,-0.595312 2.71318,0 3.77695,-0.09926 4.37427,-0.408144 0.45725,-0.23645 0.71278,-0.5319 0.60744,-0.702339 -0.10311,-0.166828 -0.0626,-0.220482 0.0937,-0.123936 0.31962,0.197538 0.94548,-0.448598 0.68593,-0.708155 -0.0958,-0.09575 -0.0436,-0.174093 0.11583,-0.174093 0.56354,0 0.92985,-2.927506 0.74091,-5.921295 -0.2891,-4.58102 -0.74293,-4.926621 -6.46937,-4.926621 h -3.69164 l -0.17693,-0.859896 c -0.52647,-2.558663 -1.27364,-5.389033 -1.48073,-5.609166 -0.13006,-0.138245 -0.23847,-0.435901 -0.24092,-0.661458 -0.002,-0.225558 -0.41894,-1.243542 -0.92553,-2.262188 -0.50659,-1.018646 -0.80151,-1.892017 -0.65536,-1.940827 0.14615,-0.04881 0.20351,-0.18941 0.12747,-0.312446 -0.076,-0.123037 10e-4,-0.309859 0.17152,-0.415158 0.19347,-0.119571 0.2389,-0.07677 0.12099,0.114009 -0.10383,0.168005 -0.0773,0.305464 0.059,0.305464 0.26478,0 0.73949,-0.493776 0.88541,-0.920975 0.0487,-0.142732 0.22522,-0.261795 0.39215,-0.264583 0.41419,-0.0069 2.21004,-1.664557 2.21004,-2.039956 0,-0.166246 0.0783,-0.223922 0.17409,-0.12817 0.23927,0.239271 0.91348,-0.3537 0.73342,-0.645046 -0.0797,-0.129032 -0.0119,-0.234603 0.15082,-0.234603 0.1627,0 0.21086,-0.137459 0.10703,-0.305464 -0.11708,-0.189434 -0.0726,-0.233635 0.11717,-0.116369 0.49447,0.305599 0.8967,-1.157711 0.71077,-2.585757 -0.18803,-1.444096 -1.10989,-3.606993 -1.53737,-3.606993 -0.15375,0 -0.20369,-0.07586 -0.11097,-0.168571 0.26498,-0.264983 -0.88099,-1.710503 -1.19983,-1.513451 -0.16781,0.103719 -0.20878,0.05259 -0.0995,-0.124217 0.10654,-0.172381 -0.36573,-0.86664 -1.10771,-1.628381 -1.19675,-1.228624 -1.38799,-1.32788 -2.55848,-1.32788 -1.00079,0 -1.20608,0.07106 -0.98273,0.340177 0.21293,0.256572 0.16064,0.340181 -0.21277,0.340181 -0.27229,0 -0.42589,-0.111946 -0.34133,-0.248767 0.2259,-0.365514 -0.41873,0.04344 -1.7801,1.129321 -2.06053,1.643547 -2.63553,2.210459 -2.48652,2.451571 0.0795,0.128677 0.0464,0.202668 -0.0735,0.164423 -0.11995,-0.03825 -0.89264,0.441756 -1.71708,1.06667 l -1.49897,1.136208 -1.46943,-0.829297 c -0.80883,-0.456472 -1.61043,-0.742159 -1.78305,-0.635471 -0.21158,0.130765 -0.24316,0.07981 -0.097,-0.156599 0.15856,-0.256569 0.095,-0.303763 -0.23745,-0.176202 -0.27482,0.105458 -0.38886,0.0688 -0.28894,-0.09287 0.0908,-0.146904 -0.27062,-0.44914 -0.80313,-0.671636 -0.80005,-0.334283 -1.04461,-0.344808 -1.40811,-0.0606 -0.39365,0.307779 -0.40172,0.295259 -0.0768,-0.119081 0.38152,-0.486463 0.40489,-0.470371 -0.82614,-0.568854 -0.1819,-0.01455 -0.3976,-0.116253 -0.47932,-0.226002 -0.0817,-0.109749 -0.7585,-0.344427 -1.50395,-0.521502 l -1.35537,-0.321958 -0.0836,-4.196725 c -0.0692,-3.475382 -0.15627,-4.249812 -0.50667,-4.505582 -0.23272,-0.16987 -0.43409,-0.411631 -0.44748,-0.537247 -0.0744,-0.698084 -1.56076,-0.962234 -5.41432,-0.962234 -3.46521,0 -4.0242,0.05943 -4.355,0.463021 -0.20874,0.254661 -0.29459,0.298746 -0.19078,0.09797 0.1263,-0.244279 0.0671,-0.320873 -0.17882,-0.23151 -0.20215,0.07345 -0.33484,0.276339 -0.29485,0.450866 0.04,0.174527 -0.0475,0.243049 -0.19437,0.152267 -0.14688,-0.09078 -0.50956,0.227793 -0.80596,0.707938 -0.48184,0.780566 -0.53544,1.278226 -0.5063,4.700471 0.0179,2.105112 -0.0688,3.848383 -0.19278,3.873934 -2.5099,0.517366 -7.05152,2.407322 -6.79239,2.826596 0.0936,0.151511 0.0362,0.188873 -0.13121,0.08539 -0.32425,-0.200393 -1.90074,0.511799 -1.90074,0.858671 0,0.11753 -0.14882,0.230081 -0.33073,0.250113 -0.1819,0.02003 -0.62774,0.06964 -0.99075,0.110241 -0.37833,0.04232 -0.66063,-0.06206 -0.66145,-0.24456 -0.002,-0.510555 -2.22425,-2.50713 -2.55953,-2.299917 -0.17446,0.107821 -0.22965,0.06979 -0.13082,-0.09013 0.19552,-0.316344 -1.41365,-1.846628 -2.98471,-2.838394 -1.85647,-1.171938 -3.79924,-0.822037 -5.32254,0.958609 -0.84663,0.989645 -1.02206,1.537287 -0.31478,0.982596 0.419,-0.328602 0.42873,-0.319384 0.10231,0.09698 -0.19839,0.253058 -0.45717,0.400487 -0.57508,0.327618 -0.32158,-0.198747 -1.37601,1.410073 -1.15673,1.764889 0.11806,0.191022 0.0743,0.235847 -0.11555,0.118484 -0.40697,-0.251519 -0.39022,0.17074 0.0253,0.636661 0.27982,0.313788 0.26182,0.318913 -0.1169,0.03329 -0.39154,-0.295294 -0.5169,-0.201817 -1.00046,0.746035 -0.79602,1.56034 -0.75232,2.630566 0.17498,4.284667 0.86901,1.550128 4.46631,4.819893 5.05717,4.596712 0.18945,-0.07156 0.27325,-0.01487 0.1862,0.125971 -0.087,0.140845 -0.0271,0.526436 0.13314,0.856863 0.26166,0.539428 0.25335,0.553736 -0.0814,0.140108 -0.33834,-0.418113 -0.43698,-0.308121 -1.06779,1.190625 -1.00588,2.389857 -1.44175,3.712908 -2.17238,6.594038 -0.74302,2.929969 -0.77532,3.230644 -0.31885,2.967955 0.1819,-0.104679 0.24259,-0.09302 0.13486,0.02593 -0.10773,0.118932 -2.02738,0.18964 -4.26589,0.157125 -6.6597,-0.09673 -6.91532,0.142274 -6.91532,6.465758 0,4.224771 0.007,4.273891 0.71373,5.201821 0.89603,1.176055 1.37836,1.273046 6.3308,1.273046 h 3.93567 v 0.896442 c 0,1.922979 1.91614,7.369694 2.95979,8.413343 l 0.53413,0.534132 -0.95859,0.981687 c -0.52722,0.539929 -0.86687,1.082574 -0.75477,1.205878 0.1121,0.123304 0.0743,0.1505 -0.0839,0.06044 -0.3657,-0.208124 -2.30652,1.755108 -2.03276,2.05623 0.1121,0.123304 0.0646,0.144463 -0.10562,0.04702 -0.39088,-0.223798 -1.99518,1.682316 -1.81379,2.155013 0.0801,0.208785 0.0137,0.27247 -0.16734,0.160551 -0.46677,-0.288475 -0.0617,1.075153 0.97584,3.285174 0.50077,1.06665 1.0286,1.86271 1.17506,1.77219 0.1482,-0.0916 0.20342,-0.002 0.12474,0.20353 -0.23763,0.61925 2.24795,3.01303 3.46286,3.33498 1.17264,0.31074 2.606,0.0424 3.81086,-0.71341 0.68782,-0.43147 4.36294,-3.38836 5.5708,-4.4821 0.72664,-0.65798 1.19778,-0.75283 1.47904,-0.29774 0.29784,0.4819 4.83135,2.52454 7.0336,3.16909 l 2.02766,0.59344 0.089,4.00109 c 0.0734,3.30053 0.17212,4.12778 0.56366,4.72465 0.26105,0.39796 0.59142,0.65139 0.73416,0.56318 0.14273,-0.0882 0.2268,-0.0176 0.18681,0.15693 -0.04,0.17453 0.0927,0.37742 0.29486,0.45087 0.21351,0.0776 0.29487,0.0159 0.19412,-0.14709 -0.0954,-0.15434 -0.034,-0.36678 0.13634,-0.47208 0.17038,-0.10529 0.23971,-0.0781 0.15407,0.0605 -0.0856,0.13857 -0.0555,0.41414 0.067,0.61237 0.30484,0.49325 6.6338,0.65165 7.94441,0.19884 z m -24.76535,-11.10171 c -0.10468,-0.1819 -0.0916,-0.24117 0.0291,-0.13172 0.12066,0.10946 0.46717,-0.01 0.77002,-0.26458 0.5502,-0.46322 0.55023,-0.46312 0.0466,0.13172 -0.58811,0.69462 -0.59667,0.6973 -0.84569,0.26458 z m 3.07329,-2.95389 c 0.17135,-0.17134 0.35026,-0.17134 0.52161,0 0.17135,0.17135 0.0819,0.26081 -0.2608,0.26081 -0.3427,0 -0.43215,-0.0895 -0.26081,-0.26081 z m 43.53415,-10.760936 c 0.0852,-0.13784 0.26766,-0.180917 0.4055,-0.09573 0.13784,0.08519 0.18092,0.267666 0.0957,0.405506 -0.0852,0.13784 -0.26766,0.180916 -0.4055,0.09573 -0.13784,-0.08519 -0.18092,-0.267666 -0.0957,-0.405506 z m -27.85058,-3.592393 c -1.09271,-0.274481 -2.39356,-0.870463 -3.45816,-1.584357 -0.93861,-0.629401 -1.83036,-1.067853 -1.98167,-0.974338 -0.15131,0.09352 -0.20093,0.04999 -0.11025,-0.09672 0.0907,-0.146709 -0.25772,-0.730652 -0.77421,-1.297652 -0.92361,-1.013944 -2.10838,-2.690955 -2.17785,-3.082686 -0.0195,-0.109837 -0.2235,-0.645618 -0.4534,-1.190625 -0.58321,-1.382625 -0.79863,-5.20654 -0.38941,-6.912367 0.44965,-1.874355 2.56505,-5.03102 4.28775,-6.398315 0.77461,-0.614809 1.37568,-1.228619 1.33569,-1.364019 -0.04,-0.135401 0.0353,-0.179406 0.1674,-0.09779 0.13205,0.08161 0.93867,-0.109728 1.79249,-0.425201 1.24645,-0.460542 2.15206,-0.576347 4.59511,-0.587598 2.72241,-0.01254 3.22155,0.06084 4.74172,0.697021 0.93447,0.391068 1.80062,0.648243 1.92479,0.571503 0.12417,-0.07674 0.19305,0.01815 0.15306,0.210865 -0.04,0.192717 0.10589,0.350396 0.32418,0.350396 0.21828,0 0.36415,-0.157679 0.32417,-0.350396 -0.04,-0.192717 0.0551,-0.271415 0.21128,-0.174882 0.19802,0.122383 0.20029,0.276366 0.007,0.508672 -0.32161,0.387517 0.5409,1.344205 0.91001,1.00937 0.12066,-0.109458 0.15208,-0.07987 0.0698,0.06575 -0.0823,0.145622 0.25584,0.675669 0.75133,1.177891 0.49549,0.502219 0.90089,1.015182 0.90089,1.139915 0,0.124735 0.0935,0.16897 0.20788,0.09831 0.11434,-0.07066 0.22502,0.07114 0.24595,0.315114 0.0209,0.243977 0.34103,1.277032 0.71133,2.295678 0.83958,2.309624 0.87922,4.378108 0.13469,7.029352 -0.30373,1.081563 -0.56737,2.166098 -0.58587,2.410076 -0.0185,0.243978 -0.14741,0.373274 -0.28648,0.287327 -0.14982,-0.0926 -0.17493,0.04679 -0.0616,0.342088 0.10519,0.274097 0.10707,0.414189 0.004,0.311311 -0.21264,-0.212643 -1.86415,1.924235 -1.75259,2.267664 0.04,0.123092 -0.032,0.159094 -0.15997,0.08 -0.31252,-0.193143 -1.42716,1.015389 -1.17192,1.270627 0.11047,0.110472 0.0818,0.164476 -0.0637,0.12001 -0.14552,-0.04447 -0.80036,0.229841 -1.45521,0.609573 -1.06507,0.61762 -2.88674,1.297147 -4.36562,1.628484 -1.15168,0.25803 -2.88487,0.159044 -4.55328,-0.260048 z m 11.79557,-21.454278 c -0.32911,-0.419645 -0.31975,-0.429004 0.0999,-0.0999 0.44073,0.345643 0.58089,0.562917 0.36312,0.562917 -0.0549,0 -0.2633,-0.20836 -0.46302,-0.463021 z m 4.65696,-18.271296 c 0.0815,-0.08146 0.29495,-1.7e-4 0.47443,0.180652 0.25936,0.261308 0.22897,0.291698 -0.14812,0.148114 -0.26093,-0.09936 -0.40778,-0.247304 -0.32631,-0.328766 z m -42.40753,-2.307058 c 0.0815,-0.08146 0.22941,0.06538 0.32877,0.326318 0.14358,0.377084 0.11319,0.407474 -0.14811,0.148114 -0.18083,-0.179477 -0.26212,-0.39297 -0.18066,-0.474432 z M 98.91183,100.82589 c 3.03468,-1.248349 4.1763,-2.282452 5.28384,-4.786235 0.39493,-0.892808 0.51934,-1.565011 0.41203,-2.226279 -0.27311,-1.682951 -1.84259,-6.100399 -2.10894,-5.935786 -0.14171,0.08758 -0.17421,0.02424 -0.0722,-0.140761 0.10197,-0.165 0.0368,-0.570349 -0.14483,-0.900777 -0.46978,-0.854638 -0.48849,-1.205431 -0.0728,-1.364956 0.65005,-0.249449 2.74363,-3.3308 2.58974,-3.811606 -0.10697,-0.334187 -0.0799,-0.361378 0.10431,-0.104785 0.19175,0.267086 0.35538,0.183806 0.71387,-0.363308 0.31095,-0.47458 0.34639,-0.647573 0.10692,-0.521993 -0.197,0.103306 -0.1076,-0.03086 0.19866,-0.298151 0.81979,-0.715465 2.23025,-2.902368 2.01241,-3.12021 -0.1034,-0.103397 -0.0689,-0.159684 0.0766,-0.125082 0.14553,0.0346 0.70725,-0.13407 1.24828,-0.374827 0.71935,-0.320109 1.75675,-0.437738 3.86055,-0.437738 1.74422,0 3.37632,-0.150315 4.14547,-0.381793 1.28294,-0.386109 2.88174,-1.627656 2.62693,-2.039943 -0.0762,-0.123254 -0.0209,-0.224097 0.12269,-0.224097 0.50261,0 1.35761,-2.886276 1.35496,-4.573987 -0.003,-1.936099 -0.98464,-4.3836 -1.84871,-4.60956 -0.29148,-0.07622 -0.52996,-0.232116 -0.52996,-0.346429 0,-0.402479 -1.68615,-0.788773 -3.44295,-0.788773 -1.50287,0 -2.9943,-0.181399 -4.76395,-0.579425 -0.45906,-0.103251 -1.58268,-1.376767 -1.58268,-1.793814 0,-0.17186 -0.46312,-1.523891 -1.02916,-3.004513 -0.56604,-1.480621 -1.38957,-3.836521 -1.83005,-5.235331 l -0.80088,-2.543294 0.77949,-1.636569 c 0.42872,-0.900115 0.71396,-1.742612 0.63386,-1.872218 -0.0801,-0.129607 0.0294,-0.333632 0.24346,-0.453396 0.41875,-0.234346 1.7387,-3.014651 1.7387,-3.662365 0,-0.567417 -0.56072,-1.484659 -1.32292,-2.164087 -0.3638,-0.324292 -0.89926,-0.800651 -1.18991,-1.058572 -1.45285,-1.289254 -7.39505,-4.89409 -7.64892,-4.64022 -0.0864,0.08635 -0.157,0.0053 -0.157,-0.179988 0,-0.195855 -0.17197,-0.270997 -0.41062,-0.179419 -0.22584,0.08666 -0.35077,0.06074 -0.27763,-0.0576 0.20825,-0.336954 -2.13798,-1.366268 -3.11428,-1.366268 -0.52407,0 -1.05988,0.201022 -1.32929,0.498713 -0.51577,0.569923 -3.11981,6.539727 -3.15825,7.240349 -0.014,0.254661 -0.1104,0.463021 -0.21429,0.463021 -0.34995,0 -1.28523,2.920714 -1.28523,4.013581 0,1.551514 1.09645,2.474036 4.4894,3.777289 1.4949,0.574199 3.18461,1.382006 3.75491,1.795129 0.57029,0.41312 1.18105,0.668375 1.35723,0.56723 0.17619,-0.101145 0.23965,-0.09405 0.14104,0.01577 -0.21214,0.236249 2.9089,4.015086 3.24032,3.923241 0.12497,-0.03464 0.15175,0.133723 0.0595,0.374132 -0.12154,0.31674 -0.0712,0.377467 0.1827,0.22053 0.22404,-0.138465 0.28696,-0.113895 0.17447,0.06812 -0.0968,0.156586 0.23823,1.19357 0.74445,2.304407 1.17519,2.578775 1.41055,3.441314 1.73442,6.356196 0.21181,1.906297 0.18015,2.882591 -0.15874,4.894792 -0.23282,1.382448 -0.44195,2.77151 -0.46473,3.086806 -0.0228,0.315293 -0.0905,0.524182 -0.15049,0.464193 -0.20337,-0.203377 -1.08084,2.056929 -0.90744,2.337504 0.098,0.158578 0.0463,0.200853 -0.11996,0.09809 -0.30068,-0.18583 -0.92631,0.691171 -0.7063,0.990076 0.0676,0.09189 0.0462,0.110146 -0.0476,0.04056 -0.20993,-0.155667 -2.10419,2.247535 -2.0122,2.552824 0.0364,0.120743 -0.0232,0.189765 -0.13229,0.153385 -0.10914,-0.03638 -0.23455,0.05292 -0.2787,0.198437 -0.0441,0.145521 -0.37509,0.419066 -0.73545,0.607875 -0.39019,0.204444 -0.58136,0.47198 -0.47264,0.661458 0.10041,0.174993 0.0874,0.232191 -0.0289,0.127106 -0.11628,-0.105082 -0.55295,0.09632 -0.97037,0.447551 -0.41742,0.351234 -1.35262,0.961726 -2.07822,1.356651 -1.03682,0.564306 -1.25659,0.793588 -1.02644,1.07089 0.16106,0.194069 0.4168,0.276233 0.56832,0.182592 0.16089,-0.09943 0.19622,-0.04201 0.0849,0.138044 -0.14038,0.227147 -0.34075,0.203083 -0.76121,-0.09141 -0.67778,-0.474737 -1.08872,-0.521711 -0.82453,-0.09425 0.10648,0.172299 0.0736,0.234241 -0.0756,0.142086 -0.32827,-0.202877 -2.84655,0.735465 -3.80455,1.417625 -0.9392,0.668771 -1.56912,2.051899 -1.56912,3.445374 0,1.289812 1.49679,4.830911 1.92905,4.563758 0.15427,-0.09534 0.1885,-0.03562 0.0801,0.139751 -0.2476,0.400626 1.1606,2.984992 1.50912,2.769589 0.14912,-0.09216 0.18675,-0.03453 0.085,0.130135 -0.21589,0.349324 0.97369,2.826184 1.78373,3.713955 1.36518,1.49618 3.08825,1.72877 5.48946,0.74101 z m -4.63149,-0.39131 c -0.075,-0.12127 0.0319,-0.22049 0.23733,-0.22049 0.20547,0 0.31227,0.0992 0.23732,0.22049 -0.0749,0.12126 -0.18174,0.22048 -0.23732,0.22048 -0.0556,0 -0.16239,-0.0992 -0.23733,-0.22048 z m -19.6842,0.0752 c 0.64859,-0.35206 2.43127,-3.113615 2.639,-4.088091 0.0465,-0.218282 0.16374,-0.45715 0.26046,-0.530821 0.41046,-0.312658 2.57024,-5.111109 2.73233,-6.07053 0.26748,-1.583167 -0.30253,-3.858657 -1.23166,-4.916879 -0.43608,-0.496679 -0.87264,-0.882415 -0.97012,-0.857192 -0.0975,0.02522 -0.80678,-0.279882 -1.57622,-0.678008 -0.76944,-0.398129 -1.53197,-0.641675 -1.69452,-0.541216 -0.19311,0.119346 -0.22048,0.06119 -0.079,-0.167769 0.15857,-0.25657 0.095,-0.303763 -0.23744,-0.176202 -0.25308,0.09711 -0.38698,0.06575 -0.30255,-0.07087 0.0833,-0.134803 -0.35699,-0.598922 -0.97844,-1.031375 -1.65225,-1.149752 -3.26937,-2.794008 -4.35294,-4.425968 -0.52412,-0.789387 -1.00265,-1.435249 -1.0634,-1.435249 -0.0607,0 -0.0255,0.137459 0.0784,0.305465 0.1179,0.190775 0.0725,0.233579 -0.121,0.114008 -0.17037,-0.105298 -0.24992,-0.288295 -0.17677,-0.406656 0.0731,-0.118362 -0.0887,-0.497089 -0.35974,-0.841613 -0.271,-0.344527 -0.50782,-0.745474 -0.52626,-0.890995 -0.0185,-0.145521 -0.208,-0.800365 -0.42123,-1.455208 -1.09037,-3.348535 -1.12228,-7.764029 -0.084,-11.626434 0.29563,-1.099783 0.54854,-2.199225 0.56202,-2.443203 0.0135,-0.243977 0.10423,-0.394319 0.20168,-0.334092 0.0975,0.06023 0.32651,-0.25102 0.50903,-0.69166 0.18252,-0.44064 0.67259,-1.271532 1.08904,-1.846429 0.80912,-1.116952 0.94334,-1.460712 0.45172,-1.156875 -0.19077,0.117906 -0.23358,0.07248 -0.114,-0.120991 0.10529,-0.170379 0.29318,-0.246907 0.41752,-0.170061 0.30897,0.19095 1.35677,-1.322909 1.11861,-1.616162 -0.10484,-0.129096 -0.0804,-0.14433 0.0543,-0.03386 0.31651,0.259524 1.51099,-0.854363 1.29351,-1.206241 -0.0952,-0.154098 -0.0325,-0.185113 0.14834,-0.07335 0.1807,0.111683 0.69464,-0.141126 1.21412,-0.59723 0.49542,-0.434989 1.14845,-0.869498 1.45116,-0.965576 0.30422,-0.09656 0.47122,-0.302795 0.37338,-0.461103 -0.10154,-0.164303 -0.0544,-0.210637 0.11058,-0.108675 0.3878,0.239676 2.95872,-0.920768 3.78899,-1.710245 1.8388,-1.748475 1.71942,-4.032903 -0.43222,-8.270324 -1.49286,-2.940048 -2.8033,-4.547838 -3.49148,-4.283755 -0.19975,0.07665 -0.29964,0.03654 -0.22196,-0.08914 0.2124,-0.34367 -1.6875,-0.556557 -2.89187,-0.324038 -1.2379,0.23899 -3.49557,1.203624 -4.08632,1.745959 -0.22638,0.207827 -0.92312,0.818433 -1.54832,1.356899 -0.6252,0.53847 -1.07689,1.134981 -1.00375,1.325584 0.0731,0.190601 0.0172,0.418121 -0.12436,0.505595 -0.14154,0.08748 -0.19392,0.261657 -0.11642,0.387067 0.0775,0.12541 0.002,0.314174 -0.16885,0.419473 -0.19347,0.11957 -0.2389,0.07677 -0.12099,-0.114009 0.10383,-0.168005 0.0598,-0.305464 -0.098,-0.305464 -1.08242,0 -1.20978,5.032348 -0.21836,8.62793 0.56629,2.053767 0.61457,2.503643 0.32649,3.041927 -0.24034,0.449091 -0.25709,0.729295 -0.0579,0.969275 0.21262,0.256199 0.176,0.297601 -0.15192,0.171765 -0.28139,-0.107982 -0.493,0.0052 -0.60681,0.324673 -0.0961,0.269758 -0.32724,0.66961 -0.51363,0.888558 -0.5767,0.677407 -2.23739,4.794207 -2.05379,5.091273 0.0955,0.154517 0.06,0.210717 -0.0789,0.124884 -0.13888,-0.08583 -0.39641,0.07437 -0.57229,0.355994 -0.19311,0.309229 -0.21409,0.512053 -0.053,0.512053 0.14675,0 0.26682,0.115327 0.26682,0.256281 0,0.140951 -0.17859,0.187746 -0.39687,0.103984 -0.21828,-0.08376 -0.39688,-0.0205 -0.39688,0.140594 0,0.161092 0.13891,0.292891 0.30868,0.292891 0.16978,0 0.23219,0.0765 0.13869,0.169995 -0.0935,0.0935 -0.33211,0.03545 -0.53025,-0.128987 -0.2786,-0.231219 -0.49622,-0.154252 -0.96016,0.339585 -0.36766,0.391363 -0.52153,0.774181 -0.39747,0.988882 0.11134,0.192675 0.11073,0.267783 -10e-4,0.16691 -0.11208,-0.100875 -0.63718,0.08641 -1.1669,0.416179 -0.60529,0.376825 -1.45462,0.621358 -2.28604,0.658178 -0.7276,0.03222 -1.76773,0.176506 -2.3114,0.320624 -1.00434,0.26624 -2.5055,1.438868 -2.38495,1.863003 0.0364,0.127992 -0.0627,0.202949 -0.22014,0.166568 -0.48042,-0.111 -1.27076,2.225675 -1.28643,3.803386 -0.0179,1.806482 0.23234,3.183948 0.54357,2.991598 0.12613,-0.07796 0.15843,0.04304 0.0718,0.268878 -0.0869,0.22642 -0.0192,0.410617 0.15093,0.410617 0.16968,0 0.23761,0.114721 0.15095,0.254934 -0.26376,0.426768 1.87679,2.337864 2.95342,2.636827 0.55513,0.154159 2.31903,0.281617 3.91976,0.283239 1.60073,0.0016 3.38667,0.143013 3.96875,0.314201 0.58208,0.171185 1.1774,0.279662 1.32292,0.241056 0.14552,-0.0386 0.17844,0.01596 0.0732,0.121232 -0.10528,0.105283 0.28167,0.785601 0.8599,1.511821 0.57822,0.726218 1.05131,1.438484 1.05131,1.582815 0,0.14433 0.20836,0.09901 0.46302,-0.100709 0.41308,-0.323958 0.42639,-0.316238 0.12339,0.07159 -0.3675,0.470381 -0.0559,1.096862 2.15522,4.333832 l 1.02184,1.495885 -0.45635,1.011989 c -0.25098,0.556594 -0.36499,1.159791 -0.25335,1.340435 0.11815,0.191177 0.0944,0.261302 -0.057,0.167785 -0.35936,-0.222091 -2.37869,4.418161 -2.61261,6.003555 -0.12906,0.874699 -0.10163,1.23921 0.0846,1.124114 0.16768,-0.10363 0.22454,0.02492 0.14521,0.328295 -0.18535,0.708768 0.55622,2.004544 1.60499,2.804482 0.49315,0.376145 1.9203,1.096674 3.17145,1.601183 2.47034,0.99612 4.06334,1.15017 5.2474,0.50745 z m -8.91618,-3.026729 c -0.0927,-0.149981 0.0135,-0.194336 0.24896,-0.103983 0.45837,0.175892 0.54224,0.365537 0.16165,0.365537 -0.13693,0 -0.32171,-0.1177 -0.41061,-0.261554 z m 4.09917,-18.155429 c 0,-0.218977 0.51374,-0.342807 0.63153,-0.152223 0.0764,0.123643 -0.0344,0.224804 -0.2463,0.224804 -0.21188,0 -0.38523,-0.03266 -0.38523,-0.07258 z m -5.32542,-0.56683 c -0.32911,-0.419645 -0.31975,-0.429003 0.0999,-0.0999 0.25467,0.199721 0.46303,0.40808 0.46303,0.463021 0,0.217762 -0.21728,0.0776 -0.56292,-0.363125 z M 67.822,76.886661 c -0.0749,-0.121269 0.0319,-0.220488 0.23733,-0.220488 0.20548,0 0.31228,0.09922 0.23733,0.220488 -0.0749,0.121267 -0.18174,0.220485 -0.23733,0.220485 -0.0556,0 -0.16238,-0.09922 -0.23733,-0.220485 z m 5.13212,-27.693055 c 0,-0.04162 0.15875,-0.136594 0.35278,-0.21105 0.19403,-0.07446 0.35278,0.0205 0.35278,0.21105 0,0.190534 -0.15875,0.285507 -0.35278,0.21105 -0.19403,-0.07446 -0.35278,-0.169428 -0.35278,-0.21105 z"
         id="path925" /></g><text
       xml:space="preserve"
       style="font-size:74.7889px;line-height:1.25;font-family:sans-serif;stroke-width:0.264583"
       x="129.77025"
       y="72.016624"
       id="text1"><tspan
         sodipodi:role="line"
         id="tspan1"
         style="font-style:normal;font-variant:normal;font-weight:bold;font-stretch:normal;font-size:74.7889px;font-family:Philosopher;-inkscape-font-specification:'Philosopher Bold';stroke-width:0.264583"
         x="129.77025"
         y="72.016624">YouKon</tspan></text><rect
       style="fill:#99cc33;stroke-width:20;stroke-linecap:round"
       id="rect1"
       width="256"
       height="39.207966"
       x="-4.7578293e-08"
       y="-59.538025"
       ry="18.514874" /></g></svg>
