<?xml version="1.0" encoding="UTF-8" standalone="no"?>
<svg
   xmlns:dc="http://purl.org/dc/elements/1.1/"
   xmlns:cc="http://creativecommons.org/ns#"
   xmlns:rdf="http://www.w3.org/1999/02/22-rdf-syntax-ns#"
   xmlns:svg="http://www.w3.org/2000/svg"
   xmlns="http://www.w3.org/2000/svg"
   xmlns:sodipodi="http://sodipodi.sourceforge.net/DTD/sodipodi-0.dtd"
   xmlns:inkscape="http://www.inkscape.org/namespaces/inkscape"
   width="512"
   height="512"
   viewBox="0 0 135.46667 135.46667"
   version="1.1"
   id="svg8"
   inkscape:version="1.0.1 (c497b03c, 2020-09-10)"
   sodipodi:docname="noImageIcons.svg"
   inkscape:export-filename="/Users/radcli14/Documents/code.nosync/youkon/assets/noImageIcons/noImageIcons1.png"
   inkscape:export-xdpi="48.000004"
   inkscape:export-ydpi="48.000004">
  <defs
     id="defs2" />
  <sodipodi:namedview
     id="base"
     pagecolor="#ffffff"
     bordercolor="#666666"
     borderopacity="1.0"
     inkscape:pageopacity="0.0"
     inkscape:pageshadow="2"
     inkscape:zoom="0.35"
     inkscape:cx="-150"
     inkscape:cy="560"
     inkscape:document-units="mm"
     inkscape:current-layer="layer1"
     inkscape:document-rotation="0"
     showgrid="false"
     units="px"
     inkscape:window-width="1605"
     inkscape:window-height="933"
     inkscape:window-x="0"
     inkscape:window-y="25"
     inkscape:window-maximized="0" />
  <metadata
     id="metadata5">
    <rdf:RDF>
      <cc:Work
         rdf:about="">
        <dc:format>image/svg+xml</dc:format>
        <dc:type
           rdf:resource="http://purl.org/dc/dcmitype/StillImage" />
        <dc:title />
      </cc:Work>
    </rdf:RDF>
  </metadata>
  <g
     inkscape:label="Layer 1"
     inkscape:groupmode="layer"
     id="layer1">
    <path
       style="fill:#000000;stroke-width:0.365417"
       d="m -31.069637,380.16205 c 0,-0.56843 0.207072,-0.91355 0.548119,-0.91355 0.341057,0 0.548129,0.34512 0.548129,0.91355 0,0.56842 -0.207072,0.91354 -0.548129,0.91354 -0.341047,0 -0.548119,-0.34512 -0.548119,-0.91354 z m 53.709503,-47.04746 c -4.352529,-4.27081 -8.198414,-8.30725 -8.546421,-8.96985 -1.157942,-2.20473 -0.745351,-2.81971 7.022894,-10.46778 5.715752,-5.62734 7.087986,-7.16247 6.758302,-7.56053 -0.833158,-1.00596 -2.765754,-6.44747 -3.616594,-10.18304 -1.842956,-8.09144 -0.718057,-16.11008 3.40889,-24.29958 3.046329,-6.04514 9.095245,-12.33939 14.749924,-15.34818 l 3.433812,-1.82709 -6.12074,-0.10016 c -3.3664,-0.0551 -8.856248,-0.0551 -12.199653,0 l -6.078902,0.10016 -0.05107,4.93314 c -0.04112,3.97622 -0.177986,5.16909 -0.705575,6.14952 -1.263565,2.34812 -4.579044,2.83711 -6.725321,0.99191 l -1.006335,-0.86517 -0.107033,-11.06378 c -0.07116,-7.36202 0.02569,-11.38413 0.289556,-12.02122 0.53978,-1.30315 2.174079,-2.19295 4.027797,-2.19295 1.301238,0 1.759292,0.21967 2.958304,1.41868 1.125086,1.12508 1.418681,1.69225 1.418681,2.74062 v 1.32196 h 35.62817 35.628169 v -7.3265 c 0,-8.24886 0.17,-8.95989 2.394628,-10.01554 1.634647,-0.77569 3.402837,-0.5192 4.820921,0.69932 0.99707,0.85677 1.00742,0.91207 1.12522,6.00823 0.1174,5.07903 0.13114,5.15312 1.09625,5.91132 0.53755,0.4223 5.20074,4.79698 10.36265,9.72152 5.83015,5.56205 9.52805,9.36324 9.76217,10.03485 0.20729,0.59463 0.28032,1.56403 0.16228,2.15421 -0.21842,1.09212 -1.73968,2.91052 -2.43492,2.91052 -0.21055,0 -4.54573,4.14753 -9.63372,9.21674 l -9.25089,9.21673 v 21.66102 21.66102 l 2.64928,10e-4 c 3.35273,0.002 4.78734,0.76671 5.4242,2.89235 0.59931,2.00032 -0.12807,3.92396 -1.8709,4.94782 -1.24403,0.73083 -1.67891,0.74334 -21.717073,0.62469 -22.307585,-0.13209 -21.920144,-0.0944 -23.030821,-2.24218 -0.709034,-1.37112 -0.703213,-2.68364 0.01813,-4.07849 1.067121,-2.06368 1.701037,-2.14565 16.590466,-2.14565 h 13.532174 v -8.25153 -8.25152 l -2.466566,2.44356 c -4.91803,4.87214 -11.013039,8.07794 -17.320591,9.11015 l -1.333597,0.21824 -0.18503,-3.20707 c -0.101719,-1.76388 -0.296858,-3.63292 -0.433546,-4.15342 -0.237826,-0.90566 -0.125366,-0.99 2.614876,-1.96085 4.044152,-1.43283 5.835079,-2.40617 8.856258,-4.81322 4.57082,-3.64168 8.075534,-9.11779 9.537636,-14.90253 0.682528,-2.70038 0.73056,-4.10019 0.73056,-21.28931 v -18.39884 l -16.33007,0.0951 -16.330069,0.0951 -0.922301,2.92334 c -0.507266,1.60784 -0.930827,2.95317 -0.941268,2.98962 -0.01046,0.0365 -1.623257,0.39402 -3.584038,0.79459 -10.801295,2.20656 -19.247117,10.49278 -21.842312,21.42957 -1.091783,4.60103 -0.88412,10.4152 0.525321,14.70805 0.544379,1.65808 1.12321,3.01468 1.286291,3.01468 0.163071,0 7.718619,-7.48543 16.790101,-16.6343 9.071473,-9.14888 16.884258,-16.78285 17.361734,-16.96438 0.983809,-0.37405 3.257369,0.0356 4.105826,0.73974 1.518524,1.26026 2.088644,4.24115 1.085175,5.67382 -0.494411,0.70587 -0.246185,1.0258 4.293653,5.53363 2.949955,2.92917 5.354869,5.00312 6.201865,5.34835 1.552365,0.63275 2.620501,2.53787 2.250171,4.01339 -0.120808,0.48134 -9.403154,9.99527 -21.109028,21.63569 -11.491374,11.4271 -22.873209,22.80335 -25.292966,25.28053 -5.228104,5.35218 -6.023983,5.92922 -8.182131,5.93243 -1.617125,0.002 -1.629244,-0.007 -9.532861,-7.76271 z m 18.564713,-11.07348 c 0.05738,-0.21176 -1.806619,-2.25232 -4.142214,-4.53457 l -4.246554,-4.14955 -4.445081,4.45629 -4.44509,4.45627 4.313219,4.24108 4.313209,4.24107 4.274086,-4.16277 c 2.350761,-2.28954 4.32104,-4.33605 4.378425,-4.54782 z m 11.167854,-10.82649 c 2.341925,-2.44821 4.258041,-4.54759 4.258041,-4.66529 0,-0.11771 -1.768946,-1.97748 -3.931009,-4.13283 l -3.931009,-3.91883 -4.747646,4.54329 -4.747646,4.54328 4.013357,4.04084 c 2.20735,2.22246 4.196617,4.04084 4.420615,4.04084 0.223987,0 2.323373,-2.00308 4.665297,-4.4513 z m 19.115712,-27.27783 -4.145996,-4.146 -6.372684,6.45015 -6.372684,6.45016 4.214246,3.96983 4.214246,3.96984 6.304434,-6.27399 6.304433,-6.27399 z m 34.495225,-16.41458 c 2.31686,-2.36151 4.48798,-4.62983 4.82472,-5.04071 0.594,-0.7248 0.45998,-0.89901 -4.49804,-5.84668 l -5.11028,-5.09961 0.0238,10.14033 c 0.0131,5.57718 0.14162,10.14032 0.28557,10.14032 0.14396,0 2.15734,-1.93214 4.47419,-4.29365 z"
       id="path915" />
    <path
       style="fill:#000000;stroke-width:0.148777"
       d="m 18.894379,121.32651 c -0.80397,-0.30938 -1.8603,-1.22089 -2.21923,-1.91499 -0.79106,-1.52973 -0.42223,-3.99675 0.76091,-5.08967 0.95256,-0.87991 1.58923,-1.17078 2.88814,-1.31944 0.77437,-0.0886 12.49377,-0.13049 30.63765,-0.10945 l 29.38359,0.0341 0.82819,0.38841 c 1.71351,0.80364 2.58855,2.15731 2.586,4.00053 -0.002,1.41826 -0.43146,2.44995 -1.36029,3.26754 -1.29088,1.13627 1.46371,1.0479 -32.39385,1.03926 -29.67778,-0.008 -30.37821,-0.0143 -31.11111,-0.29628 z m 1.17366,-15.65579 c -0.88223,-0.18329 -1.9303,-1.07454 -2.45065,-2.08396 -0.28482,-0.55253 -0.29009,-1.16872 -0.3004,-35.137133 -0.01,-31.66331 0.0101,-34.6366 0.23348,-35.30928 0.33087,-0.99615 1.099,-1.85055 2.05002,-2.28027 l 0.78756,-0.35586 29.60117,-0.0386 c 33.0091,-0.0431 30.4318,-0.12345 31.66492,0.98719 1.17343,1.05689 1.17309,1.05465 1.15292,7.70849 l -0.0178,5.88047 -0.3613,0.713 c -0.68382,1.34945 -2.04886,2.0821 -3.87932,2.0821 -1.70558,0 -3.17111,-0.76259 -3.8244,-1.99002 -0.30102,-0.56556 -0.33062,-0.86108 -0.37821,-3.77512 l -0.0516,-3.16152 h -24.20082 -24.20077 v 29.16042 29.16042 h 24.20505 c 23.74129,0 24.2145,-0.006 24.69739,-0.29048 0.66506,-0.3924 2.48099,-0.65627 3.82352,-0.5556 2.02442,0.1518 3.83713,1.40529 4.39348,3.03811 0.29977,0.879753 0.30048,2.589683 0.002,3.596433 -0.31229,1.05158 -1.49908,2.29418 -2.42633,2.54042 -0.75467,0.20042 -59.56975,0.30812 -60.5194,0.11083 z m 73.56895,-0.72212 c -0.73796,-0.20764 -1.59473,-0.97148 -2.44152,-2.1767 -0.38767,-0.55175 -1.08495,-1.47183 -1.54953,-2.04462 -0.46456,-0.5728 -1.75574,-2.223173 -2.86927,-3.667503 -1.11353,-1.44432 -2.44702,-3.15577 -2.96331,-3.8032 -0.51628,-0.64743 -1.37388,-1.73795 -1.90575,-2.42336 -0.53189,-0.68542 -1.25699,-1.58503 -1.61136,-1.99913 -1.07334,-1.25427 -1.81886,-2.63207 -1.90998,-3.52986 -0.14435,-1.42227 0.83347,-3.64445 1.99272,-4.52866 1.48118,-1.12975 3.71329,-1.44675 5.17367,-0.73474 0.9965,0.48584 1.30886,0.78074 2.76459,2.60996 0.68376,0.85919 1.93618,2.39904 2.78317,3.42189 0.84698,1.02284 2.02067,2.44185 2.60821,3.15334 0.58753,0.71149 1.11078,1.2973 1.16277,1.3018 0.1263,0.011 1.53423,-1.5024 3.17858,-3.41655 1.21453,-1.4138 2.278921,-2.60712 7.362451,-8.25431 1.68499,-1.87182 3.72564,-4.22279 3.71561,-4.28065 -0.003,-0.0187 -2.15319,-2.20978 -4.77768,-4.86917 -2.62449,-2.65941 -4.963111,-5.11227 -5.196951,-5.45082 -0.57475,-0.83213 -0.76352,-1.75334 -0.59831,-2.91991 0.24177,-1.70717 0.90115,-2.70671 2.247271,-3.40657 0.5404,-0.28096 0.9013,-0.34808 1.87157,-0.34808 1.66267,0 1.03744,-0.44199 8.84042,6.24934 1.59564,1.36832 4.00584,3.43372 5.356,4.58978 2.85828,2.44739 3.59539,3.17918 3.94555,3.91709 0.38169,0.80434 0.34815,1.81327 -0.0836,2.51348 -0.1979,0.32099 -1.80057,2.13134 -3.56149,4.023 -1.76091,1.89165 -3.86583,4.16795 -4.67757,5.05844 -3.13358,3.43752 -7.43346,8.10589 -9.02815,9.80183 -0.46165,0.49097 -1.73917,1.87811 -2.83892,3.08253 l -1.999571,2.18987 0.009,1.306413 c 0.008,1.10772 -0.0494,1.43087 -0.37614,2.12469 -0.21195,0.45005 -0.57216,1.03915 -0.80046,1.30912 -0.84539,0.99963 -2.59013,1.54797 -3.82228,1.20126 z m -43.93975,-9.658573 c -0.32731,-0.0489 -1.08362,-0.26784 -1.6807,-0.48663 -1.19909,-0.43938 -1.54265,-0.74426 -3.04854,-2.70523 -0.50271,-0.65462 -1.58583,-1.99888 -2.40694,-2.98723 -0.82111,-0.98835 -2.20314,-2.69558 -3.07119,-3.79383 -0.86806,-1.09825 -2.06073,-2.52735 -2.6504,-3.17578 -1.33149,-1.46418 -1.55723,-1.88346 -1.54783,-2.87491 0.0151,-1.59915 1.55355,-3.81215 3.17289,-4.56423 0.97093,-0.45094 1.35835,-0.46898 2.16861,-0.10098 0.8534,0.3876 1.1243,0.69093 5.32883,5.96669 1.14123,1.43199 2.62076,3.23964 3.28784,4.017 0.66709,0.77736 1.2813,1.53708 1.36491,1.68826 0.13406,0.24237 0.30868,0.0998 1.477,-1.20608 0.72873,-0.81452 2.42964,-2.67299 3.7798,-4.12993 1.35015,-1.45694 3.12158,-3.39135 3.9365,-4.2987 1.28143,-1.42675 8.65492,-9.4339 11.10713,-12.06164 0.45945,-0.49234 1.45909,-1.59814 2.22141,-2.45733 2.14812,-2.4211 3.84116,-4.29096 4.91685,-5.43039 0.54075,-0.57279 1.6459,-1.75741 2.45589,-2.63248 0.80998,-0.87507 2.57737,-2.78328 3.92752,-4.24045 1.35016,-1.45718 2.68373,-2.91709 2.96349,-3.24424 0.49799,-0.58236 1.71944,-1.90874 5.61707,-6.0996 2.12262,-2.28231 4.36615,-4.74598 7.115491,-7.81365 0.98193,-1.09564 3.19128,-3.50867 4.90966,-5.36231 4.80153,-5.17946 5.85298,-6.33661 7.29185,-8.02485 2.77326,-3.25389 3.63455,-3.86686 5.42864,-3.8635 2.83012,0.005 4.92586,2.68235 4.08669,5.22024 -0.44346,1.34115 -0.7615,1.7473 -4.60741,5.88382 -0.98193,1.05613 -3.0239,3.28552 -4.53771,4.95419 -5.32072,5.86502 -10.22783,11.22092 -13.687551,14.93937 -1.59565,1.71497 -3.67109,3.96927 -4.61211,5.00955 -0.94102,1.04028 -2.84909,3.12636 -4.24017,4.63575 -1.39106,1.50938 -3.39957,3.70679 -4.46333,4.88315 -1.06376,1.17635 -3.23404,3.54784 -4.82286,5.26997 -3.44758,3.73686 -5.66162,6.14308 -7.67446,8.34065 -0.81827,0.89337 -2.76026,2.99903 -4.31552,4.67923 -8.54125,9.22741 -12.39315,13.54538 -13.01707,14.5921 l -0.52072,0.8736 -1.53021,0.006 c -1.17177,0.005 -1.61912,0.0643 -1.90978,0.25478 -0.47217,0.30938 -1.4306,0.45639 -2.21357,0.33954 z m 46.86497,-12.69895 c -0.66459,-0.31705 -1.08285,-0.72895 -2.73425,-2.69268 -0.82576,-0.98193 -1.92893,-2.26258 -2.4515,-2.8459 -1.25721,-1.40337 -1.54494,-2.14592 -1.32622,-3.42275 0.22996,-1.34254 0.77234,-2.18883 1.84856,-2.88443 1.42087,-0.91836 2.9701,-1.09922 4.24275,-0.49531 0.57982,0.27515 4.702351,4.47172 5.046411,5.13705 0.21851,0.42255 0.21693,0.57397 -0.0197,1.88806 -0.14149,0.78576 -0.37671,1.77589 -0.52273,2.2003 -0.35387,1.02857 -1.186131,2.30587 -1.814941,2.78549 -0.62993,0.48047 -1.64399,0.62807 -2.26841,0.33017 z m -66.42923,-6.65325 c -0.20457,-0.0813 -0.56219,-0.32815 -0.79471,-0.54848 -1.18487,-1.12277 -1.42005,-2.92797 -0.60461,-4.64077 1.05141,-2.20845 2.99856,-3.31028 4.88221,-2.76268 0.92622,0.26926 1.93695,0.98167 2.42933,1.71231 0.63734,0.94577 0.3684,2.35233 -0.73498,3.84389 -0.6399,0.86503 -1.99723,2.01189 -2.77777,2.34705 -0.56852,0.24411 -1.84288,0.26997 -2.39947,0.0487 z m 18.34702,-6.08747 c -0.42401,-0.0758 -1.41212,-0.34324 -2.19581,-0.59429 -2.632,-0.8431 -5.40233,-3.06264 -7.167,-5.74209 -0.98519,-1.49588 -1.30155,-2.22455 -1.75904,-4.0515 -0.50128,-2.00179 -0.57709,-2.91973 -0.3785,-4.58296 0.29716,-2.48885 0.97241,-4.21275 2.38847,-6.09768 0.89704,-1.19407 1.29965,-1.5629 2.25299,-2.06396 0.85859,-0.45127 1.37155,-0.46427 2.04801,-0.0519 0.65929,0.40191 0.83212,0.6419 1.05744,1.46839 0.39384,1.4446 1.37496,2.82677 2.00654,2.82677 0.30893,0 0.27516,0.0778 -0.40564,0.93424 -2.19459,2.76088 -2.1075,6.07933 0.22469,8.56112 1.59206,1.69418 3.89874,2.16691 6.33259,1.29779 1.34005,-0.47852 2.75917,-1.92116 3.29958,-3.35427 0.70129,-1.8597 0.51168,-3.71947 -0.60581,-5.94205 -0.32981,-0.65597 -0.59966,-1.25578 -0.59966,-1.33293 0,-0.0771 0.18516,-0.18093 0.41148,-0.23063 0.90515,-0.19881 1.7984,-1.45894 2.03754,-2.87444 0.13707,-0.81132 0.55785,-1.32624 1.25424,-1.53489 0.73167,-0.21921 1.27633,0.0507 2.37696,1.17807 1.65408,1.69421 2.46819,3.13652 3.24719,5.75282 0.37319,1.25339 0.37572,4.66703 0.005,6.0255 -0.71662,2.62221 -1.76977,4.4941 -3.58777,6.37693 -2.56688,2.65844 -5.70479,4.01296 -9.53794,4.1172 -1.06376,0.0289 -2.28102,-0.009 -2.70502,-0.0853 z m -29.51886,-46.94176 c -0.9435,-0.29064 -1.95258,-1.2191 -2.36375,-2.17492 -0.27553,-0.64048 -0.32356,-0.96883 -0.26742,-1.82813 0.0856,-1.30977 0.45215,-2.05212 1.46151,-2.95962 1.38988,-1.24961 -1.45471,-1.14919 32.43932,-1.14524 33.13138,0.004 30.70956,-0.0644 32.02462,0.90269 0.74017,0.54432 1.39556,1.48224 1.52761,2.18611 0.15554,0.82912 -0.0245,2.30683 -0.36166,2.96764 -0.41227,0.80811 -1.44806,1.70056 -2.3482,2.02321 -0.68498,0.24554 -2.51053,0.26021 -31.07837,0.24976 -25.71615,-0.009 -30.45494,-0.0432 -31.03366,-0.2215 z"
       id="path1095" />
    <path
       style="fill:#000000;stroke-width:0.166916"
       d="m 199.04213,154.52489 c -0.65637,-0.19669 -1.1008,-0.62641 -1.4625,-1.41408 -0.29506,-0.64256 -0.30673,-2.35334 -0.31026,-45.5018 l -0.004,-44.834135 0.37889,-0.567164 c 0.67102,-1.004455 1.20118,-1.150818 4.16959,-1.151111 l 2.62893,-2.6e-4 v -3.805668 -3.805669 l 0.44227,-0.682071 c 0.79974,-1.233398 0.71654,-1.221295 8.36825,-1.217169 7.81275,0.0042 7.81439,0.0045 8.61624,1.372727 0.4312,0.735783 0.43332,0.75746 0.43332,4.438623 v 3.699227 h 22.25995 22.25996 l 4.83865,-4.882308 c 2.66125,-2.68527 5.9955,-6.10387 7.40945,-7.59689 1.69103,-1.785605 2.8163,-2.834484 3.28814,-3.064956 1.0372,-0.506619 2.71116,-0.516468 3.71478,-0.02186 1.07008,0.527367 17.50366,16.840421 18.03512,17.902843 0.29089,0.581531 0.3785,1.052624 0.38803,2.086457 0.0187,2.033544 -0.39297,2.767052 -3.09699,5.51749 -2.06505,2.100506 -2.20476,2.284274 -2.32765,3.061551 -0.0719,0.454803 -0.13697,18.302978 -0.14459,39.662613 l -0.0139,38.8357 -0.44341,0.75663 c -0.30549,0.52128 -0.65537,0.85289 -1.12483,1.0661 -0.65871,0.29917 -2.29949,0.30912 -49.25411,0.2988 -26.715,-0.006 -48.78735,-0.075 -49.04967,-0.15362 z m 25.16414,-7.38775 c -0.53521,-0.57025 -4.54364,-4.66076 -8.90761,-9.09001 l -7.9345,-8.05319 -1.58571,-3.3e-4 -1.5857,-3.3e-4 -0.0655,9.09935 -0.0655,9.09936 10.55878,-0.009 10.55878,-0.009 -0.97309,-1.03682 z m 22.82942,-1.99659 c 0.0498,-2.74038 0.0915,-3.11327 0.41526,-3.7139 0.51762,-0.96026 1.20054,-1.54304 2.23727,-1.90918 1.98491,-0.701 4.01854,-6.9e-4 4.86886,1.67675 0.44031,0.86859 0.45784,1.00527 0.50075,3.90459 l 0.0445,3.0045 6.96876,0.0203 6.96877,0.0203 0.004,-3.94283 c 0.003,-3.51209 0.0383,-4.01913 0.32072,-4.64119 0.95173,-2.09624 4.19012,-2.29539 5.48697,-0.33743 l 0.44801,0.67639 0.0835,4.10223 0.0835,4.10224 8.3041,0.0363 8.3041,0.0363 v -9.09154 -9.09149 l -6.13418,-0.005 c -3.3738,-0.003 -9.27013,-0.0486 -13.10295,-0.10127 -5.79972,-0.0797 -6.97088,-0.0578 -6.98132,0.13066 -0.007,0.12455 -0.002,1.22368 0.0115,2.44251 0.0331,3.04386 -0.35459,4.09984 -1.73504,4.72677 -1.88845,0.85763 -4.09601,-0.12215 -4.61461,-2.04809 -0.12068,-0.44817 -0.14307,-1.44652 -0.0653,-2.91345 l 0.11826,-2.23165 -1.81688,-0.016 c -0.99928,-0.009 -4.44581,-0.0276 -7.65895,-0.0417 l -5.84208,-0.0257 -1.00932,0.91804 c -0.55512,0.50492 -2.42816,2.38273 -4.16231,4.17291 -1.73415,1.79018 -4.4382,4.56934 -6.00901,6.17591 -5.99602,6.13255 -6.48849,6.66452 -6.24745,6.74855 0.52252,0.18216 1.77955,0.20959 10.7799,0.23523 l 9.3758,0.0267 z M 232.06971,132.9586 c 1.83241,-1.86066 5.77387,-5.86468 8.75883,-8.89781 2.98494,-3.03314 7.60579,-7.72767 10.26853,-10.43229 2.66276,-2.70462 8.14287,-8.29755 12.17804,-12.42873 4.03517,-4.131186 9.89358,-10.102749 13.0187,-13.270142 3.12512,-3.167391 8.08453,-8.275038 11.0209,-11.350324 2.93637,-3.075286 6.49295,-6.770689 7.9035,-8.212009 1.41056,-1.441319 2.53836,-2.680674 2.50622,-2.754123 -0.0321,-0.07345 -0.85699,-0.90643 -1.83302,-1.851069 l -1.77461,-1.717526 -0.42798,0.716027 c -0.70207,1.174598 -2.1816,2.69415 -3.1385,3.223403 -0.78365,0.433424 -1.06414,0.49582 -2.23164,0.496427 -2.06009,10e-4 -2.42322,-0.236896 -6.47692,-4.244516 -1.90983,-1.888123 -3.50235,-3.46063 -3.53894,-3.494463 -0.16236,-0.15014 -19.01248,19.742001 -19.45188,20.527159 -0.11188,0.199927 0.52939,0.905933 2.83232,3.118247 1.63732,1.572893 3.21706,3.219418 3.51053,3.658945 0.48021,0.71918 0.52307,0.882645 0.42833,1.633723 -0.14357,1.138205 -0.7409,1.988997 -1.75851,2.504658 -1.24401,0.630388 -2.10101,0.694819 -2.93702,0.220811 -0.37699,-0.213751 -1.95436,-1.703105 -3.50525,-3.309677 -1.55089,-1.606571 -2.90441,-2.975913 -3.00783,-3.042982 -0.11365,-0.07371 -0.87294,0.586038 -1.91954,1.667873 -0.95233,0.984401 -2.7113,2.804417 -3.90881,4.044482 -1.19752,1.240066 -4.8048,4.958713 -8.01619,8.263661 l -5.83888,6.008995 3.78096,3.67217 c 2.07953,2.01969 3.88374,3.85183 4.00936,4.07144 0.32998,0.57688 0.23087,1.77602 -0.22047,2.66754 -0.5264,1.03976 -1.74993,1.6903 -3.17909,1.6903 -0.54039,0 -1.1466,-0.0874 -1.34713,-0.19414 -0.20052,-0.10677 -1.94673,-1.80846 -3.88047,-3.78153 l -3.51589,-3.5874 -5.07709,5.1586 c -2.7924,2.83722 -6.76857,6.86957 -8.83593,8.96076 l -3.75884,3.80217 6.50974,6.50618 6.50974,6.50618 1.50654,-1.584 c 0.82861,-0.87121 3.00579,-3.10636 4.83819,-4.96702 z m -21.99197,-12.81565 3.37206,-3.41994 0.003,-10.73104 c 0.003,-10.31781 0.016,-10.755684 0.32992,-11.371058 0.45638,-0.894593 1.18558,-1.455137 2.06437,-1.586919 0.87946,-0.131883 1.10655,-0.08709 3.60975,0.712056 1.49709,0.477945 2.04861,0.740161 2.54548,1.210233 l 0.63429,0.600094 0.004,5.993114 0.004,5.99311 1.53368,-1.58571 c 1.6446,-1.70041 10.98032,-11.262857 22.07338,-22.609448 3.76544,-3.851512 8.04807,-8.18576 9.51693,-9.631662 2.67042,-2.628673 2.67063,-2.628937 2.28844,-2.901186 -1.05006,-0.748003 -1.53731,-1.643654 -1.53731,-2.825855 v -0.756487 h -10.58556 c -5.82206,0 -10.70437,-0.04559 -10.84958,-0.101316 -0.23782,-0.09126 -0.2643,0.517501 -0.26677,6.134183 -0.002,6.149638 -0.008,6.244598 -0.37698,6.896224 -0.20583,0.363397 -0.68784,0.881137 -1.07114,1.150532 -0.91575,0.643612 -2.15297,0.67717 -3.33269,0.0904 -0.64541,-0.321012 -0.89479,-0.577374 -1.27053,-1.306113 l -0.4675,-0.906706 0.0476,-5.978692 0.0476,-5.978691 -11.97627,8.9e-5 c -6.58694,5.1e-5 -12.03259,1.23e-4 -12.10144,1.61e-4 -0.11537,6.5e-5 -0.19975,56.022487 -0.0848,56.283087 0.0281,0.0637 0.59589,0.10038 1.26179,0.0816 l 1.21073,-0.0341 z m 81.99656,-17.74694 c 0,-11.689729 -0.0407,-21.294714 -0.0904,-21.34442 -0.0497,-0.04971 -0.74063,0.595011 -1.53538,1.432702 -0.79476,0.83769 -7.23431,7.4194 -14.31013,14.626021 -15.22675,15.508247 -17.33936,17.682767 -21.60857,22.241847 -1.7837,1.90482 -3.30209,3.4633 -3.37418,3.4633 -0.0721,0 -0.21149,0.15023 -0.30976,0.33384 -0.17658,0.32994 -0.12693,0.33383 4.25722,0.33383 h 4.43587 l -0.0259,-1.64533 c -0.0199,-1.26375 0.0421,-1.78854 0.26715,-2.2628 1.00837,-2.12499 4.60571,-2.3749 5.6301,-0.39112 0.33278,0.64444 0.41569,1.23822 0.44244,3.16871 l 0.0156,1.12283 2.96277,0.0497 c 1.62952,0.0273 7.52585,0.0666 13.10295,0.0873 l 10.14019,0.0376 z m -76.81684,-42.883647 0.0483,-1.46052 h -2.09296 -2.09295 v 1.406552 c 0,1.666452 -0.13902,1.574864 2.33683,1.539511 l 1.75262,-0.02503 z m 73.59718,-0.867409 0.75286,-0.742221 -0.62775,-0.766089 c -0.34527,-0.421347 -1.6042,-1.701343 -2.79764,-2.844436 l -2.16989,-2.078349 -0.23588,0.456973 c -0.12974,0.251335 -0.43655,0.667268 -0.6818,0.924294 l -0.44593,0.467323 2.66813,2.656946 c 1.46746,1.461319 2.69442,2.659383 2.72658,2.662362 0.0322,0.003 0.39725,-0.328582 0.81132,-0.736803 z"
       id="path1241" />
    <path
       style="fill:#000000;stroke-width:0.151781"
       d="m 180.87243,13.395087 c -1.41323,-0.20211 -2.77551,-1.38094 -3.13389,-2.71186 -0.10102,-0.3751 -0.13927,-17.9224099 -0.11339,-52.011785 l 0.039,-51.445722 0.45894,-0.742306 c 0.25241,-0.408267 0.74424,-0.942828 1.09295,-1.187913 0.56494,-0.397047 0.81267,-0.459307 2.27314,-0.571289 0.90152,-0.06912 24.2812,-0.109769 51.95482,-0.09032 l 50.31574,0.03536 0.62479,0.334255 c 0.96636,0.51697 1.52025,1.049487 1.90572,1.832181 l 0.35335,0.717422 0.0397,50.543419 c 0.0269,34.2223281 -0.0109,50.8782881 -0.11716,51.5804981 -0.18866,1.2469999 -0.54128,1.9816999 -1.30907,2.7274499 -1.14768,1.11474 3.63007,1.01907 -52.8234,1.05768 -27.96703,0.0191 -51.16963,-0.011 -51.5613,-0.0671 z m 100.48928,-54.274035 0.0305,-49.215325 -49.20781,2.1e-5 -49.20778,2.1e-5 0.0331,14.305429 c 0.0182,7.867986 0.0353,30.032251 0.038,49.25393 l 0.005,34.9484791 49.13939,-0.0386 49.13943,-0.0386 z M 217.89585,3.7782571 c -0.5673,-0.21534 -6.59827,-6.19563 -26.96434,-26.7377101 -4.11431,-4.149869 -4.51933,-4.682155 -4.6576,-6.121152 -0.0536,-0.557405 0.0241,-0.923748 0.34975,-1.649335 0.38495,-0.857771 1.02402,-1.520956 7.94802,-8.247989 4.14117,-4.023371 8.793,-8.548449 10.33738,-10.0557 1.54438,-1.50725 3.49099,-3.388944 4.32578,-4.181535 0.8348,-0.792586 3.36197,-3.216145 5.61594,-5.385685 2.25396,-2.169535 4.84943,-4.660947 5.76771,-5.536468 1.63084,-1.554899 3.65039,-3.504824 8.72684,-8.425985 1.37776,-1.335598 4.50335,-4.409184 6.94576,-6.83019 3.73296,-3.700247 4.55548,-4.443159 5.16059,-4.661136 0.9163,-0.330084 1.48877,-0.330693 2.18633,-0.0023 0.34321,0.16156 2.71507,2.467836 6.20084,6.029354 3.39601,3.469818 5.74459,5.755905 5.89492,5.738073 0.13745,-0.0163 0.61491,-0.105944 1.06104,-0.1992 1.82439,-0.381362 4.52141,0.532788 6.03376,2.045136 1.49859,1.49859 2.06878,3.183467 2.08201,6.152259 l 0.008,1.89728 3.65266,3.716231 c 2.00896,2.043932 4.08765,4.127141 4.61931,4.629355 1.18498,1.119346 1.83918,2.20154 1.83655,3.038057 -0.003,1.078528 -0.50437,1.860645 -2.31894,3.620223 -0.93418,0.90587 -3.64513,3.573569 -6.02432,5.928179 -2.37918,2.354622 -6.6139,6.492812 -9.41048,9.195992 -5.31786,5.140249 -5.58266,5.396848 -14.26465,13.822777 -5.2632,5.107969 -14.34252,14.0233791 -19.514,19.16173914 -1.42311,1.41399996 -2.83951,2.70020996 -3.14755,2.85822996 -0.77286,0.3965 -1.7307,0.47523 -2.45176,0.20153 z m 4.85731,-9.98278 3.54777,-3.536687 -2.12317,-2.2209831 c -1.27345,-1.332103 -2.24218,-2.483183 -2.4205,-2.876108 -0.39359,-0.867288 -0.38096,-1.728261 0.0375,-2.55817 0.64302,-1.275146 2.39134,-1.748459 3.66737,-0.992846 0.34125,0.202079 1.20102,1.029814 1.9106,1.83942 0.70958,0.809607 1.6516,1.790262 2.09337,2.179241 l 0.80322,0.707225 2.35412,-2.370788 2.35411,-2.370788 -3.17801,-3.174772 c -2.59036,-2.587736 -3.20911,-3.286815 -3.34621,-3.780682 -0.62521,-2.25205 0.83294,-4.221175 2.9492,-3.982646 0.91111,0.102693 1.34564,0.441022 3.36212,2.617824 0.92799,1.001761 2.26886,2.395272 2.97971,3.096686 l 1.29247,1.275295 3.88199,-3.778806 c 2.13511,-2.078346 3.88201,-3.827504 3.88201,-3.887028 0,-0.05952 -1.26558,-1.357657 -2.81239,-2.884751 -2.97104,-2.933156 -3.56246,-3.740038 -3.56246,-4.86026 0,-2.015185 2.17881,-3.310944 4.01225,-2.386122 0.37797,0.190652 1.73465,1.475969 3.50096,3.316795 l 2.88386,3.005518 4.06017,-4.036709 c 2.23309,-2.220189 4.06016,-4.088946 4.06016,-4.152795 0,-0.10864 -3.34516,-3.54459 -12.08021,-12.408049 -7.37096,-7.479302 -7.2692,-7.352792 -7.26347,-9.031029 0.002,-0.54501 0.10174,-1.09353 0.24882,-1.366038 0.13514,-0.250439 1.87087,-2.071846 3.85718,-4.047574 l 3.61145,-3.592229 -1.66215,-1.772171 c -0.91418,-0.974695 -2.00675,-2.152759 -2.42793,-2.617921 l -0.76579,-0.845746 -3.05089,3.022726 c -1.67798,1.662499 -4.0544,4.013104 -5.28093,5.223565 l -2.23005,2.200841 1.97083,1.897273 c 1.08395,1.043501 2.09011,2.134731 2.23591,2.424958 0.32825,0.653433 0.34386,1.907377 0.0312,2.51187 -0.58367,1.128678 -2.07129,1.769014 -3.32532,1.431337 -0.5156,-0.138832 -0.97872,-0.492622 -2.14798,-1.640925 -0.81986,-0.805161 -1.77128,-1.827385 -2.11427,-2.271607 -0.55797,-0.722668 -0.64076,-0.778583 -0.78653,-0.53119 -0.0896,0.152072 -1.01669,1.087064 -2.06019,2.077765 -1.04349,0.990701 -2.36032,2.281853 -2.92628,2.869228 l -1.02904,1.067956 0.34601,0.393293 c 0.19032,0.216305 1.17612,1.213248 2.1907,2.215416 1.01457,1.002174 1.96656,2.061187 2.11553,2.353365 0.3585,0.703123 0.34083,1.933547 -0.0385,2.682018 -0.36664,0.723413 -1.61744,1.417765 -2.54493,1.412763 -1.16214,-0.0062 -1.70829,-0.410199 -4.0191,-2.972481 l -2.17568,-2.412448 -3.614,3.614033 -3.61399,3.614036 1.50979,1.497189 c 1.97263,1.956166 2.34125,2.738639 1.9514,4.142435 -0.48588,1.749658 -2.80593,2.6225 -4.1963,1.578724 -0.24225,-0.181869 -1.11295,-1.053798 -1.93489,-1.937625 l -1.49444,-1.606961 -2.32917,2.365866 c -1.28105,1.301231 -2.32946,2.411329 -2.3298,2.466894 -2.9e-4,0.05553 0.88587,0.936019 1.96936,1.956574 2.31255,2.178242 2.65283,2.724663 2.55334,4.100063 -0.0817,1.129586 -0.40646,1.59937 -1.49541,2.163271 -0.66414,0.343911 -0.95464,0.411684 -1.47474,0.344055 -1.0103,-0.131364 -1.33826,-0.374345 -3.53297,-2.617538 l -2.05571,-2.101119 -2.42186,2.428509 c -1.33202,1.335685 -2.42186,2.481533 -2.42186,2.54634 0,0.111239 26.35106,26.5193851 26.4624,26.5197351 0.0288,10e-5 1.64886,-1.59134 3.60015,-3.53651 z m 41.00179,-39.7843331 c 0.0667,-0.11821 1.13753,-1.252009 2.37949,-2.519554 l 2.25811,-2.304628 -1.19564,-1.234823 c -0.65759,-0.67915 -2.20084,-2.260351 -3.42944,-3.513784 -2.6418,-2.695196 -2.94013,-3.077892 -3.25549,-4.176236 -0.13183,-0.459138 -0.26452,-0.862303 -0.29488,-0.895914 -0.0304,-0.03361 -0.19827,0.120785 -0.37315,0.343114 -0.45169,0.574244 -2.6813,1.617349 -3.67659,1.720075 -1.58664,0.163758 -3.4173,-0.696452 -3.98093,-1.870599 -0.64789,-1.349683 -0.37827,-3.066974 0.74315,-4.733406 l 0.48936,-0.7272 -1.04036,-1.243818 c -0.5722,-0.684106 -1.08797,-1.233711 -1.14616,-1.221348 -0.0582,0.01233 -1.22499,1.167951 -2.59294,2.567979 l -2.48716,2.545502 0.30021,0.381653 c 0.67111,0.853171 16.81345,17.09791 16.99014,17.09791 0.105,0 0.24552,-0.09672 0.31228,-0.214923 z"
       id="path1389" />
    <path
       style="fill:#000000;stroke-width:0.182001"
       d="m -113.93634,262.79704 c -0.7997,-0.35543 -1.51631,-1.09359 -1.91557,-1.9732 -0.32363,-0.71299 -0.35176,-1.23765 -0.35544,-6.62916 l -0.004,-5.8549 -0.95551,-0.3161 c -4.57297,-1.51281 -8.29024,-4.6816 -10.22995,-8.72051 -1.05744,-2.20184 -1.26422,-3.28082 -1.2734,-6.6447 -0.01,-3.57801 0.20971,-4.61716 1.57334,-7.44934 0.83926,-1.74313 1.0798,-2.06337 2.94224,-3.91716 1.78313,-1.77487 2.2372,-2.12138 3.75726,-2.86729 0.95095,-0.46665 2.28087,-1.03242 2.95537,-1.25727 l 1.22636,-0.40881 0.0476,-29.58772 0.0476,-29.58772 0.4935,-0.91001 c 0.27142,-0.5005 0.70092,-1.05679 0.95445,-1.2362 1.27116,-0.89957 -0.67272,-0.85709 39.024593,-0.85281 35.713352,0.004 37.086232,0.0163 37.787782,0.34178 0.85107,0.39488 1.80717,1.34902 2.08185,2.07758 0.12149,0.32224 0.19316,2.66899 0.19316,6.32453 v 5.81217 h 3.37606 c 2.69201,0 3.48648,0.0571 3.92106,0.28184 1.14067,0.58986 1.58846,2.18801 0.95624,3.41272 -0.16538,0.32035 -1.04651,1.36051 -1.95805,2.31147 -1.4137,1.4748 -2.41765,2.56691 -5.7413,6.24546 l -0.463,0.51244 -0.091,39.34573 c -0.0884,38.2372 -0.10077,39.3654 -0.43794,40.04446 -0.19082,0.38431 -0.67624,0.91666 -1.0787,1.18301 l -0.73175,0.48425 -37.778474,0.0391 c -31.152321,0.0322 -37.874221,-0.003 -38.324461,-0.20361 z m 23.349333,-14.71434 0.05324,-8.05321 -0.423676,0.455 c -0.233021,0.25025 -0.871234,0.951 -1.41825,1.55722 -2.887742,3.20028 -3.748633,4.17688 -3.987037,4.52289 -0.144349,0.20951 -0.318775,0.42187 -0.387612,0.47192 -0.06884,0.0501 -0.183288,0.59671 -0.254328,1.21478 -0.236158,2.05464 -1.682456,3.33524 -3.76678,3.33524 -0.8251,0 -1.14043,-0.0965 -1.74379,-0.53356 -0.40511,-0.29346 -0.97022,-0.83991 -1.25581,-1.21434 -0.46624,-0.61127 -0.51926,-0.82268 -0.51926,-2.07058 v -1.3898 l -1.001,0.58367 c -0.55055,0.32102 -1.59399,0.77626 -2.31875,1.01164 l -1.31774,0.42795 -0.002,1.54701 c -0.001,0.85086 -0.0558,2.59124 -0.12085,3.86752 l -0.11835,2.3205 9.264623,-3.6e-4 9.264624,-3.6e-4 0.05324,-8.05321 z m 15.871821,3.53626 c 0,-5.11362 0.123983,-5.81221 1.199058,-6.75613 0.895595,-0.78635 2.454854,-1.20839 3.423385,-0.9266 1.194692,0.34758 2.028729,0.9942 2.477142,1.92051 0.396196,0.81842 0.405352,0.95605 0.278535,4.18747 -0.07212,1.83769 -0.07311,3.96024 -0.0021,4.7168 l 0.128895,1.37554 h 4.528637 4.528637 v -4.73786 c 0,-5.26762 0.04519,-5.52278 1.150921,-6.4936 1.170093,-1.02735 2.58412,-1.21359 4.036097,-0.5316 1.973677,0.92704 2.09301,1.33277 2.09301,7.1162 v 4.64686 h 4.004014 4.00402 v -9.64603 -9.64604 h -2.603282 c -2.43785,0 -2.663535,-0.0301 -3.551653,-0.47259 -2.053863,-1.02349 -2.642438,-3.80514 -1.174309,-5.54991 0.798137,-0.94853 1.467124,-1.12766 4.553731,-1.21934 l 2.775513,-0.0824 v -14.14722 -14.14721 l -0.88352,0.0849 c -0.53341,0.0513 -1.308756,-0.0367 -1.956516,-0.22204 -0.987096,-0.28238 -1.233232,-0.47199 -3.074995,-2.36883 l -2.001968,-2.06188 -1.729006,1.93399 c -0.950955,1.0637 -2.176263,2.41209 -2.722905,2.99643 l -0.9939,1.06242 2.677403,2.5826 2.677409,2.58259 v 0.85237 c 0,1.05779 -0.244616,1.72628 -0.876087,2.39424 -0.82105,0.86848 -1.80212,1.26536 -3.127934,1.26536 -1.633659,0 -2.343431,-0.41068 -4.320871,-2.50012 -1.547351,-1.635 -2.049151,-2.01187 -2.049151,-1.53903 0,0.17449 -2.9759,3.49185 -4.685273,5.22289 -0.326013,0.33014 -0.592751,0.65907 -0.592751,0.73096 0,0.0719 0.954299,1.02829 2.120669,2.12534 1.166371,1.09704 2.271714,2.24232 2.456333,2.54505 0.451701,0.74069 0.445359,2.26356 -0.01321,3.16235 -0.720159,1.41163 -2.635167,2.202 -4.421191,1.82475 -0.890044,-0.18801 -1.121329,-0.36237 -3.106323,-2.34187 -1.923358,-1.91803 -2.167775,-2.10576 -2.36849,-1.8192 -0.123096,0.17575 -1.17065,1.33223 -2.327893,2.56997 -2.667896,2.85347 -3.44197,3.72221 -3.44197,3.86289 0,0.10841 3.136753,3.18894 3.945785,3.87507 1.968662,1.66958 1.722575,4.41187 -0.501097,5.58404 -0.856118,0.45128 -1.134234,0.50936 -2.087906,0.43601 -0.605125,-0.0466 -1.374275,-0.22635 -1.709223,-0.39956 -0.334948,-0.1732 -1.546808,-1.22162 -2.693024,-2.32981 l -2.08403,-2.01489 -0.483765,0.62123 c -0.266072,0.34167 -1.30277,1.50795 -2.303774,2.59172 -1.001004,1.08377 -1.833472,2.06709 -1.84993,2.18514 -0.01645,0.11805 0.793993,0.95175 1.800999,1.85264 2.643692,2.36514 2.928235,2.76029 3.019468,4.19307 0.06326,0.99354 8.95e-4,1.3279 -0.401308,2.14988 l -0.476221,0.97337 v 5.12338 5.12337 h 4.368017 4.368018 z m -35.802404,-10.32887 c 2.32435,-0.6023 4.06854,-1.89064 5.38797,-3.97981 1.26735,-2.00671 1.64627,-3.72863 1.3068,-5.93856 -0.52037,-3.38758 -2.83318,-6.19423 -5.97709,-7.25334 -1.65924,-0.55896 -4.50947,-0.53382 -6.12905,0.0541 -3.38249,1.22778 -5.93953,4.93764 -5.91176,8.57703 0.0247,3.23952 1.84824,6.25222 4.73131,7.81675 1.84314,1.00021 4.42939,1.28422 6.59182,0.72387 z m 15.851373,-8.17319 c 0.38833,-0.4023 1.329985,-1.42759 2.092566,-2.27845 0.762584,-0.85084 2.533318,-2.77756 3.934966,-4.28157 6.025804,-6.46587 7.081915,-7.61124 9.645262,-10.46049 1.485924,-1.65165 4.269824,-4.68196 6.186441,-6.73402 3.537704,-3.78771 7.300061,-7.92952 10.922695,-12.0243 1.101016,-1.24452 3.394225,-3.73845 5.096019,-5.54208 1.701794,-1.80363 3.954122,-4.21673 5.005178,-5.36244 1.051055,-1.14572 2.893808,-3.13562 4.095013,-4.42201 1.201205,-1.28639 2.826025,-3.0293 3.610712,-3.87313 l 1.42672,-1.53422 -33.132236,-0.0465 -33.132229,-0.0465 -0.0536,20.11108 c -0.0295,11.0611 -0.0246,20.21282 0.0108,20.33715 0.0354,0.12434 0.44494,0.34083 0.91001,0.48108 2.64235,0.79689 4.52516,1.9224 6.60186,3.94651 2.305874,2.24747 3.994964,5.27131 4.510235,8.07432 0.109186,0.59396 0.200124,2.19101 0.202083,3.54901 l 0.0036,2.46909 0.678941,-0.81558 c 0.373418,-0.44857 0.996665,-1.14472 1.384995,-1.547 z m 2.47896,-21.38022 c -0.822794,-0.43867 -1.500684,-1.17027 -2.023171,-2.18345 -0.509772,-0.98852 -0.586044,-2.96712 -0.138986,-3.60539 0.153338,-0.21891 1.169714,-1.32154 2.258614,-2.45027 7.914107,-8.2036 11.359949,-11.7825 13.098595,-13.60441 1.101105,-1.15383 2.32102,-2.38453 2.710929,-2.73488 l 0.708913,-0.63701 2.203097,-0.054 c 2.638517,-0.0647 3.234597,0.15399 3.886601,1.42551 0.805931,1.5717 0.4339,2.41773 -2.372825,5.39593 -4.830415,5.12555 -12.668317,13.50457 -13.498748,14.43068 -1.828714,2.03943 -3.661438,3.86051 -4.13947,4.11318 -0.675181,0.35689 -1.927917,0.31227 -2.693549,-0.0959 z m 49.413202,-20.30161 c 0,-1.55152 -0.0723,-2.82092 -0.16059,-2.82088 -0.23853,1.3e-4 -2.844305,2.58767 -2.830947,2.81113 0.0062,0.10559 0.542969,0.64243 1.19257,1.19298 0.649607,0.55055 1.261577,1.14433 1.359937,1.3195 0.0984,0.17518 0.23738,0.31845 0.30894,0.31837 0.0716,-7e-5 0.13009,-1.26957 0.13009,-2.8211 z m -44.202474,-22.01378 c 0.145024,-0.05 0.198714,-1.1748 0.182001,-3.81283 l -0.0237,-3.74188 -11.033255,-0.0487 -11.033247,-0.0487 -0.13032,3.76796 c -0.0717,2.07238 -0.09,3.83323 -0.0408,3.91301 0.0871,0.14104 21.668431,0.11283 22.07929,-0.0289 z m 44.150244,-3.6481 c 0.0287,-2.10211 0.0522,-3.83535 0.0522,-3.85165 0,-0.0163 -5.260795,-0.0572 -11.690641,-0.091 l -11.690633,-0.0614 0.04258,3.82202 c 0.03914,3.51539 0.06906,3.82931 0.372575,3.91301 0.181496,0.05 5.399606,0.091 11.595808,0.091 h 11.265831 z m -30.314963,2.77551 c -0.06315,-0.52553 -0.115481,-2.27867 -0.116348,-3.89588 l -0.0014,-2.94038 -3.185014,-0.0153 -3.185014,-0.0153 v 3.91123 3.91122 h 3.301362 3.301368 z"
       id="path1473" />
    <path
       style="fill:#000000;stroke-width:0.292707"
       d="m -143.70654,129.36764 c 0,-0.45531 0.16586,-0.73176 0.43906,-0.73176 0.27318,0 0.43905,0.27645 0.43905,0.73176 0,0.45533 -0.16587,0.73177 -0.43905,0.73177 -0.2732,0 -0.43906,-0.27644 -0.43906,-0.73177 z m 22.23405,-17.19647 c -0.61077,-0.41203 -1.0715,-1.02647 -1.23057,-1.64113 -0.13985,-0.5404 -0.21394,-3.67977 -0.16464,-6.97638 l 0.0896,-5.993823 0.95591,-0.85351 c 1.58112,-1.41176 3.77385,-1.03515 4.71761,0.81028 0.19658,0.38442 0.32696,2.3394 0.32696,4.902833 v 4.26349 h 48.003804 48.003805 v -5.2524 c 0,-5.130293 0.0165,-5.271483 0.70644,-6.073653 0.58657,-0.68195 0.93845,-0.82127 2.07427,-0.82127 1.80845,0 2.65273,0.92269 2.93872,3.21166 0.30318,2.426703 -0.0196,12.813253 -0.42145,13.564273 -0.86031,1.60749 2.28813,1.51819 -53.536669,1.51819 h -51.48753 z m 30.599403,-9.92913 c -0.321977,-0.17884 -1.573296,-1.26159 -2.780709,-2.406113 -3.358931,-3.18395 -8.487344,-7.88228 -13.069744,-11.973665 -2.27821,-2.034108 -4.41862,-4.049777 -4.75647,-4.479279 -0.87757,-1.115648 -0.79054,-2.326978 0.24133,-3.35885 1.1089,-1.108893 2.45183,-1.137941 4.00117,-0.08653 l 1.13327,0.769058 1.23983,-1.40897 c 0.77046,-0.875559 1.14417,-1.526855 0.98712,-1.720362 -0.60104,-0.740606 -1.74297,-3.081423 -2.30388,-4.72268 -2.90494,-8.500041 -2.60402,-19.17829 0.778,-27.608027 1.22397,-3.050758 4.00424,-8.094017 4.84827,-8.794499 0.25386,-0.210683 0.46157,-0.483693 0.46157,-0.606682 0,-0.122989 -1.95136,-0.154452 -4.33636,-0.06995 -4.81175,0.170551 -6.10075,-0.06729 -7.0746,-1.305336 -0.86545,-1.100231 -0.76343,-2.516693 0.2641,-3.666715 l 0.85409,-0.955918 7.81766,-0.05849 7.817655,-0.0585 1.410513,-1.189367 1.410512,-1.18936 0.08928,-6.315222 0.08928,-6.315214 0.821263,-0.705884 c 1.372485,-1.179653 3.46891,-0.820055 4.399071,0.754575 0.392479,0.66441 0.487437,1.626125 0.487437,4.936635 v 4.111472 l 2.122118,-1.005556 c 4.883165,-2.313874 11.303989,-3.549372 16.903782,-3.252611 4.976675,0.263732 8.032927,0.983719 12.753874,3.004554 0.172624,0.07388 1.403908,-1.122931 2.736178,-2.659606 l 2.422322,-2.793972 -0.906774,-1.032754 c -1.440764,-1.640943 -1.110819,-3.790812 0.714735,-4.657098 1.134524,-0.538372 1.819614,-0.558227 2.65256,-0.07688 0.635464,0.367201 5.068956,4.207303 9.461608,8.195245 1.380245,1.253076 4.485315,4.030049 6.900135,6.171045 5.16469,4.579031 6.29318,5.797714 6.29318,6.796073 0,1.078675 -0.72434,2.299247 -1.60171,2.698999 -1.56122,0.711342 -2.36889,0.454461 -4.42244,-1.406548 -1.06588,-0.965924 -2.02345,-1.744964 -2.12795,-1.731199 -0.10456,0.01378 -1.87019,1.890754 -3.92372,4.171069 -2.053525,2.280307 -5.873348,6.464866 -8.488488,9.299 -15.433205,16.72565 -22.883962,24.942051 -29.972745,33.052721 -1.473769,1.686228 -5.387879,6.152378 -8.698023,9.924776 l -6.018443,6.858912 1.307193,1.3975 c 1.052227,1.1249 1.307195,1.60522 1.307195,2.46252 0,2.468323 -2.291652,4.092283 -4.244239,3.007663 z m -1.262569,-12.876987 c 1.016391,-1.153405 3.495701,-3.952413 5.509585,-6.219992 2.013883,-2.267587 4.86566,-5.505919 6.337285,-7.196295 12.527815,-14.39006 26.730967,-30.01158 39.028146,-42.925597 4.413474,-4.634872 4.653239,-4.945327 4.171354,-5.401341 -1.851147,-1.751766 -7.20132,-6.409107 -7.362533,-6.409107 -0.272273,0 -6.518009,7.130622 -20.516778,23.423566 -5.374424,6.255221 -11.137437,12.671731 -18.001425,20.042731 -4.927979,5.291985 -15.292191,16.589477 -17.113658,18.654712 l -1.30753,1.482515 3.502826,3.313256 c 1.926554,1.822296 3.593258,3.317646 3.703787,3.322986 0.110528,0.005 1.032553,-0.93401 2.048941,-2.087434 z m -1.646392,-22.051115 c 7.676222,-8.22002 15.744982,-16.981992 19.146297,-20.791211 2.008036,-2.248843 4.609459,-5.131525 5.780946,-6.405956 1.171488,-1.27443 2.129977,-2.394037 2.129977,-2.488001 0,-0.271426 -1.4171,-0.263676 -4.032919,0.02207 -2.767218,0.302258 -5.807827,1.301679 -8.524168,2.801817 -2.270727,1.254044 -6.060081,4.80786 -7.624469,7.150544 -1.405293,2.104449 -2.814615,5.679587 -3.212279,8.148855 -0.340626,2.115092 -1.087615,3.118487 -2.521916,3.387564 -1.216204,0.228156 -2.693311,-0.520498 -3.101868,-1.572149 -0.659232,-1.696906 0.62947,-7.435993 2.497518,-11.122407 1.772607,-3.498074 5.573561,-7.611817 9.477222,-10.257126 5.809204,-3.936589 12.767608,-5.490909 19.327019,-4.317131 l 2.137785,0.38255 1.934259,-2.227361 c 1.06384,-1.225046 2.044666,-2.271263 2.179619,-2.324929 0.465249,-0.184995 0.243689,-0.566324 -0.413208,-0.711176 -0.362221,-0.0799 -1.433139,-0.355925 -2.379805,-0.613453 -6.075938,-1.652866 -13.292923,-1.035811 -20.035683,1.713054 -4.212975,1.717532 -6.882479,3.502098 -10.292358,6.880445 -5.327773,5.278509 -8.510013,10.940863 -10.281291,18.294134 -0.75758,3.145046 -0.92238,10.279263 -0.30425,13.171777 0.38865,1.818716 1.78148,6.862723 1.998877,7.238768 0.06798,0.117603 0.733583,-0.475131 1.479103,-1.317178 0.745516,-0.842048 2.831532,-3.111609 4.635592,-5.043477 z m 46.158141,34.091832 c -1.102529,-0.44327 -1.828939,-1.982253 -1.830168,-3.877443 l -8.29e-4,-1.69057 -0.863579,0.44658 c -1.891136,0.97793 -3.835638,0.17852 -4.382406,-1.80171 -0.494329,-1.79029 0.12835,-2.72357 2.917265,-4.37247 2.916193,-1.72412 7.743792,-6.223254 10.258485,-9.560505 2.235743,-2.967048 4.674183,-7.996665 5.678508,-11.71265 1.70623,-6.313094 1.37036,-14.388972 -0.85917,-20.658946 -0.720465,-2.026098 -0.601965,-3.080812 0.44514,-3.961889 1.75086,-1.473248 3.73065,-0.608523 4.91615,2.147244 2.5693,5.972512 3.33058,15.423775 1.77322,22.014158 -0.65872,2.787505 -1.91254,6.744292 -2.51507,7.937076 l -0.40662,0.804943 h 2.79764 c 1.73039,0 3.17024,0.155699 3.77444,0.408149 2.06109,0.861179 2.55438,2.982769 1.07799,4.636413 l -0.85347,0.955921 -5.22021,0.106034 -5.22018,0.106034 -2.048945,2.633358 c -1.126921,1.448347 -2.740465,3.236869 -3.58565,3.9745 l -1.536712,1.34115 v 3.75876 c 0,4.28273 -0.335032,5.493033 -1.718637,6.208513 -0.987099,0.51044 -1.622863,0.54898 -2.596927,0.15736 z m -23.898732,-1.455223 c -3.559362,-0.44504 -6.283771,-1.17377 -7.167134,-1.91707 -1.659426,-1.39632 -1.301607,-3.77517 0.712298,-4.73551 0.950748,-0.45338 1.147825,-0.45013 3.133364,0.0519 3.117269,0.78842 9.153868,0.94579 12.245921,0.31925 2.769609,-0.56118 4.001641,-0.43372 4.880943,0.50495 1.78138,1.90168 1.376918,3.52484 -1.125778,4.51787 -2.872944,1.13993 -8.868453,1.735003 -12.679614,1.25847 z m 0.992625,-11.425576 c -2.003537,-0.417892 -2.818672,-0.836318 -3.181795,-1.633276 -0.472716,-1.037505 -0.408507,-1.884175 0.221213,-2.916833 0.821026,-1.346391 1.94075,-1.699976 4.246596,-1.340989 3.904661,0.6079 8.524492,-0.661172 12.787702,-3.512788 5.846126,-3.910404 9.461964,-9.844348 10.237676,-16.801004 0.319791,-2.867864 0.167114,-4.46084 -0.801856,-8.366407 -0.407451,-1.642285 -0.423281,-2.087654 -0.101785,-2.863804 0.733579,-1.771009 2.626365,-2.56958 4.153412,-1.752332 2.224308,1.190421 3.43081,11.688347 1.999786,17.400484 -1.188487,4.744055 -3.102448,8.497682 -6.101348,11.965889 -4.212639,4.871882 -8.817823,7.795426 -14.82476,9.411306 -2.110106,0.567645 -6.808876,0.790608 -8.634837,0.409754 z m 50.609263,-67.343203 c -0.80465,-0.861369 -0.84922,-1.044965 -0.84922,-3.498703 0,-2.919253 0.33766,-3.93755 1.50599,-4.54172 1.14579,-0.592505 2.02553,-0.516077 2.99572,0.260268 1.01245,0.810164 1.31562,2.315639 1.06431,5.285348 -0.15053,1.779075 -0.27042,2.091381 -1.0387,2.706072 -1.25879,1.007168 -2.61256,0.929414 -3.6781,-0.211265 z m -101.101069,0.353279 c -0.32198,-0.139276 -0.84885,-0.546048 -1.17083,-0.903925 -0.55734,-0.619492 -0.5854,-1.062723 -0.5854,-9.244336 0,-7.8595003 0.0447,-8.6382943 0.52266,-9.1163403 0.49718,-0.497184 3.05286,-0.526887 52.394403,-0.608799 35.156716,-0.05838 52.210166,0.01155 52.921956,0.217072 1.50727,0.435127 2.23798,1.843773 1.73968,3.353674 -0.22542,0.683045 -0.71017,1.309765 -1.28337,1.659291 -0.83827,0.511137 -1.53334,0.561755 -7.72654,0.562759 l -6.80542,10e-4 v 2.217807 c 0,2.0609943 -0.0605,2.2783123 -0.8556,3.0734113 -0.97026,0.970269 -2.18104,1.116697 -3.51778,0.425441 -1.02644,-0.530751 -1.480745,-1.759224 -1.480745,-4.0040603 v -1.712508 h -13.318125 -13.318133 v 2.217805 c 0,2.0609963 -0.06049,2.2783133 -0.855606,3.0734233 -0.629831,0.629832 -1.13458,0.855596 -1.912882,0.855596 -2.153542,0 -3.08563,-1.339479 -3.08563,-4.4342643 v -1.71256 h -4.829656 -4.829651 v 2.078209 c 0,1.9731913 -0.0503,2.1285163 -0.995201,3.0734133 -1.32662,1.326625 -2.766102,1.376826 -4.003318,0.139606 -0.795104,-0.79511 -0.855603,-1.012427 -0.855603,-3.0734233 v -2.217805 h -6.840101 -6.840103 l -0.144294,2.24846 c -0.132813,2.0695063 -0.217784,2.3141213 -1.067586,3.0734123 -1.502665,1.342633 -3.468655,0.967157 -4.392265,-0.838863 -0.17983,-0.351643 -0.32696,-1.504169 -0.32696,-2.5611833 v -1.921826 h -6.1307 -6.13069 l -0.0893,6.2871483 -0.0893,6.287147 -0.7475,0.746888 c -0.80554,0.804862 -2.40561,1.167025 -3.35039,0.75833 z"
       id="path1571" />
    <path
       style="fill:#000000;stroke-width:0.16837"
       d="m -92.160975,-13.439718 c -0.956535,-0.45012 -1.64509,-1.25001 -1.916008,-2.22583 -0.10158,-0.36589 -0.185122,-1.93435 -0.185638,-3.48548 -5.05e-4,-1.55112 -0.06167,-2.82021 -0.135904,-2.82021 -0.07423,0 -0.487908,-0.34304 -0.919283,-0.76231 -0.759374,-0.73808 -0.882055,-1.01989 -1.005929,-2.31073 l -0.04447,-0.4633 -2.273006,-0.0504 c -1.861147,-0.0411 -2.410297,-0.11286 -3.030677,-0.39586 -1.85097,-0.84437 -2.81597,-2.86047 -2.1785,-4.55133 0.19344,-0.51305 1.04725,-1.47619 1.5892,-1.79267 0.20019,-0.1169 1.44448,-0.23079 3.068334,-0.28083 l 2.731592,-0.0842 0.04652,-37.336251 0.04652,-37.336261 -2.209746,1e-5 c -3.10673,7e-5 -3.87663,-0.31153 -4.96973,-2.01126 -0.9403,-1.46212 -0.43715,-3.42556 1.1253,-4.3912 0.58287,-0.36023 0.87096,-0.40027 3.372729,-0.46874 l 2.735426,-0.0749 0.0572,-1.65156 c 0.05398,-1.55872 0.0848,-1.68034 0.547995,-2.16348 0.269935,-0.28155 0.754159,-0.59883 1.076054,-0.70506 l 0.585263,-0.19316 -0.118581,-3.15786 c -0.187823,-5.00184 0.0044,-5.79003 1.661862,-6.81318 1.563816,-0.96537 3.367289,-0.56687 4.569834,1.00975 0.399553,0.52384 0.481303,0.8314 0.594745,2.23754 0.07234,0.89662 0.135197,2.91826 0.139692,4.49253 l 0.0081,2.8623 41.292969,-0.0474 c 32.380705,-0.0372 41.2769049,-0.0917 41.2185349,-0.25256 -0.21117,-0.58223 -0.0315,-2.66367 0.32147,-3.72441 0.69516,-2.08892 3.56588996,-5.93582 4.96795996,-6.65727 1.60304004,-0.82486 3.45994004,-0.48912 4.75245004,0.85925 0.99293,1.03587 1.06084,1.4022 1.06084,5.72311 0,3.82226 0.008,3.91814 0.37885,4.31233 0.32261,0.34333 0.38597,0.61972 0.42696,1.86292 0.0799,2.42106 -0.22992,2.18639 2.9678401,2.24822 l 2.76271,0.0534 0.64645,0.52074 c 1.0383,0.8364 1.40411,1.49855 1.40411,2.54154 0,1.07808 -0.41748,1.99564 -1.21331,2.66667 -1.00738,0.8494 -1.47483,0.95072 -4.1140201,0.89165 l -2.4182,-0.0541 2.3e-4,37.420428 2.5e-4,37.420424 2.56765,0.003 c 2.1392101,0.003 2.6800401,0.0557 3.2411401,0.31552 1.82173,0.84344 2.43583,2.72582 1.52645,4.67898 -0.77108,1.65613 -2.17202,2.18548 -5.3340601,2.01546 l -2.00118,-0.10761 -0.003,1.13507 c -0.003,0.82101 -0.10603,1.34474 -0.37354,1.89276 -0.3285,0.67295 -0.38005,1.11533 -0.46111,3.95672 -0.10377,3.63905 -0.24609,4.14757 -1.39284,4.97828 -1.2419,0.89962 -2.7263,0.77956 -3.89348,-0.31492 -0.88532004,-0.83018 -1.10748004,-1.58362 -1.11159004,-3.77 l -0.003,-1.96894 -43.65015786,0.0262 -43.65015,0.0262 -0.01001,1.60598 c -0.01247,1.99569 -0.365541,3.15133 -1.181759,3.86799 -1.300504,1.14184 -2.438808,1.38765 -3.693014,0.79744 z m 92.21952786,-47.930295 -0.0497,-34.263478 -5.39008996,-0.04817 c -6.2707699,-0.05597 -6.6597399,-0.130839 -8.0837119,-1.554812 -1.271211,-1.27122 -1.327492,-1.614005 -1.327492,-8.086037 v -5.50279 l -0.781214,-0.10708 c -0.42966,-0.0589 -17.212212,-0.10707 -37.294583,-0.10707 h -36.513398 l 0.04251,33.441311 0.04251,33.441298 6.199277,-0.02885 6.199275,-0.02886 0.761492,0.446268 c 1.400706,0.820861 1.395738,0.789572 1.402638,8.832485 0.0033,3.84306 0.05163,7.15768 0.10741,7.3658 l 0.101411,0.3784 32.518144,0.0426 c 17.88499,0.0234 34.6775119,0.0426 37.3167219,0.0426 H 0.10831286 Z M -31.598676,-29.803648 c -1.909284,-0.8293 -2.949463,-2.87595 -2.311135,-4.54739 0.408132,-1.06868 5.239549,-5.979403 6.378515,-6.483226 1.274998,-0.56399 2.77334,-0.166603 3.932878,1.043055 1.068132,1.114311 1.308482,2.356921 0.710777,3.674651 -0.368842,0.81316 -5.247594,5.89062 -6.081745,6.32945 -0.57998,0.30512 -1.908005,0.29677 -2.62929,-0.0165 z m 22.8142889,-5.03933 c -0.72883,-0.25994 -0.74211,-0.27029 -3.1458099,-2.45118 -0.97234,-0.88221 -2.439493,-2.170986 -3.260318,-2.863955 -0.820835,-0.692979 -2.091827,-1.766739 -2.824417,-2.386139 -1.934564,-1.63568 -5.724113,-4.95894 -10.043507,-8.807698 -2.078557,-1.852076 -4.7363,-4.198535 -5.906086,-5.214348 -4.36061,-3.786629 -4.764452,-4.355588 -4.383417,-6.175686 0.366418,-1.750284 1.387487,-2.760217 2.981536,-2.949006 1.388122,-0.164404 2.133393,0.324036 6.778189,4.442332 2.274677,2.016842 6.09848,5.371745 8.497327,7.455335 2.398856,2.083585 4.960051,4.318712 5.691554,4.966937 0.731494,0.64823 1.586519,1.377056 1.900039,1.619611 1.28151,0.991422 7.6451299,6.753201 7.9835999,7.228538 1.0891,1.529479 0.2662,3.870029 -1.70735,4.856229 -1.14889,0.5741 -1.59707,0.62292 -2.56134,0.27903 z m -33.3586499,-0.34404 c -0.974575,-0.34717 -1.459045,-0.76226 -2.080974,-1.78294 -0.513284,-0.84239 -0.551415,-1.00267 -0.49735,-2.09092 0.03221,-0.648221 0.112063,-1.292243 0.177463,-1.431144 0.099,-0.21028 -0.07137,-0.256206 -1.017996,-0.274366 -1.647224,-0.03159 -2.957197,-0.568383 -3.962104,-1.623514 l -0.804763,-0.844984 -0.583231,0.681376 c -1.52805,1.785177 -3.201328,2.200837 -4.911449,1.220045 -1.206465,-0.691923 -1.910754,-1.747209 -2.027837,-3.038425 -0.05273,-0.581508 -0.0094,-1.184962 0.104982,-1.460055 0.267045,-0.642567 12.194564,-12.349943 12.959479,-12.720286 0.735419,-0.356065 1.777214,-0.263944 2.798468,0.247449 1.393691,0.697905 2.216183,1.843924 2.392634,3.333794 0.126362,1.066933 -0.32312,1.85466 -1.957439,3.430401 -0.660767,0.637082 -1.179637,1.177079 -1.153056,1.199995 0.0266,0.0229 0.371349,0.204566 0.76616,0.403677 1.364178,0.687965 2.171365,2.414842 2.036882,4.35767 -0.03341,0.482983 -0.03144,0.878112 0.0044,0.878057 0.03583,-6.3e-5 0.869302,-0.821428 1.852138,-1.825257 1.96496,-2.006947 2.510317,-2.310416 3.910194,-2.175908 1.715226,0.164811 3.216908,1.657298 3.246422,3.226549 0.02437,1.295343 -0.553355,2.078578 -4.502098,6.10369 -2.048057,2.087686 -4.006253,3.939896 -4.351537,4.116046 -0.736506,0.37574 -1.478511,0.39709 -2.399372,0.069 z M -67.071662,-51.59357 c -1.370037,-0.333536 -2.206074,-1.133412 -2.780396,-2.660148 -0.440987,-1.172288 -0.360185,-2.201114 0.233721,-2.975911 0.37206,-0.485386 2.969547,-3.071384 11.59661,-11.545345 1.921532,-1.887432 3.493696,-3.481596 3.493696,-3.542579 0,-0.06097 -0.170475,-0.191456 -0.378835,-0.289927 -0.208358,-0.09847 -0.98497,-0.726515 -1.725801,-1.39565 -0.740833,-0.669135 -2.135543,-1.869824 -3.099356,-2.668199 -2.344155,-1.941776 -9.905339,-8.377106 -11.38054,-9.685983 -1.778256,-1.577765 -4.726196,-4.105358 -6.156052,-5.278264 -1.613414,-1.323481 -2.079378,-2.166272 -1.977372,-3.576496 0.135192,-1.869021 1.606816,-3.193928 3.552025,-3.197892 1.339898,-0.0027 1.641902,0.208266 7.106961,4.965421 1.38906,1.209132 3.737835,3.21697 5.219498,4.461855 6.245326,5.247304 13.5882,11.589483 13.694165,11.827903 0.03087,0.06946 0.108322,0.12628 0.172117,0.12628 0.06379,0 3.713234,-3.593405 8.109863,-7.985349 7.794746,-7.78643 8.013139,-7.988125 8.767343,-8.096976 1.426114,-0.205823 2.862894,0.469274 3.531837,1.659507 0.22022,0.391828 0.400189,1.071348 0.450832,1.702231 l 0.08428,1.050062 0.635956,-0.689931 c 0.795433,-0.862939 2.953655,-2.027006 4.382604,-2.363814 1.263414,-0.297784 3.320171,-0.332651 4.862419,-0.08242 2.033539,0.329941 3.90231,1.349509 5.61774,3.064938 1.20512,1.205118 1.80984,2.196539 2.4378,3.996687 0.3742,1.072716 0.43961,1.541557 0.43452,3.114866 -0.005,1.579185 -0.0761,2.059282 -0.48214,3.258348 -0.83392,2.462831 -2.3243,4.395744 -4.359289,5.653673 -1.65554,1.023373 -3.15713,1.463775 -5.345457,1.567774 -3.377127,0.160485 -5.84034,-0.748915 -8.065101,-2.97759 -1.524248,-1.526927 -2.183526,-2.630137 -2.759466,-4.617586 -0.559801,-1.931754 -0.558611,-4.57052 0.0025,-6.083669 0.225698,-0.608382 -3.916328,3.410635 -21.284538,20.652436 -13.661927,13.562537 -13.008076,12.997435 -14.592336,12.611748 z m 47.518006,-26.705949 c 1.002092,-0.499359 1.67632,-1.306165 2.012475,-2.408186 0.405702,-1.330023 -0.07159,-2.729391 -1.285145,-3.768182 -1.52931,-1.309035 -3.284891,-1.116949 -4.764998,0.521353 -1.040714,1.151949 -1.239118,2.609047 -0.544949,4.002083 0.514481,1.032422 1.026214,1.53301 1.87739,1.836498 0.970291,0.345951 1.748614,0.29314 2.705227,-0.183566 z m -52.784346,19.039239 c -1.018066,-0.317908 -1.8145,-0.980839 -2.395591,-1.994035 -0.603771,-1.052742 -0.680031,-2.269047 -0.191994,-3.062189 0.294501,-0.478615 7.640659,-7.874107 8.128682,-8.183277 0.429087,-0.271822 1.868575,-0.162388 2.614646,0.198773 1.743868,0.844199 2.862686,3.431808 2.14951,4.971417 -0.173557,0.374677 -1.571582,1.950877 -3.260665,3.676227 -1.626265,1.66118 -3.223738,3.300787 -3.549939,3.643576 -0.894639,0.940123 -2.074117,1.19309 -3.494649,0.749508 z m -10.432392,-7.591422 c -2.304,-1.148131 -3.123092,-3.578559 -1.830464,-5.431379 0.640596,-0.91822 8.133847,-8.146368 8.819397,-8.507383 0.451359,-0.237688 0.770049,-0.283251 1.361114,-0.194618 0.871015,0.130618 2.153416,0.729965 2.585778,1.208502 0.47879,0.529925 1.004881,1.896978 1.015564,2.638964 0.01773,1.231953 -0.562277,2.004452 -4.483028,5.970778 -2.048179,2.071991 -3.834607,3.88428 -3.96984,4.027309 -0.751643,0.79497 -2.235783,0.917075 -3.498521,0.287827 z m 0.966279,33.609594 v -3.50366 l -0.526159,-0.10524 c -0.289387,-0.0578 -1.994142,-0.10522 -3.788345,-0.10522 h -3.262185 v 3.62457 3.62459 l 3.788345,-0.0156 3.788344,-0.0157 v -3.50368 z m 81.87482786,-73.798492 -0.0376,-3.91464 -0.72005,-0.039 c -0.39605996,-0.0215 -2.17867996,-0.0593 -3.96138996,-0.0842 l -3.24131,-0.0452 1.6e-4,3.99881 1.8e-4,3.9988 3.9988,2e-5 3.99879996,2e-5 -0.0376,-3.91465 z"
       id="path1701" />
  </g>
</svg>
